<?xml version="1.0" encoding="UTF-8"?>
<svg xmlns="http://www.w3.org/2000/svg" viewBox="0 0 1000 1000" class="stadium-map">
  <defs>
    <style>
      .section-path {
        cursor: pointer;
        transition: all 0.2s ease;
      }
      .section-path:hover {
        fill-opacity: 0.9;
        stroke-width: 2;
        stroke: #ffffff;
      }
      .field {
        fill: #22c55e;
      }
    </style>
  </defs>

  <!-- Baseball field -->
  <circle cx="500" cy="500" r="150" class="field" fill="#22c55e" opacity="0.3" />
  <circle cx="500" cy="500" r="120" fill="#a16207" opacity="0.2" />

  <!-- Home plate indicator -->
  <circle cx="500" cy="580" r="5" fill="#dc2626" />

  <!-- Sections -->
  
      <g class="section" data-section-id="101" data-level="loge">
        <path
          d="
    M 738.849790256771 625.899871700874
    L 791.9275214249424 653.8776209677349
    A 330 330 0 0 1 779.2256895444425 675.8778391339586
    L 728.4573823545438 643.9000502005115
    A 270 270 0 0 0 738.849790256771 625.899871700874
    Z
  "
          fill="#0891b2"
          fill-opacity="0.6"
          stroke="#1f2937"
          stroke-width="1"
          class="section-path"
          data-section="101"
        />
        <title>101 (0 seats)</title>
      </g>
    

      <g class="section" data-section-id="102" data-level="loge">
        <path
          d="
    M 728.4573823545438 643.9000502005116
    L 779.2256895444425 675.8778391339586
    A 330 330 0 0 1 764.8691540933542 696.8357975823276
    L 716.7111260763807 661.0474707491771
    A 270 270 0 0 0 728.4573823545438 643.9000502005116
    Z
  "
          fill="#0891b2"
          fill-opacity="0.6"
          stroke="#1f2937"
          stroke-width="1"
          class="section-path"
          data-section="102"
        />
        <title>102 (0 seats)</title>
      </g>
    

      <g class="section" data-section-id="103" data-level="loge">
        <path
          d="
    M 716.7111260763807 661.0474707491771
    L 764.8691540933542 696.8357975823276
    A 330 330 0 0 1 748.9429925246541 716.6272985403041
    L 703.6806302474442 677.2405169875215
    A 270 270 0 0 0 716.7111260763807 661.0474707491771
    Z
  "
          fill="#0891b2"
          fill-opacity="0.6"
          stroke="#1f2937"
          stroke-width="1"
          class="section-path"
          data-section="103"
        />
        <title>103 (0 seats)</title>
      </g>
    

      <g class="section" data-section-id="104" data-level="loge">
        <path
          d="
    M 703.6806302474442 677.2405169875215
    L 748.9429925246541 716.6272985403041
    A 330 330 0 0 1 731.5415839639039 735.1350567131291
    L 689.443114152285 692.3832282198329
    A 270 270 0 0 0 703.6806302474442 677.2405169875215
    Z
  "
          fill="#0891b2"
          fill-opacity="0.6"
          stroke="#1f2937"
          stroke-width="1"
          class="section-path"
          data-section="104"
        />
        <title>104 (0 seats)</title>
      </g>
    

      <g class="section" data-section-id="105" data-level="loge">
        <path
          d="
    M 689.443114152285 692.3832282198329
    L 731.5415839639039 735.1350567131291
    A 330 330 0 0 1 712.76804991445 752.2493943215763
    L 674.0829499300046 706.3858680812897
    A 270 270 0 0 0 689.443114152285 692.3832282198329
    Z
  "
          fill="#0891b2"
          fill-opacity="0.6"
          stroke="#1f2937"
          stroke-width="1"
          class="section-path"
          data-section="105"
        />
        <title>105 (0 seats)</title>
      </g>
    

      <g class="section" data-section-id="106" data-level="loge">
        <path
          d="
    M 674.0829499300046 706.3858680812898
    L 712.76804991445 752.2493943215763
    A 330 330 0 0 1 692.7336431549134 767.8688910572382
    L 657.6911625812927 719.1654563195585
    A 270 270 0 0 0 674.0829499300046 706.3858680812898
    Z
  "
          fill="#0891b2"
          fill-opacity="0.6"
          stroke="#1f2937"
          stroke-width="1"
          class="section-path"
          data-section="106"
        />
        <title>106 (0 seats)</title>
      </g>
    

      <g class="section" data-section-id="107" data-level="loge">
        <path
          d="
    M 657.6911625812927 719.1654563195585
    L 692.7336431549134 767.8688910572382
    A 330 330 0 0 1 671.5570884503888 781.9009851036805
    L 640.3648905503181 730.6462605393749
    A 270 270 0 0 0 657.6911625812927 719.1654563195585
    Z
  "
          fill="#0891b2"
          fill-opacity="0.6"
          stroke="#1f2937"
          stroke-width="1"
          class="section-path"
          data-section="107"
        />
        <title>107 (0 seats)</title>
      </g>
    

      <g class="section" data-section-id="108" data-level="loge">
        <path
          d="
    M 640.3648905503181 730.6462605393749
    L 671.5570884503888 781.9009851036805
    A 330 330 0 0 1 649.3638789843279 794.2625216617894
    L 622.2068100780865 740.7602449960095
    A 270 270 0 0 0 640.3648905503181 730.6462605393749
    Z
  "
          fill="#0891b2"
          fill-opacity="0.6"
          stroke="#1f2937"
          stroke-width="1"
          class="section-path"
          data-section="108"
        />
        <title>108 (0 seats)</title>
      </g>
    

      <g class="section" data-section-id="109" data-level="loge">
        <path
          d="
    M 622.2068100780864 740.7602449960095
    L 649.3638789843278 794.2625216617894
    A 330 330 0 0 1 626.2855326804796 804.8802457287246
    L 603.3245267385743 749.4474737780474
    A 270 270 0 0 0 622.2068100780864 740.7602449960095
    Z
  "
          fill="#0891b2"
          fill-opacity="0.6"
          stroke="#1f2937"
          stroke-width="1"
          class="section-path"
          data-section="109"
        />
        <title>109 (0 seats)</title>
      </g>
    

      <g class="section" data-section-id="110" data-level="loge">
        <path
          d="
    M 603.3245267385743 749.4474737780474
    L 626.2855326804796 804.8802457287246
    A 330 330 0 0 1 602.4588128219596 813.6912362102496
    L 583.8299377634214 756.6564659902043
    A 270 270 0 0 0 603.3245267385743 749.4474737780474
    Z
  "
          fill="#0891b2"
          fill-opacity="0.6"
          stroke="#1f2937"
          stroke-width="1"
          class="section-path"
          data-section="110"
        />
        <title>110 (0 seats)</title>
      </g>
    

      <g class="section" data-section-id="111" data-level="loge">
        <path
          d="
    M 583.8299377634214 756.6564659902043
    L 602.4588128219594 813.6912362102496
    A 330 330 0 0 1 578.0249175860902 820.6432787938706
    L 563.8385689340738 762.3445008313487
    A 270 270 0 0 0 583.8299377634214 756.6564659902043
    Z
  "
          fill="#0891b2"
          fill-opacity="0.6"
          stroke="#1f2937"
          stroke-width="1"
          class="section-path"
          data-section="111"
        />
        <title>111 (0 seats)</title>
      </g>
    

  <!-- Legend -->
  <g transform="translate(800, 50)">
    <text x="0" y="0" font-size="14" font-weight="bold" fill="#1f2937">Levels</text>
    <rect x="0" y="10" width="20" height="20" fill="#2563eb" opacity="0.6" />
    <text x="25" y="25" font-size="12" fill="#1f2937">Field</text>
    <rect x="0" y="35" width="20" height="20" fill="#7c3aed" opacity="0.6" />
    <text x="25" y="50" font-size="12" fill="#1f2937">Club</text>
    <rect x="0" y="60" width="20" height="20" fill="#0891b2" opacity="0.6" />
    <text x="25" y="75" font-size="12" fill="#1f2937">Loge</text>
    <rect x="0" y="85" width="20" height="20" fill="#059669" opacity="0.6" />
    <text x="25" y="100" font-size="12" fill="#1f2937">Reserve</text>
    <rect x="0" y="110" width="20" height="20" fill="#ea580c" opacity="0.6" />
    <text x="25" y="125" font-size="12" fill="#1f2937">Upper</text>
    <rect x="0" y="135" width="20" height="20" fill="#dc2626" opacity="0.6" />
    <text x="25" y="150" font-size="12" fill="#1f2937">Pavilion</text>
  </g>
</svg>