<?xml version="1.0" encoding="UTF-8"?>
<svg xmlns="http://www.w3.org/2000/svg" viewBox="0 0 1000 1000" class="stadium-map">
  <defs>
    <style>
      .section-path {
        cursor: pointer;
        transition: all 0.2s ease;
      }
      .section-path:hover {
        fill-opacity: 0.9;
        stroke-width: 2;
        stroke: #ffffff;
      }
      .field {
        fill: #22c55e;
      }
    </style>
  </defs>

  <!-- Baseball field -->
  <circle cx="500" cy="500" r="150" class="field" fill="#22c55e" opacity="0.3" />
  <circle cx="500" cy="500" r="120" fill="#a16207" opacity="0.2" />

  <!-- Home plate indicator -->
  <circle cx="500" cy="580" r="5" fill="#dc2626" />

  <!-- Sections -->
  
      <g class="section" data-section-id="101" data-level="loge">
        <path
          d="
    M 738.849790256771 625.899871700874
    L 791.9275214249424 653.8776209677349
    A 330 330 0 0 1 779.2256895444425 675.8778391339586
    L 728.4573823545438 643.9000502005115
    A 270 270 0 0 0 738.849790256771 625.899871700874
    Z
  "
          fill="#0891b2"
          fill-opacity="0.6"
          stroke="#1f2937"
          stroke-width="1"
          class="section-path"
          data-section="101"
        />
        <title>101 (0 seats)</title>
      </g>
    

      <g class="section" data-section-id="102" data-level="loge">
        <path
          d="
    M 728.4573823545438 643.9000502005116
    L 779.2256895444425 675.8778391339586
    A 330 330 0 0 1 764.8691540933542 696.8357975823276
    L 716.7111260763807 661.0474707491771
    A 270 270 0 0 0 728.4573823545438 643.9000502005116
    Z
  "
          fill="#0891b2"
          fill-opacity="0.6"
          stroke="#1f2937"
          stroke-width="1"
          class="section-path"
          data-section="102"
        />
        <title>102 (0 seats)</title>
      </g>
    

      <g class="section" data-section-id="103" data-level="loge">
        <path
          d="
    M 716.7111260763807 661.0474707491771
    L 764.8691540933542 696.8357975823276
    A 330 330 0 0 1 748.9429925246541 716.6272985403041
    L 703.6806302474442 677.2405169875215
    A 270 270 0 0 0 716.7111260763807 661.0474707491771
    Z
  "
          fill="#0891b2"
          fill-opacity="0.6"
          stroke="#1f2937"
          stroke-width="1"
          class="section-path"
          data-section="103"
        />
        <title>103 (0 seats)</title>
      </g>
    

      <g class="section" data-section-id="104" data-level="loge">
        <path
          d="
    M 703.6806302474442 677.2405169875215
    L 748.9429925246541 716.6272985403041
    A 330 330 0 0 1 731.5415839639039 735.1350567131291
    L 689.443114152285 692.3832282198329
    A 270 270 0 0 0 703.6806302474442 677.2405169875215
    Z
  "
          fill="#0891b2"
          fill-opacity="0.6"
          stroke="#1f2937"
          stroke-width="1"
          class="section-path"
          data-section="104"
        />
        <title>104 (0 seats)</title>
      </g>
    

      <g class="section" data-section-id="105" data-level="loge">
        <path
          d="
    M 689.443114152285 692.3832282198329
    L 731.5415839639039 735.1350567131291
    A 330 330 0 0 1 712.76804991445 752.2493943215763
    L 674.0829499300046 706.3858680812897
    A 270 270 0 0 0 689.443114152285 692.3832282198329
    Z
  "
          fill="#0891b2"
          fill-opacity="0.6"
          stroke="#1f2937"
          stroke-width="1"
          class="section-path"
          data-section="105"
        />
        <title>105 (0 seats)</title>
      </g>
    

      <g class="section" data-section-id="106" data-level="loge">
        <path
          d="
    M 674.0829499300046 706.3858680812898
    L 712.76804991445 752.2493943215763
    A 330 330 0 0 1 692.7336431549134 767.8688910572382
    L 657.6911625812927 719.1654563195585
    A 270 270 0 0 0 674.0829499300046 706.3858680812898
    Z
  "
          fill="#0891b2"
          fill-opacity="0.6"
          stroke="#1f2937"
          stroke-width="1"
          class="section-path"
          data-section="106"
        />
        <title>106 (0 seats)</title>
      </g>
    

      <g class="section" data-section-id="107" data-level="loge">
        <path
          d="
    M 657.6911625812927 719.1654563195585
    L 692.7336431549134 767.8688910572382
    A 330 330 0 0 1 671.5570884503888 781.9009851036805
    L 640.3648905503181 730.6462605393749
    A 270 270 0 0 0 657.6911625812927 719.1654563195585
    Z
  "
          fill="#0891b2"
          fill-opacity="0.6"
          stroke="#1f2937"
          stroke-width="1"
          class="section-path"
          data-section="107"
        />
        <title>107 (0 seats)</title>
      </g>
    

      <g class="section" data-section-id="108" data-level="loge">
        <path
          d="
    M 640.3648905503181 730.6462605393749
    L 671.5570884503888 781.9009851036805
    A 330 330 0 0 1 649.3638789843279 794.2625216617894
    L 622.2068100780865 740.7602449960095
    A 270 270 0 0 0 640.3648905503181 730.6462605393749
    Z
  "
          fill="#0891b2"
          fill-opacity="0.6"
          stroke="#1f2937"
          stroke-width="1"
          class="section-path"
          data-section="108"
        />
        <title>108 (0 seats)</title>
      </g>
    

      <g class="section" data-section-id="109" data-level="loge">
        <path
          d="
    M 622.2068100780864 740.7602449960095
    L 649.3638789843278 794.2625216617894
    A 330 330 0 0 1 626.2855326804796 804.8802457287246
    L 603.3245267385743 749.4474737780474
    A 270 270 0 0 0 622.2068100780864 740.7602449960095
    Z
  "
          fill="#0891b2"
          fill-opacity="0.6"
          stroke="#1f2937"
          stroke-width="1"
          class="section-path"
          data-section="109"
        />
        <title>109 (0 seats)</title>
      </g>
    

      <g class="section" data-section-id="110" data-level="loge">
        <path
          d="
    M 603.3245267385743 749.4474737780474
    L 626.2855326804796 804.8802457287246
    A 330 330 0 0 1 602.4588128219596 813.6912362102496
    L 583.8299377634214 756.6564659902043
    A 270 270 0 0 0 603.3245267385743 749.4474737780474
    Z
  "
          fill="#0891b2"
          fill-opacity="0.6"
          stroke="#1f2937"
          stroke-width="1"
          class="section-path"
          data-section="110"
        />
        <title>110 (0 seats)</title>
      </g>
    

      <g class="section" data-section-id="111" data-level="loge">
        <path
          d="
    M 583.8299377634214 756.6564659902043
    L 602.4588128219594 813.6912362102496
    A 330 330 0 0 1 578.0249175860902 820.6432787938706
    L 563.8385689340738 762.3445008313487
    A 270 270 0 0 0 583.8299377634214 756.6564659902043
    Z
  "
          fill="#0891b2"
          fill-opacity="0.6"
          stroke="#1f2937"
          stroke-width="1"
          class="section-path"
          data-section="111"
        />
        <title>111 (0 seats)</title>
      </g>
    

      <g class="section" data-section-id="112" data-level="loge">
        <path
          d="
    M 563.8385689340738 762.3445008313487
    L 578.0249175860902 820.6432787938706
    A 330 330 0 0 1 553.1286432978662 825.6951753731211
    L 543.4688899709815 766.4778707598264
    A 270 270 0 0 0 563.8385689340738 762.3445008313487
    Z
  "
          fill="#0891b2"
          fill-opacity="0.6"
          stroke="#1f2937"
          stroke-width="1"
          class="section-path"
          data-section="112"
        />
        <title>112 (0 seats)</title>
      </g>
    

      <g class="section" data-section-id="113" data-level="loge">
        <path
          d="
    M 543.4688899709815 766.4778707598264
    L 553.1286432978662 825.6951753731211
    A 330 330 0 0 1 527.9175263606406 828.8169881893314
    L 522.8416124768878 769.0320812458167
    A 270 270 0 0 0 543.4688899709815 766.4778707598264
    Z
  "
          fill="#0891b2"
          fill-opacity="0.6"
          stroke="#1f2937"
          stroke-width="1"
          class="section-path"
          data-section="113"
        />
        <title>113 (0 seats)</title>
      </g>
    

      <g class="section" data-section-id="114" data-level="loge">
        <path
          d="
    M 522.8416124768878 769.0320812458167
    L 527.9175263606406 828.8169881893314
    A 330 330 0 0 1 502.54096894898623 829.9902172440878
    L 502.0789745946251 769.991995926981
    A 270 270 0 0 0 522.8416124768878 769.0320812458167
    Z
  "
          fill="#0891b2"
          fill-opacity="0.6"
          stroke="#1f2937"
          stroke-width="1"
          class="section-path"
          data-section="114"
        />
        <title>114 (0 seats)</title>
      </g>
    

      <g class="section" data-section-id="115" data-level="loge">
        <path
          d="
    M 502.0789745946251 769.991995926981
    L 502.54096894898623 829.9902172440878
    A 330 330 0 0 1 477.14935364491686 829.2079099310266
    L 481.3040166185683 769.3519263072036
    A 270 270 0 0 0 502.0789745946251 769.991995926981
    Z
  "
          fill="#0891b2"
          fill-opacity="0.6"
          stroke="#1f2937"
          stroke-width="1"
          class="section-path"
          data-section="115"
        />
        <title>115 (0 seats)</title>
      </g>
    

      <g class="section" data-section-id="116" data-level="loge">
        <path
          d="
    M 481.30401661856826 769.3519263072035
    L 477.1493536449168 829.2079099310265
    A 330 330 0 0 1 451.8931522641712 826.4747022372817
    L 460.63985185250374 767.1156654668669
    A 270 270 0 0 0 481.30401661856826 769.3519263072035
    Z
  "
          fill="#0891b2"
          fill-opacity="0.6"
          stroke="#1f2937"
          stroke-width="1"
          class="section-path"
          data-section="116"
        />
        <title>116 (0 seats)</title>
      </g>
    

      <g class="section" data-section-id="117" data-level="loge">
        <path
          d="
    M 460.6398518525036 767.1156654668669
    L 451.89315226417114 826.4747022372817
    A 330 330 0 0 1 426.9220341536939 821.8067912704238
    L 440.20893703484046 763.2964655848922
    A 270 270 0 0 0 460.6398518525036 767.1156654668669
    Z
  "
          fill="#0891b2"
          fill-opacity="0.6"
          stroke="#1f2937"
          stroke-width="1"
          class="section-path"
          data-section="117"
        />
        <title>117 (0 seats)</title>
      </g>
    

      <g class="section" data-section-id="118" data-level="loge">
        <path
          d="
    M 440.20893703484046 763.2964655848922
    L 426.9220341536939 821.8067912704238
    A 330 330 0 0 1 402.38397924458076 815.2318392736963
    L 420.132346654657 757.9169594057516
    A 270 270 0 0 0 440.20893703484046 763.2964655848922
    Z
  "
          fill="#0891b2"
          fill-opacity="0.6"
          stroke="#1f2937"
          stroke-width="1"
          class="section-path"
          data-section="118"
        />
        <title>118 (0 seats)</title>
      </g>
    

      <g class="section" data-section-id="119" data-level="loge">
        <path
          d="
    M 420.132346654657 757.9169594057516
    L 402.38397924458076 815.2318392736963
    A 330 330 0 0 1 378.42440111657686 806.7888096983608
    L 400.5290554590174 751.0090261168406
    A 270 270 0 0 0 420.132346654657 757.9169594057516
    Z
  "
          fill="#0891b2"
          fill-opacity="0.6"
          stroke="#1f2937"
          stroke-width="1"
          class="section-path"
          data-section="119"
        />
        <title>119 (0 seats)</title>
      </g>
    

      <g class="section" data-section-id="120" data-level="loge">
        <path
          d="
    M 400.52905545901734 751.0090261168406
    L 378.42440111657675 806.7888096983606
    A 330 330 0 0 1 355.185285270883 796.52773630459
    L 381.51523340344977 742.6136024310282
    A 270 270 0 0 0 400.52905545901734 751.0090261168406
    Z
  "
          fill="#0891b2"
          fill-opacity="0.6"
          stroke="#1f2937"
          stroke-width="1"
          class="section-path"
          data-section="120"
        />
        <title>120 (0 seats)</title>
      </g>
    

      <g class="section" data-section-id="121" data-level="loge">
        <path
          d="
    M 381.51523340344977 742.6136024310282
    L 355.185285270883 796.52773630459
    A 330 330 0 0 1 332.80434771790664 784.5094266592328
    L 363.20355722374177 732.7804399939178
    A 270 270 0 0 0 381.51523340344977 742.6136024310282
    Z
  "
          fill="#0891b2"
          fill-opacity="0.6"
          stroke="#1f2937"
          stroke-width="1"
          class="section-path"
          data-section="121"
        />
        <title>121 (0 seats)</title>
      </g>
    

      <g class="section" data-section-id="122" data-level="loge">
        <path
          d="
    M 363.20355722374177 732.7804399939178
    L 332.80434771790664 784.5094266592328
    A 330 330 0 0 1 311.4142188661977 770.8051017875284
    L 345.7025427087072 721.5678105534323
    A 270 270 0 0 0 363.20355722374177 732.7804399939178
    Z
  "
          fill="#0891b2"
          fill-opacity="0.6"
          stroke="#1f2937"
          stroke-width="1"
          class="section-path"
          data-section="122"
        />
        <title>122 (0 seats)</title>
      </g>
    

      <g class="section" data-section-id="123" data-level="loge">
        <path
          d="
    M 345.7025427087072 721.5678105534323
    L 311.4142188661977 770.8051017875284
    A 330 330 0 0 1 291.1416575488853 755.4959741142175
    L 329.11590163090614 709.0421606389052
    A 270 270 0 0 0 345.7025427087072 721.5678105534323
    Z
  "
          fill="#0891b2"
          fill-opacity="0.6"
          stroke="#1f2937"
          stroke-width="1"
          class="section-path"
          data-section="123"
        />
        <title>123 (0 seats)</title>
      </g>
    

      <g class="section" data-section-id="124" data-level="loge">
        <path
          d="
    M 329.11590163090614 709.0421606389052
    L 291.1416575488853 755.4959741142175
    A 330 330 0 0 1 272.1067998453233 738.6727661951829
    L 313.5419271461736 695.2777177960587
    A 270 270 0 0 0 329.11590163090614 709.0421606389052
    Z
  "
          fill="#0891b2"
          fill-opacity="0.6"
          stroke="#1f2937"
          stroke-width="1"
          class="section-path"
          data-section="124"
        />
        <title>124 (0 seats)</title>
      </g>
    

      <g class="section" data-section-id="125" data-level="loge">
        <path
          d="
    M 313.54192714617375 695.2777177960589
    L 272.1067998453235 738.6727661951832
    A 330 330 0 0 1 254.42244714946344 720.4351730916414
    L 299.07291130410647 680.356050711343
    A 270 270 0 0 0 313.54192714617375 695.2777177960589
    Z
  "
          fill="#0891b2"
          fill-opacity="0.6"
          stroke="#1f2937"
          stroke-width="1"
          class="section-path"
          data-section="125"
        />
        <title>125 (0 seats)</title>
      </g>
    

      <g class="section" data-section-id="126" data-level="loge">
        <path
          d="
    M 299.07291130410647 680.356050711343
    L 254.42244714946344 720.4351730916414
    A 330 330 0 0 1 238.19339770389223 700.8912715728776
    L 285.7945981213664 664.3655858323544
    A 270 270 0 0 0 299.07291130410647 680.356050711343
    Z
  "
          fill="#0891b2"
          fill-opacity="0.6"
          stroke="#1f2937"
          stroke-width="1"
          class="section-path"
          data-section="126"
        />
        <title>126 (0 seats)</title>
      </g>
    

      <g class="section" data-section-id="127" data-level="loge">
        <path
          d="
    M 285.7945981213666 664.3655858323548
    L 238.19339770389251 700.8912715728779
    A 330 330 0 0 1 223.51582556089278 680.1568796486144
    L 273.78567545891224 647.4010833488663
    A 270 270 0 0 0 285.7945981213666 664.3655858323548
    Z
  "
          fill="#0891b2"
          fill-opacity="0.6"
          stroke="#1f2937"
          stroke-width="1"
          class="section-path"
          data-section="127"
        />
        <title>127 (0 seats)</title>
      </g>
    

      <g class="section" data-section-id="128" data-level="loge">
        <path
          d="
    M 273.78567545891224 647.4010833488663
    L 223.51582556089278 680.1568796486144
    A 330 330 0 0 1 210.47671065082915 658.3548702264515
    L 263.11730871431473 629.5630756398239
    A 270 270 0 0 0 273.78567545891224 647.4010833488663
    Z
  "
          fill="#0891b2"
          fill-opacity="0.6"
          stroke="#1f2937"
          stroke-width="1"
          class="section-path"
          data-section="128"
        />
        <title>128 (0 seats)</title>
      </g>
    

      <g class="section" data-section-id="129" data-level="loge">
        <path
          d="
    M 263.11730871431485 629.5630756398241
    L 210.47671065082926 658.3548702264517
    A 330 330 0 0 1 199.1533233353013 635.614442961678
    L 253.85271909251924 610.9572715141002
    A 270 270 0 0 0 263.11730871431485 629.5630756398241
    Z
  "
          fill="#0891b2"
          fill-opacity="0.6"
          stroke="#1f2937"
          stroke-width="1"
          class="section-path"
          data-section="129"
        />
        <title>129 (0 seats)</title>
      </g>
    

      <g class="section" data-section-id="130" data-level="loge">
        <path
          d="
    M 253.85271909251924 610.9572715141002
    L 199.1533233353013 635.614442961678
    A 330 330 0 0 1 189.61276649962264 612.0703586144982
    L 246.04680895423672 591.6939297754985
    A 270 270 0 0 0 253.85271909251924 610.9572715141002
    Z
  "
          fill="#0891b2"
          fill-opacity="0.6"
          stroke="#1f2937"
          stroke-width="1"
          class="section-path"
          data-section="130"
        />
        <title>130 (0 seats)</title>
      </g>
    

      <g class="section" data-section-id="131" data-level="loge">
        <path
          d="
    M 246.04680895423675 591.6939297754986
    L 189.6127664996227 612.0703586144983
    A 330 330 0 0 1 181.91157789820704 587.8621404519125
    L 239.7458364621694 571.8872058242921
    A 270 270 0 0 0 246.04680895423675 591.6939297754986
    Z
  "
          fill="#0891b2"
          fill-opacity="0.6"
          stroke="#1f2937"
          stroke-width="1"
          class="section-path"
          data-section="131"
        />
        <title>131 (0 seats)</title>
      </g>
    

      <g class="section" data-section-id="206" data-level="reserve">
        <path
          d="
    M 582.8220944328061 190.90373558749798
    L 598.3512371389572 132.94818601015385
    A 380 380 0 0 1 660.5949394614663 155.60304092607328
    L 635.2378437570243 209.9815081482722
    A 320 320 0 0 0 582.8220944328061 190.90373558749798
    Z
  "
          fill="#059669"
          fill-opacity="0.6"
          stroke="#1f2937"
          stroke-width="1"
          class="section-path"
          data-section="206"
        />
        <title>206 (0 seats)</title>
      </g>
    

      <g class="section" data-section-id="207" data-level="reserve">
        <path
          d="
    M 635.2378437570243 209.9815081482722
    L 660.5949394614663 155.60304092607328
    A 380 380 0 0 1 717.9590458133969 188.72222317018264
    L 683.5444596323342 237.87134582752225
    A 320 320 0 0 0 635.2378437570243 209.9815081482722
    Z
  "
          fill="#059669"
          fill-opacity="0.6"
          stroke="#1f2937"
          stroke-width="1"
          class="section-path"
          data-section="207"
        />
        <title>207 (0 seats)</title>
      </g>
    

      <g class="section" data-section-id="208" data-level="reserve">
        <path
          d="
    M 683.5444596323342 237.87134582752225
    L 717.9590458133969 188.72222317018264
    A 380 380 0 0 1 768.7005768508884 231.29942314911227
    L 726.2741699796954 273.72583002030507
    A 320 320 0 0 0 683.5444596323342 237.87134582752225
    Z
  "
          fill="#059669"
          fill-opacity="0.6"
          stroke="#1f2937"
          stroke-width="1"
          class="section-path"
          data-section="208"
        />
        <title>208 (0 seats)</title>
      </g>
    

      <g class="section" data-section-id="209" data-level="reserve">
        <path
          d="
    M 726.2741699796954 273.72583002030507
    L 768.7005768508884 231.29942314911227
    A 380 380 0 0 1 811.2777768298163 282.0409541866017
    L 762.1286541724769 316.4555403676646
    A 320 320 0 0 0 726.2741699796954 273.72583002030507
    Z
  "
          fill="#059669"
          fill-opacity="0.6"
          stroke="#1f2937"
          stroke-width="1"
          class="section-path"
          data-section="209"
        />
        <title>209 (0 seats)</title>
      </g>
    

      <g class="section" data-section-id="210" data-level="reserve">
        <path
          d="
    M 762.1286541724769 316.4555403676646
    L 811.2777768298163 282.0409541866017
    A 380 380 0 0 1 844.3969590739271 339.4050605385345
    L 790.0184918517281 364.7621562429764
    A 320 320 0 0 0 762.1286541724769 316.4555403676646
    Z
  "
          fill="#059669"
          fill-opacity="0.6"
          stroke="#1f2937"
          stroke-width="1"
          class="section-path"
          data-section="210"
        />
        <title>210 (0 seats)</title>
      </g>
    

      <g class="section" data-section-id="211" data-level="reserve">
        <path
          d="
    M 790.0184918517281 364.7621562429764
    L 844.3969590739271 339.4050605385345
    A 380 380 0 0 1 867.0518139898456 401.648762861041
    L 809.0962644125016 417.17790556719245
    A 320 320 0 0 0 790.0184918517281 364.7621562429764
    Z
  "
          fill="#059669"
          fill-opacity="0.6"
          stroke="#1f2937"
          stroke-width="1"
          class="section-path"
          data-section="211"
        />
        <title>211 (0 seats)</title>
      </g>
    

      <g class="section" data-section-id="212" data-level="reserve">
        <path
          d="
    M 809.0962644125016 417.17790556719245
    L 867.0518139898456 401.648762861041
    A 380 380 0 0 1 878.5539852748633 466.88081775589006
    L 818.7823033893585 472.1101623207495
    A 320 320 0 0 0 809.0962644125016 417.17790556719245
    Z
  "
          fill="#059669"
          fill-opacity="0.6"
          stroke="#1f2937"
          stroke-width="1"
          class="section-path"
          data-section="212"
        />
        <title>212 (0 seats)</title>
      </g>
    

      <g class="section" data-section-id="213" data-level="reserve">
        <path
          d="
    M 818.7823033893585 472.1101623207495
    L 878.5539852748633 466.88081775589006
    A 380 380 0 0 1 878.5539852748634 533.1191822441089
    L 818.7823033893587 527.8898376792496
    A 320 320 0 0 0 818.7823033893585 472.1101623207495
    Z
  "
          fill="#059669"
          fill-opacity="0.6"
          stroke="#1f2937"
          stroke-width="1"
          class="section-path"
          data-section="213"
        />
        <title>213 (0 seats)</title>
      </g>
    

      <g class="section" data-section-id="214" data-level="reserve">
        <path
          d="
    M 818.7823033893587 527.8898376792496
    L 878.5539852748634 533.1191822441089
    A 380 380 0 0 1 867.051813989846 598.3512371389579
    L 809.0962644125018 582.8220944328066
    A 320 320 0 0 0 818.7823033893587 527.8898376792496
    Z
  "
          fill="#059669"
          fill-opacity="0.6"
          stroke="#1f2937"
          stroke-width="1"
          class="section-path"
          data-section="214"
        />
        <title>214 (0 seats)</title>
      </g>
    

      <g class="section" data-section-id="215" data-level="reserve">
        <path
          d="
    M 809.0962644125018 582.8220944328066
    L 867.051813989846 598.3512371389579
    A 380 380 0 0 1 844.3969590739276 660.5949394614645
    L 790.0184918517285 635.2378437570228
    A 320 320 0 0 0 809.0962644125018 582.8220944328066
    Z
  "
          fill="#059669"
          fill-opacity="0.6"
          stroke="#1f2937"
          stroke-width="1"
          class="section-path"
          data-section="215"
        />
        <title>215 (0 seats)</title>
      </g>
    

      <g class="section" data-section-id="216" data-level="reserve">
        <path
          d="
    M 790.0184918517285 635.2378437570228
    L 844.3969590739276 660.5949394614645
    A 380 380 0 0 1 811.277776829817 717.9590458133973
    L 762.1286541724775 683.5444596323346
    A 320 320 0 0 0 790.0184918517285 635.2378437570228
    Z
  "
          fill="#059669"
          fill-opacity="0.6"
          stroke="#1f2937"
          stroke-width="1"
          class="section-path"
          data-section="216"
        />
        <title>216 (0 seats)</title>
      </g>
    

      <g class="section" data-section-id="217" data-level="reserve">
        <path
          d="
    M 762.1286541724775 683.5444596323346
    L 811.277776829817 717.9590458133973
    A 380 380 0 0 1 768.7005768508891 768.7005768508869
    L 726.2741699796961 726.2741699796943
    A 320 320 0 0 0 762.1286541724775 683.5444596323346
    Z
  "
          fill="#059669"
          fill-opacity="0.6"
          stroke="#1f2937"
          stroke-width="1"
          class="section-path"
          data-section="217"
        />
        <title>217 (0 seats)</title>
      </g>
    

      <g class="section" data-section-id="218" data-level="reserve">
        <path
          d="
    M 726.2741699796961 726.2741699796943
    L 768.7005768508891 768.7005768508869
    A 380 380 0 0 1 717.9590458133978 811.2777768298167
    L 683.544459632335 762.1286541724772
    A 320 320 0 0 0 726.2741699796961 726.2741699796943
    Z
  "
          fill="#059669"
          fill-opacity="0.6"
          stroke="#1f2937"
          stroke-width="1"
          class="section-path"
          data-section="218"
        />
        <title>218 (0 seats)</title>
      </g>
    

      <g class="section" data-section-id="219" data-level="reserve">
        <path
          d="
    M 683.544459632335 762.1286541724772
    L 717.9590458133978 811.2777768298167
    A 380 380 0 0 1 660.594939461465 844.3969590739274
    L 635.237843757023 790.0184918517284
    A 320 320 0 0 0 683.544459632335 762.1286541724772
    Z
  "
          fill="#059669"
          fill-opacity="0.6"
          stroke="#1f2937"
          stroke-width="1"
          class="section-path"
          data-section="219"
        />
        <title>219 (0 seats)</title>
      </g>
    

      <g class="section" data-section-id="220" data-level="reserve">
        <path
          d="
    M 635.237843757023 790.0184918517284
    L 660.594939461465 844.3969590739274
    A 380 380 0 0 1 598.3512371389584 867.0518139898459
    L 582.822094432807 809.0962644125018
    A 320 320 0 0 0 635.237843757023 790.0184918517284
    Z
  "
          fill="#059669"
          fill-opacity="0.6"
          stroke="#1f2937"
          stroke-width="1"
          class="section-path"
          data-section="220"
        />
        <title>220 (0 seats)</title>
      </g>
    

      <g class="section" data-section-id="221" data-level="reserve">
        <path
          d="
    M 582.822094432807 809.0962644125018
    L 598.3512371389584 867.0518139898459
    A 380 380 0 0 1 533.1191822441093 878.5539852748634
    L 527.8898376792499 818.7823033893586
    A 320 320 0 0 0 582.822094432807 809.0962644125018
    Z
  "
          fill="#059669"
          fill-opacity="0.6"
          stroke="#1f2937"
          stroke-width="1"
          class="section-path"
          data-section="221"
        />
        <title>221 (0 seats)</title>
      </g>
    

      <g class="section" data-section-id="222" data-level="reserve">
        <path
          d="
    M 527.8898376792499 818.7823033893586
    L 533.1191822441093 878.5539852748634
    A 380 380 0 0 1 466.8808177558905 878.5539852748634
    L 472.1101623207499 818.7823033893586
    A 320 320 0 0 0 527.8898376792499 818.7823033893586
    Z
  "
          fill="#059669"
          fill-opacity="0.6"
          stroke="#1f2937"
          stroke-width="1"
          class="section-path"
          data-section="222"
        />
        <title>222 (0 seats)</title>
      </g>
    

      <g class="section" data-section-id="223" data-level="reserve">
        <path
          d="
    M 472.1101623207499 818.7823033893586
    L 466.8808177558905 878.5539852748634
    A 380 380 0 0 1 401.6487628610415 867.0518139898459
    L 417.17790556719285 809.0962644125018
    A 320 320 0 0 0 472.1101623207499 818.7823033893586
    Z
  "
          fill="#059669"
          fill-opacity="0.6"
          stroke="#1f2937"
          stroke-width="1"
          class="section-path"
          data-section="223"
        />
        <title>223 (0 seats)</title>
      </g>
    

      <g class="section" data-section-id="224" data-level="reserve">
        <path
          d="
    M 417.17790556719285 809.0962644125018
    L 401.6487628610415 867.0518139898459
    A 380 380 0 0 1 339.40506053853494 844.3969590739273
    L 364.76215624297674 790.0184918517282
    A 320 320 0 0 0 417.17790556719285 809.0962644125018
    Z
  "
          fill="#059669"
          fill-opacity="0.6"
          stroke="#1f2937"
          stroke-width="1"
          class="section-path"
          data-section="224"
        />
        <title>224 (0 seats)</title>
      </g>
    

      <g class="section" data-section-id="225" data-level="reserve">
        <path
          d="
    M 364.76215624297674 790.0184918517282
    L 339.40506053853494 844.3969590739273
    A 380 380 0 0 1 282.0409541866021 811.2777768298166
    L 316.4555403676649 762.1286541724771
    A 320 320 0 0 0 364.76215624297674 790.0184918517282
    Z
  "
          fill="#059669"
          fill-opacity="0.6"
          stroke="#1f2937"
          stroke-width="1"
          class="section-path"
          data-section="225"
        />
        <title>225 (0 seats)</title>
      </g>
    

      <g class="section" data-section-id="226" data-level="reserve">
        <path
          d="
    M 316.4555403676649 762.1286541724771
    L 282.0409541866021 811.2777768298166
    A 380 380 0 0 1 231.2994231491126 768.7005768508886
    L 273.72583002030535 726.2741699796958
    A 320 320 0 0 0 316.4555403676649 762.1286541724771
    Z
  "
          fill="#059669"
          fill-opacity="0.6"
          stroke="#1f2937"
          stroke-width="1"
          class="section-path"
          data-section="226"
        />
        <title>226 (0 seats)</title>
      </g>
    

      <g class="section" data-section-id="227" data-level="reserve">
        <path
          d="
    M 273.72583002030535 726.2741699796958
    L 231.2994231491126 768.7005768508886
    A 380 380 0 0 1 188.72222317018293 717.9590458133972
    L 237.87134582752242 683.5444596323346
    A 320 320 0 0 0 273.72583002030535 726.2741699796958
    Z
  "
          fill="#059669"
          fill-opacity="0.6"
          stroke="#1f2937"
          stroke-width="1"
          class="section-path"
          data-section="227"
        />
        <title>227 (0 seats)</title>
      </g>
    

      <g class="section" data-section-id="228" data-level="reserve">
        <path
          d="
    M 237.87134582752242 683.5444596323346
    L 188.72222317018293 717.9590458133972
    A 380 380 0 0 1 155.6030409260735 660.5949394614668
    L 209.98150814827238 635.2378437570246
    A 320 320 0 0 0 237.87134582752242 683.5444596323346
    Z
  "
          fill="#059669"
          fill-opacity="0.6"
          stroke="#1f2937"
          stroke-width="1"
          class="section-path"
          data-section="228"
        />
        <title>228 (0 seats)</title>
      </g>
    

      <g class="section" data-section-id="306" data-level="upper">
        <path
          d="
    M 164.66611879643938 343.63124315594143
    L 110.28765157424039 318.2741474514995
    A 430 430 0 0 1 147.76462095573413 253.3621323690493
    L 196.91374361307356 287.77671855011215
    A 370 370 0 0 0 164.66611879643938 343.63124315594143
    Z
  "
          fill="#ea580c"
          fill-opacity="0.6"
          stroke="#1f2937"
          stroke-width="1"
          class="section-path"
          data-section="306"
        />
        <title>306 (0 seats)</title>
      </g>
    

      <g class="section" data-section-id="307" data-level="upper">
        <path
          d="
    M 196.91374361307055 287.77671855011647
    L 147.76462095573066 253.3621323690543
    A 430 430 0 0 1 195.944084089782 195.9440840897871
    L 238.37049096097525 238.37049096097962
    A 370 370 0 0 0 196.91374361307055 287.77671855011647
    Z
  "
          fill="#ea580c"
          fill-opacity="0.6"
          stroke="#1f2937"
          stroke-width="1"
          class="section-path"
          data-section="307"
        />
        <title>307 (0 seats)</title>
      </g>
    

      <g class="section" data-section-id="308" data-level="upper">
        <path
          d="
    M 238.37049096097894 238.37049096097587
    L 195.94408408978637 195.9440840897828
    A 430 430 0 0 1 253.36213236905346 147.76462095573123
    L 287.7767185501158 196.91374361307106
    A 370 370 0 0 0 238.37049096097894 238.37049096097587
    Z
  "
          fill="#ea580c"
          fill-opacity="0.6"
          stroke="#1f2937"
          stroke-width="1"
          class="section-path"
          data-section="308"
        />
        <title>308 (0 seats)</title>
      </g>
    

      <g class="section" data-section-id="309" data-level="upper">
        <path
          d="
    M 287.77671855011357 196.9137436130726
    L 253.36213236905093 147.764620955733
    A 430 430 0 0 1 318.2741474514986 110.28765157424084
    L 343.63124315594064 164.66611879643978
    A 370 370 0 0 0 287.77671855011357 196.9137436130726
    Z
  "
          fill="#ea580c"
          fill-opacity="0.6"
          stroke="#1f2937"
          stroke-width="1"
          class="section-path"
          data-section="309"
        />
        <title>309 (0 seats)</title>
      </g>
    

      <g class="section" data-section-id="310" data-level="upper">
        <path
          d="
    M 343.63124315594064 164.66611879643978
    L 318.2741474514986 110.28765157424084
    A 430 430 0 0 1 388.7078106059168 84.65189469570043
    L 404.23695331206795 142.60744427304456
    A 370 370 0 0 0 343.63124315594064 164.66611879643978
    Z
  "
          fill="#ea580c"
          fill-opacity="0.6"
          stroke="#1f2937"
          stroke-width="1"
          class="section-path"
          data-section="310"
        />
        <title>310 (0 seats)</title>
      </g>
    

      <g class="section" data-section-id="311" data-level="upper">
        <path
          d="
    M 404.23695331206795 142.60744427304456
    L 388.7078106059168 84.65189469570043
    A 430 430 0 0 1 462.52303061850614 71.63627982054953
    L 467.7523751833657 131.4079617060542
    A 370 370 0 0 0 404.23695331206795 142.60744427304456
    Z
  "
          fill="#ea580c"
          fill-opacity="0.6"
          stroke="#1f2937"
          stroke-width="1"
          class="section-path"
          data-section="311"
        />
        <title>311 (0 seats)</title>
      </g>
    

      <g class="section" data-section-id="312" data-level="upper">
        <path
          d="
    M 467.7523751833657 131.4079617060542
    L 462.52303061850614 71.63627982054953
    A 430 430 0 0 1 537.4769693814935 71.63627982054948
    L 532.247624816634 131.4079617060542
    A 370 370 0 0 0 467.7523751833657 131.4079617060542
    Z
  "
          fill="#ea580c"
          fill-opacity="0.6"
          stroke="#1f2937"
          stroke-width="1"
          class="section-path"
          data-section="312"
        />
        <title>312 (0 seats)</title>
      </g>
    

      <g class="section" data-section-id="313" data-level="upper">
        <path
          d="
    M 532.247624816634 131.4079617060542
    L 537.4769693814935 71.63627982054948
    A 430 430 0 0 1 611.2921893940829 84.65189469570038
    L 595.7630466879318 142.6074442730445
    A 370 370 0 0 0 532.247624816634 131.4079617060542
    Z
  "
          fill="#ea580c"
          fill-opacity="0.6"
          stroke="#1f2937"
          stroke-width="1"
          class="section-path"
          data-section="313"
        />
        <title>313 (0 seats)</title>
      </g>
    

      <g class="section" data-section-id="314" data-level="upper">
        <path
          d="
    M 595.7630466879318 142.6074442730445
    L 611.2921893940829 84.65189469570038
    A 430 430 0 0 1 681.725852548501 110.28765157424067
    L 656.3687568440591 164.66611879643966
    A 370 370 0 0 0 595.7630466879318 142.6074442730445
    Z
  "
          fill="#ea580c"
          fill-opacity="0.6"
          stroke="#1f2937"
          stroke-width="1"
          class="section-path"
          data-section="314"
        />
        <title>314 (0 seats)</title>
      </g>
    

      <g class="section" data-section-id="315" data-level="upper">
        <path
          d="
    M 656.3687568440591 164.66611879643966
    L 681.725852548501 110.28765157424067
    A 430 430 0 0 1 746.6378676309488 147.76462095573282
    L 712.2232814498861 196.91374361307243
    A 370 370 0 0 0 656.3687568440591 164.66611879643966
    Z
  "
          fill="#ea580c"
          fill-opacity="0.6"
          stroke="#1f2937"
          stroke-width="1"
          class="section-path"
          data-section="315"
        />
        <title>315 (0 seats)</title>
      </g>
    

      <g class="section" data-section-id="316" data-level="upper">
        <path
          d="
    M 712.2232814498861 196.91374361307243
    L 746.6378676309488 147.76462095573282
    A 430 430 0 0 1 804.0559159102156 195.94408408978472
    L 761.6295090390227 238.37049096097758
    A 370 370 0 0 0 712.2232814498861 196.91374361307243
    Z
  "
          fill="#ea580c"
          fill-opacity="0.6"
          stroke="#1f2937"
          stroke-width="1"
          class="section-path"
          data-section="316"
        />
        <title>316 (0 seats)</title>
      </g>
    

      <g class="section" data-section-id="317" data-level="upper">
        <path
          d="
    M 761.6295090390227 238.37049096097758
    L 804.0559159102156 195.94408408978472
    A 430 430 0 0 1 852.2353790442656 253.36213236904905
    L 803.0862563869263 287.776718550112
    A 370 370 0 0 0 761.6295090390227 238.37049096097758
    Z
  "
          fill="#ea580c"
          fill-opacity="0.6"
          stroke="#1f2937"
          stroke-width="1"
          class="section-path"
          data-section="317"
        />
        <title>317 (0 seats)</title>
      </g>
    

      <g class="section" data-section-id="318" data-level="upper">
        <path
          d="
    M 803.0862563869263 287.776718550112
    L 852.2353790442656 253.36213236904905
    A 430 430 0 0 1 889.7123484257595 318.2741474514993
    L 835.3338812035605 343.6312431559412
    A 370 370 0 0 0 803.0862563869263 287.776718550112
    Z
  "
          fill="#ea580c"
          fill-opacity="0.6"
          stroke="#1f2937"
          stroke-width="1"
          class="section-path"
          data-section="318"
        />
        <title>318 (0 seats)</title>
      </g>
    

      <g class="section" data-section-id="319" data-level="upper">
        <path
          d="
    M 835.3338812035605 343.6312431559412
    L 889.7123484257595 318.2741474514993
    A 430 430 0 0 1 915.348105304299 388.7078106059146
    L 857.3925557269549 404.236953312066
    A 370 370 0 0 0 835.3338812035605 343.6312431559412
    Z
  "
          fill="#ea580c"
          fill-opacity="0.6"
          stroke="#1f2937"
          stroke-width="1"
          class="section-path"
          data-section="319"
        />
        <title>319 (0 seats)</title>
      </g>
    

      <g class="section" data-section-id="320" data-level="upper">
        <path
          d="
    M 857.3925557269549 404.236953312066
    L 915.348105304299 388.7078106059146
    A 430 430 0 0 1 928.3637201794506 462.5230306185068
    L 868.5920382939458 467.7523751833663
    A 370 370 0 0 0 857.3925557269549 404.236953312066
    Z
  "
          fill="#ea580c"
          fill-opacity="0.6"
          stroke="#1f2937"
          stroke-width="1"
          class="section-path"
          data-section="320"
        />
        <title>320 (0 seats)</title>
      </g>
    

      <g class="section" data-section-id="321" data-level="upper">
        <path
          d="
    M 868.5920382939458 467.7523751833663
    L 928.3637201794506 462.5230306185068
    A 430 430 0 0 1 928.3637201794508 537.4769693814912
    L 868.592038293946 532.247624816632
    A 370 370 0 0 0 868.5920382939458 467.7523751833663
    Z
  "
          fill="#ea580c"
          fill-opacity="0.6"
          stroke="#1f2937"
          stroke-width="1"
          class="section-path"
          data-section="321"
        />
        <title>321 (0 seats)</title>
      </g>
    

      <g class="section" data-section-id="322" data-level="upper">
        <path
          d="
    M 868.5920382939462 532.2476248166294
    L 928.3637201794511 537.4769693814882
    A 430 430 0 0 1 915.3481053043002 611.2921893940807
    L 857.3925557269561 595.7630466879299
    A 370 370 0 0 0 868.5920382939462 532.2476248166294
    Z
  "
          fill="#ea580c"
          fill-opacity="0.6"
          stroke="#1f2937"
          stroke-width="1"
          class="section-path"
          data-section="322"
        />
        <title>322 (0 seats)</title>
      </g>
    

      <g class="section" data-section-id="323" data-level="upper">
        <path
          d="
    M 857.3925557269547 595.763046687935
    L 915.3481053042987 611.2921893940866
    A 430 430 0 0 1 889.7123484257577 681.7258525485046
    L 835.333881203559 656.3687568440621
    A 370 370 0 0 0 857.3925557269547 595.763046687935
    Z
  "
          fill="#ea580c"
          fill-opacity="0.6"
          stroke="#1f2937"
          stroke-width="1"
          class="section-path"
          data-section="323"
        />
        <title>323 (0 seats)</title>
      </g>
    

      <g class="section" data-section-id="324" data-level="upper">
        <path
          d="
    M 835.3338812035612 656.3687568440573
    L 889.7123484257603 681.725852548499
    A 430 430 0 0 1 852.2353790442668 746.6378676309494
    L 803.0862563869273 712.2232814498867
    A 370 370 0 0 0 835.3338812035612 656.3687568440573
    Z
  "
          fill="#ea580c"
          fill-opacity="0.6"
          stroke="#1f2937"
          stroke-width="1"
          class="section-path"
          data-section="324"
        />
        <title>324 (0 seats)</title>
      </g>
    

      <g class="section" data-section-id="325" data-level="upper">
        <path
          d="
    M 803.0862563869273 712.2232814498867
    L 852.2353790442668 746.6378676309494
    A 430 430 0 0 1 804.0559159102147 804.0559159102161
    L 761.629509039022 761.6295090390231
    A 370 370 0 0 0 803.0862563869273 712.2232814498867
    Z
  "
          fill="#ea580c"
          fill-opacity="0.6"
          stroke="#1f2937"
          stroke-width="1"
          class="section-path"
          data-section="325"
        />
        <title>325 (0 seats)</title>
      </g>
    

      <g class="section" data-section-id="326" data-level="upper">
        <path
          d="
    M 761.629509039022 761.6295090390231
    L 804.0559159102147 804.0559159102161
    A 430 430 0 0 1 746.6378676309504 852.2353790442661
    L 712.2232814498875 803.0862563869266
    A 370 370 0 0 0 761.629509039022 761.6295090390231
    Z
  "
          fill="#ea580c"
          fill-opacity="0.6"
          stroke="#1f2937"
          stroke-width="1"
          class="section-path"
          data-section="326"
        />
        <title>326 (0 seats)</title>
      </g>
    

      <g class="section" data-section-id="327" data-level="upper">
        <path
          d="
    M 712.2232814498875 803.0862563869266
    L 746.6378676309504 852.2353790442661
    A 430 430 0 0 1 681.7258525485 889.7123484257597
    L 656.3687568440582 835.3338812035607
    A 370 370 0 0 0 712.2232814498875 803.0862563869266
    Z
  "
          fill="#ea580c"
          fill-opacity="0.6"
          stroke="#1f2937"
          stroke-width="1"
          class="section-path"
          data-section="327"
        />
        <title>327 (0 seats)</title>
      </g>
    

      <g class="section" data-section-id="328" data-level="upper">
        <path
          d="
    M 656.3687568440582 835.3338812035607
    L 681.7258525485 889.7123484257597
    A 430 430 0 0 1 611.2921893940847 915.3481053042991
    L 595.7630466879334 857.3925557269552
    A 370 370 0 0 0 656.3687568440582 835.3338812035607
    Z
  "
          fill="#ea580c"
          fill-opacity="0.6"
          stroke="#1f2937"
          stroke-width="1"
          class="section-path"
          data-section="328"
        />
        <title>328 (0 seats)</title>
      </g>
    

      <g class="section" data-section-id="329" data-level="upper">
        <path
          d="
    M 595.7630466879334 857.3925557269552
    L 611.2921893940847 915.3481053042991
    A 430 430 0 0 1 537.4769693814924 928.3637201794506
    L 532.247624816633 868.592038293946
    A 370 370 0 0 0 595.7630466879334 857.3925557269552
    Z
  "
          fill="#ea580c"
          fill-opacity="0.6"
          stroke="#1f2937"
          stroke-width="1"
          class="section-path"
          data-section="329"
        />
        <title>329 (0 seats)</title>
      </g>
    

      <g class="section" data-section-id="330" data-level="upper">
        <path
          d="
    M 532.247624816633 868.592038293946
    L 537.4769693814924 928.3637201794506
    A 430 430 0 0 1 462.523030618508 928.3637201794506
    L 467.75237518336735 868.592038293946
    A 370 370 0 0 0 532.247624816633 868.592038293946
    Z
  "
          fill="#ea580c"
          fill-opacity="0.6"
          stroke="#1f2937"
          stroke-width="1"
          class="section-path"
          data-section="330"
        />
        <title>330 (0 seats)</title>
      </g>
    

      <g class="section" data-section-id="331" data-level="upper">
        <path
          d="
    M 467.75237518336735 868.592038293946
    L 462.523030618508 928.3637201794506
    A 430 430 0 0 1 388.7078106059157 915.3481053042992
    L 404.236953312067 857.3925557269552
    A 370 370 0 0 0 467.75237518336735 868.592038293946
    Z
  "
          fill="#ea580c"
          fill-opacity="0.6"
          stroke="#1f2937"
          stroke-width="1"
          class="section-path"
          data-section="331"
        />
        <title>331 (0 seats)</title>
      </g>
    

      <g class="section" data-section-id="332" data-level="upper">
        <path
          d="
    M 404.236953312067 857.3925557269552
    L 388.7078106059157 915.3481053042992
    A 430 430 0 0 1 318.2741474515003 889.71234842576
    L 343.6312431559421 835.3338812035608
    A 370 370 0 0 0 404.236953312067 857.3925557269552
    Z
  "
          fill="#ea580c"
          fill-opacity="0.6"
          stroke="#1f2937"
          stroke-width="1"
          class="section-path"
          data-section="332"
        />
        <title>332 (0 seats)</title>
      </g>
    

      <g class="section" data-section-id="333" data-level="upper">
        <path
          d="
    M 343.6312431559421 835.3338812035608
    L 318.2741474515003 889.71234842576
    A 430 430 0 0 1 253.36213236904996 852.2353790442663
    L 287.7767185501127 803.0862563869268
    A 370 370 0 0 0 343.6312431559421 835.3338812035608
    Z
  "
          fill="#ea580c"
          fill-opacity="0.6"
          stroke="#1f2937"
          stroke-width="1"
          class="section-path"
          data-section="333"
        />
        <title>333 (0 seats)</title>
      </g>
    

      <g class="section" data-section-id="334" data-level="upper">
        <path
          d="
    M 287.7767185501127 803.0862563869268
    L 253.36213236904996 852.2353790442663
    A 430 430 0 0 1 195.94408408978552 804.0559159102164
    L 238.3704909609782 761.6295090390234
    A 370 370 0 0 0 287.7767185501127 803.0862563869268
    Z
  "
          fill="#ea580c"
          fill-opacity="0.6"
          stroke="#1f2937"
          stroke-width="1"
          class="section-path"
          data-section="334"
        />
        <title>334 (0 seats)</title>
      </g>
    

      <g class="section" data-section-id="335" data-level="upper">
        <path
          d="
    M 238.3704909609782 761.6295090390234
    L 195.94408408978552 804.0559159102164
    A 430 430 0 0 1 147.7646209557335 746.6378676309498
    L 196.913743613073 712.223281449887
    A 370 370 0 0 0 238.3704909609782 761.6295090390234
    Z
  "
          fill="#ea580c"
          fill-opacity="0.6"
          stroke="#1f2937"
          stroke-width="1"
          class="section-path"
          data-section="335"
        />
        <title>335 (0 seats)</title>
      </g>
    

      <g class="section" data-section-id="336" data-level="upper">
        <path
          d="
    M 196.913743613073 712.223281449887
    L 147.7646209557335 746.6378676309498
    A 430 430 0 0 1 110.28765157424112 681.7258525485022
    L 164.66611879644006 656.36875684406
    A 370 370 0 0 0 196.913743613073 712.223281449887
    Z
  "
          fill="#ea580c"
          fill-opacity="0.6"
          stroke="#1f2937"
          stroke-width="1"
          class="section-path"
          data-section="336"
        />
        <title>336 (0 seats)</title>
      </g>
    

      <g class="section" data-section-id="337" data-level="upper">
        <path
          d="
    M 164.6661187964412 656.3687568440623
    L 110.28765157424249 681.7258525485049
    A 430 430 0 0 1 84.65189469570146 611.292189394087
    L 142.60744427304542 595.7630466879353
    A 370 370 0 0 0 164.6661187964412 656.3687568440623
    Z
  "
          fill="#ea580c"
          fill-opacity="0.6"
          stroke="#1f2937"
          stroke-width="1"
          class="section-path"
          data-section="337"
        />
        <title>337 (0 seats)</title>
      </g>
    

      <g class="section" data-section-id="338" data-level="upper">
        <path
          d="
    M 142.60744427304405 595.7630466879302
    L 84.65189469569987 611.2921893940811
    A 430 430 0 0 1 71.63627982054902 537.4769693814886
    L 131.4079617060538 532.2476248166298
    A 370 370 0 0 0 142.60744427304405 595.7630466879302
    Z
  "
          fill="#ea580c"
          fill-opacity="0.6"
          stroke="#1f2937"
          stroke-width="1"
          class="section-path"
          data-section="338"
        />
        <title>338 (0 seats)</title>
      </g>
    

      <g class="section" data-section-id="339" data-level="upper">
        <path
          d="
    M 131.40796170605427 532.247624816635
    L 71.63627982054953 537.4769693814948
    A 430 430 0 0 1 71.63627982054942 462.5230306185073
    L 131.40796170605415 467.7523751833667
    A 370 370 0 0 0 131.40796170605427 532.247624816635
    Z
  "
          fill="#ea580c"
          fill-opacity="0.6"
          stroke="#1f2937"
          stroke-width="1"
          class="section-path"
          data-section="339"
        />
        <title>339 (0 seats)</title>
      </g>
    

      <g class="section" data-section-id="340" data-level="upper">
        <path
          d="
    M 131.40796170605415 467.7523751833667
    L 71.63627982054942 462.5230306185073
    A 430 430 0 0 1 84.65189469570015 388.70781060591787
    L 142.60744427304434 404.23695331206886
    A 370 370 0 0 0 131.40796170605415 467.7523751833667
    Z
  "
          fill="#ea580c"
          fill-opacity="0.6"
          stroke="#1f2937"
          stroke-width="1"
          class="section-path"
          data-section="340"
        />
        <title>340 (0 seats)</title>
      </g>
    

      <g class="section" data-section-id="341" data-level="upper">
        <path
          d="
    M 142.60744427304434 404.23695331206886
    L 84.65189469570015 388.70781060591787
    A 430 430 0 0 1 110.28765157424033 318.27414745149963
    L 164.66611879643938 343.63124315594155
    A 370 370 0 0 0 142.60744427304434 404.23695331206886
    Z
  "
          fill="#ea580c"
          fill-opacity="0.6"
          stroke="#1f2937"
          stroke-width="1"
          class="section-path"
          data-section="341"
        />
        <title>341 (0 seats)</title>
      </g>
    

      <g class="section" data-section-id="342" data-level="upper">
        <path
          d="
    M 164.66611879643938 343.63124315594155
    L 110.28765157424033 318.27414745149963
    A 430 430 0 0 1 147.76462095573407 253.3621323690494
    L 196.9137436130735 287.77671855011226
    A 370 370 0 0 0 164.66611879643938 343.63124315594155
    Z
  "
          fill="#ea580c"
          fill-opacity="0.6"
          stroke="#1f2937"
          stroke-width="1"
          class="section-path"
          data-section="342"
        />
        <title>342 (0 seats)</title>
      </g>
    

      <g class="section" data-section-id="343" data-level="upper">
        <path
          d="
    M 196.9137436130735 287.77671855011226
    L 147.76462095573407 253.3621323690494
    A 430 430 0 0 1 195.9440840897841 195.944084089785
    L 238.370490960977 238.3704909609778
    A 370 370 0 0 0 196.9137436130735 287.77671855011226
    Z
  "
          fill="#ea580c"
          fill-opacity="0.6"
          stroke="#1f2937"
          stroke-width="1"
          class="section-path"
          data-section="343"
        />
        <title>343 (0 seats)</title>
      </g>
    

      <g class="section" data-section-id="344" data-level="upper">
        <path
          d="
    M 238.370490960977 238.3704909609778
    L 195.9440840897841 195.944084089785
    A 430 430 0 0 1 253.36213236905087 147.76462095573305
    L 287.7767185501135 196.9137436130726
    A 370 370 0 0 0 238.370490960977 238.3704909609778
    Z
  "
          fill="#ea580c"
          fill-opacity="0.6"
          stroke="#1f2937"
          stroke-width="1"
          class="section-path"
          data-section="344"
        />
        <title>344 (0 seats)</title>
      </g>
    

      <g class="section" data-section-id="345" data-level="upper">
        <path
          d="
    M 287.7767185501135 196.9137436130726
    L 253.36213236905087 147.76462095573305
    A 430 430 0 0 1 318.2741474514985 110.28765157424084
    L 343.6312431559406 164.66611879643983
    A 370 370 0 0 0 287.7767185501135 196.9137436130726
    Z
  "
          fill="#ea580c"
          fill-opacity="0.6"
          stroke="#1f2937"
          stroke-width="1"
          class="section-path"
          data-section="345"
        />
        <title>345 (0 seats)</title>
      </g>
    

      <g class="section" data-section-id="404" data-level="other">
        <path
          d="
    M 767.6901125709288 464.75792810058607
    L 827.1768042533574 456.926356567383
    A 330 330 0 0 1 827.1768042533574 543.073643432617
    L 767.6901125709288 535.2420718994139
    A 270 270 0 0 0 767.6901125709288 464.75792810058607
    Z
  "
          fill="#6b7280"
          fill-opacity="0.6"
          stroke="#1f2937"
          stroke-width="1"
          class="section-path"
          data-section="404"
        />
        <title>404 (0 seats)</title>
      </g>
    

      <g class="section" data-section-id="405" data-level="other">
        <path
          d="
    M 767.6901125709288 464.75792810058607
    L 827.1768042533574 456.926356567383
    A 330 330 0 0 1 827.1768042533574 543.073643432617
    L 767.6901125709288 535.2420718994139
    A 270 270 0 0 0 767.6901125709288 464.75792810058607
    Z
  "
          fill="#6b7280"
          fill-opacity="0.6"
          stroke="#1f2937"
          stroke-width="1"
          class="section-path"
          data-section="405"
        />
        <title>405 (0 seats)</title>
      </g>
    

      <g class="section" data-section-id="406" data-level="other">
        <path
          d="
    M 767.6901125709288 464.75792810058607
    L 827.1768042533574 456.926356567383
    A 330 330 0 0 1 827.1768042533574 543.073643432617
    L 767.6901125709288 535.2420718994139
    A 270 270 0 0 0 767.6901125709288 464.75792810058607
    Z
  "
          fill="#6b7280"
          fill-opacity="0.6"
          stroke="#1f2937"
          stroke-width="1"
          class="section-path"
          data-section="406"
        />
        <title>406 (0 seats)</title>
      </g>
    

      <g class="section" data-section-id="407" data-level="other">
        <path
          d="
    M 767.6901125709288 464.75792810058607
    L 827.1768042533574 456.926356567383
    A 330 330 0 0 1 827.1768042533574 543.073643432617
    L 767.6901125709288 535.2420718994139
    A 270 270 0 0 0 767.6901125709288 464.75792810058607
    Z
  "
          fill="#6b7280"
          fill-opacity="0.6"
          stroke="#1f2937"
          stroke-width="1"
          class="section-path"
          data-section="407"
        />
        <title>407 (0 seats)</title>
      </g>
    

      <g class="section" data-section-id="408" data-level="other">
        <path
          d="
    M 767.6901125709288 464.75792810058607
    L 827.1768042533574 456.926356567383
    A 330 330 0 0 1 827.1768042533574 543.073643432617
    L 767.6901125709288 535.2420718994139
    A 270 270 0 0 0 767.6901125709288 464.75792810058607
    Z
  "
          fill="#6b7280"
          fill-opacity="0.6"
          stroke="#1f2937"
          stroke-width="1"
          class="section-path"
          data-section="408"
        />
        <title>408 (0 seats)</title>
      </g>
    

      <g class="section" data-section-id="409" data-level="other">
        <path
          d="
    M 767.6901125709288 464.75792810058607
    L 827.1768042533574 456.926356567383
    A 330 330 0 0 1 827.1768042533574 543.073643432617
    L 767.6901125709288 535.2420718994139
    A 270 270 0 0 0 767.6901125709288 464.75792810058607
    Z
  "
          fill="#6b7280"
          fill-opacity="0.6"
          stroke="#1f2937"
          stroke-width="1"
          class="section-path"
          data-section="409"
        />
        <title>409 (0 seats)</title>
      </g>
    

      <g class="section" data-section-id="410" data-level="other">
        <path
          d="
    M 767.6901125709288 464.75792810058607
    L 827.1768042533574 456.926356567383
    A 330 330 0 0 1 827.1768042533574 543.073643432617
    L 767.6901125709288 535.2420718994139
    A 270 270 0 0 0 767.6901125709288 464.75792810058607
    Z
  "
          fill="#6b7280"
          fill-opacity="0.6"
          stroke="#1f2937"
          stroke-width="1"
          class="section-path"
          data-section="410"
        />
        <title>410 (0 seats)</title>
      </g>
    

      <g class="section" data-section-id="411" data-level="other">
        <path
          d="
    M 767.6901125709288 464.75792810058607
    L 827.1768042533574 456.926356567383
    A 330 330 0 0 1 827.1768042533574 543.073643432617
    L 767.6901125709288 535.2420718994139
    A 270 270 0 0 0 767.6901125709288 464.75792810058607
    Z
  "
          fill="#6b7280"
          fill-opacity="0.6"
          stroke="#1f2937"
          stroke-width="1"
          class="section-path"
          data-section="411"
        />
        <title>411 (0 seats)</title>
      </g>
    

      <g class="section" data-section-id="412" data-level="other">
        <path
          d="
    M 767.6901125709288 464.75792810058607
    L 827.1768042533574 456.926356567383
    A 330 330 0 0 1 827.1768042533574 543.073643432617
    L 767.6901125709288 535.2420718994139
    A 270 270 0 0 0 767.6901125709288 464.75792810058607
    Z
  "
          fill="#6b7280"
          fill-opacity="0.6"
          stroke="#1f2937"
          stroke-width="1"
          class="section-path"
          data-section="412"
        />
        <title>412 (0 seats)</title>
      </g>
    

      <g class="section" data-section-id="413" data-level="other">
        <path
          d="
    M 767.6901125709288 464.75792810058607
    L 827.1768042533574 456.926356567383
    A 330 330 0 0 1 827.1768042533574 543.073643432617
    L 767.6901125709288 535.2420718994139
    A 270 270 0 0 0 767.6901125709288 464.75792810058607
    Z
  "
          fill="#6b7280"
          fill-opacity="0.6"
          stroke="#1f2937"
          stroke-width="1"
          class="section-path"
          data-section="413"
        />
        <title>413 (0 seats)</title>
      </g>
    

      <g class="section" data-section-id="414" data-level="other">
        <path
          d="
    M 767.6901125709288 464.75792810058607
    L 827.1768042533574 456.926356567383
    A 330 330 0 0 1 827.1768042533574 543.073643432617
    L 767.6901125709288 535.2420718994139
    A 270 270 0 0 0 767.6901125709288 464.75792810058607
    Z
  "
          fill="#6b7280"
          fill-opacity="0.6"
          stroke="#1f2937"
          stroke-width="1"
          class="section-path"
          data-section="414"
        />
        <title>414 (0 seats)</title>
      </g>
    

      <g class="section" data-section-id="415" data-level="other">
        <path
          d="
    M 767.6901125709288 464.75792810058607
    L 827.1768042533574 456.926356567383
    A 330 330 0 0 1 827.1768042533574 543.073643432617
    L 767.6901125709288 535.2420718994139
    A 270 270 0 0 0 767.6901125709288 464.75792810058607
    Z
  "
          fill="#6b7280"
          fill-opacity="0.6"
          stroke="#1f2937"
          stroke-width="1"
          class="section-path"
          data-section="415"
        />
        <title>415 (0 seats)</title>
      </g>
    

      <g class="section" data-section-id="416" data-level="other">
        <path
          d="
    M 767.6901125709288 464.75792810058607
    L 827.1768042533574 456.926356567383
    A 330 330 0 0 1 827.1768042533574 543.073643432617
    L 767.6901125709288 535.2420718994139
    A 270 270 0 0 0 767.6901125709288 464.75792810058607
    Z
  "
          fill="#6b7280"
          fill-opacity="0.6"
          stroke="#1f2937"
          stroke-width="1"
          class="section-path"
          data-section="416"
        />
        <title>416 (0 seats)</title>
      </g>
    

      <g class="section" data-section-id="417" data-level="other">
        <path
          d="
    M 767.6901125709288 464.75792810058607
    L 827.1768042533574 456.926356567383
    A 330 330 0 0 1 827.1768042533574 543.073643432617
    L 767.6901125709288 535.2420718994139
    A 270 270 0 0 0 767.6901125709288 464.75792810058607
    Z
  "
          fill="#6b7280"
          fill-opacity="0.6"
          stroke="#1f2937"
          stroke-width="1"
          class="section-path"
          data-section="417"
        />
        <title>417 (0 seats)</title>
      </g>
    

      <g class="section" data-section-id="418" data-level="other">
        <path
          d="
    M 767.6901125709288 464.75792810058607
    L 827.1768042533574 456.926356567383
    A 330 330 0 0 1 827.1768042533574 543.073643432617
    L 767.6901125709288 535.2420718994139
    A 270 270 0 0 0 767.6901125709288 464.75792810058607
    Z
  "
          fill="#6b7280"
          fill-opacity="0.6"
          stroke="#1f2937"
          stroke-width="1"
          class="section-path"
          data-section="418"
        />
        <title>418 (0 seats)</title>
      </g>
    

      <g class="section" data-section-id="419" data-level="other">
        <path
          d="
    M 767.6901125709288 464.75792810058607
    L 827.1768042533574 456.926356567383
    A 330 330 0 0 1 827.1768042533574 543.073643432617
    L 767.6901125709288 535.2420718994139
    A 270 270 0 0 0 767.6901125709288 464.75792810058607
    Z
  "
          fill="#6b7280"
          fill-opacity="0.6"
          stroke="#1f2937"
          stroke-width="1"
          class="section-path"
          data-section="419"
        />
        <title>419 (0 seats)</title>
      </g>
    

      <g class="section" data-section-id="420" data-level="other">
        <path
          d="
    M 767.6901125709288 464.75792810058607
    L 827.1768042533574 456.926356567383
    A 330 330 0 0 1 827.1768042533574 543.073643432617
    L 767.6901125709288 535.2420718994139
    A 270 270 0 0 0 767.6901125709288 464.75792810058607
    Z
  "
          fill="#6b7280"
          fill-opacity="0.6"
          stroke="#1f2937"
          stroke-width="1"
          class="section-path"
          data-section="420"
        />
        <title>420 (0 seats)</title>
      </g>
    

      <g class="section" data-section-id="421" data-level="other">
        <path
          d="
    M 767.6901125709288 464.75792810058607
    L 827.1768042533574 456.926356567383
    A 330 330 0 0 1 827.1768042533574 543.073643432617
    L 767.6901125709288 535.2420718994139
    A 270 270 0 0 0 767.6901125709288 464.75792810058607
    Z
  "
          fill="#6b7280"
          fill-opacity="0.6"
          stroke="#1f2937"
          stroke-width="1"
          class="section-path"
          data-section="421"
        />
        <title>421 (0 seats)</title>
      </g>
    

      <g class="section" data-section-id="422" data-level="other">
        <path
          d="
    M 767.6901125709288 464.75792810058607
    L 827.1768042533574 456.926356567383
    A 330 330 0 0 1 827.1768042533574 543.073643432617
    L 767.6901125709288 535.2420718994139
    A 270 270 0 0 0 767.6901125709288 464.75792810058607
    Z
  "
          fill="#6b7280"
          fill-opacity="0.6"
          stroke="#1f2937"
          stroke-width="1"
          class="section-path"
          data-section="422"
        />
        <title>422 (0 seats)</title>
      </g>
    

      <g class="section" data-section-id="423" data-level="other">
        <path
          d="
    M 767.6901125709288 464.75792810058607
    L 827.1768042533574 456.926356567383
    A 330 330 0 0 1 827.1768042533574 543.073643432617
    L 767.6901125709288 535.2420718994139
    A 270 270 0 0 0 767.6901125709288 464.75792810058607
    Z
  "
          fill="#6b7280"
          fill-opacity="0.6"
          stroke="#1f2937"
          stroke-width="1"
          class="section-path"
          data-section="423"
        />
        <title>423 (0 seats)</title>
      </g>
    

      <g class="section" data-section-id="424" data-level="other">
        <path
          d="
    M 767.6901125709288 464.75792810058607
    L 827.1768042533574 456.926356567383
    A 330 330 0 0 1 827.1768042533574 543.073643432617
    L 767.6901125709288 535.2420718994139
    A 270 270 0 0 0 767.6901125709288 464.75792810058607
    Z
  "
          fill="#6b7280"
          fill-opacity="0.6"
          stroke="#1f2937"
          stroke-width="1"
          class="section-path"
          data-section="424"
        />
        <title>424 (0 seats)</title>
      </g>
    

      <g class="section" data-section-id="425" data-level="other">
        <path
          d="
    M 767.6901125709288 464.75792810058607
    L 827.1768042533574 456.926356567383
    A 330 330 0 0 1 827.1768042533574 543.073643432617
    L 767.6901125709288 535.2420718994139
    A 270 270 0 0 0 767.6901125709288 464.75792810058607
    Z
  "
          fill="#6b7280"
          fill-opacity="0.6"
          stroke="#1f2937"
          stroke-width="1"
          class="section-path"
          data-section="425"
        />
        <title>425 (0 seats)</title>
      </g>
    

      <g class="section" data-section-id="426" data-level="other">
        <path
          d="
    M 767.6901125709288 464.75792810058607
    L 827.1768042533574 456.926356567383
    A 330 330 0 0 1 827.1768042533574 543.073643432617
    L 767.6901125709288 535.2420718994139
    A 270 270 0 0 0 767.6901125709288 464.75792810058607
    Z
  "
          fill="#6b7280"
          fill-opacity="0.6"
          stroke="#1f2937"
          stroke-width="1"
          class="section-path"
          data-section="426"
        />
        <title>426 (0 seats)</title>
      </g>
    

      <g class="section" data-section-id="427" data-level="other">
        <path
          d="
    M 767.6901125709288 464.75792810058607
    L 827.1768042533574 456.926356567383
    A 330 330 0 0 1 827.1768042533574 543.073643432617
    L 767.6901125709288 535.2420718994139
    A 270 270 0 0 0 767.6901125709288 464.75792810058607
    Z
  "
          fill="#6b7280"
          fill-opacity="0.6"
          stroke="#1f2937"
          stroke-width="1"
          class="section-path"
          data-section="427"
        />
        <title>427 (0 seats)</title>
      </g>
    

      <g class="section" data-section-id="428" data-level="other">
        <path
          d="
    M 767.6901125709288 464.75792810058607
    L 827.1768042533574 456.926356567383
    A 330 330 0 0 1 827.1768042533574 543.073643432617
    L 767.6901125709288 535.2420718994139
    A 270 270 0 0 0 767.6901125709288 464.75792810058607
    Z
  "
          fill="#6b7280"
          fill-opacity="0.6"
          stroke="#1f2937"
          stroke-width="1"
          class="section-path"
          data-section="428"
        />
        <title>428 (0 seats)</title>
      </g>
    

      <g class="section" data-section-id="429" data-level="other">
        <path
          d="
    M 767.6901125709288 464.75792810058607
    L 827.1768042533574 456.926356567383
    A 330 330 0 0 1 827.1768042533574 543.073643432617
    L 767.6901125709288 535.2420718994139
    A 270 270 0 0 0 767.6901125709288 464.75792810058607
    Z
  "
          fill="#6b7280"
          fill-opacity="0.6"
          stroke="#1f2937"
          stroke-width="1"
          class="section-path"
          data-section="429"
        />
        <title>429 (0 seats)</title>
      </g>
    

      <g class="section" data-section-id="430" data-level="other">
        <path
          d="
    M 767.6901125709288 464.75792810058607
    L 827.1768042533574 456.926356567383
    A 330 330 0 0 1 827.1768042533574 543.073643432617
    L 767.6901125709288 535.2420718994139
    A 270 270 0 0 0 767.6901125709288 464.75792810058607
    Z
  "
          fill="#6b7280"
          fill-opacity="0.6"
          stroke="#1f2937"
          stroke-width="1"
          class="section-path"
          data-section="430"
        />
        <title>430 (0 seats)</title>
      </g>
    

      <g class="section" data-section-id="431" data-level="other">
        <path
          d="
    M 767.6901125709288 464.75792810058607
    L 827.1768042533574 456.926356567383
    A 330 330 0 0 1 827.1768042533574 543.073643432617
    L 767.6901125709288 535.2420718994139
    A 270 270 0 0 0 767.6901125709288 464.75792810058607
    Z
  "
          fill="#6b7280"
          fill-opacity="0.6"
          stroke="#1f2937"
          stroke-width="1"
          class="section-path"
          data-section="431"
        />
        <title>431 (0 seats)</title>
      </g>
    

      <g class="section" data-section-id="432" data-level="other">
        <path
          d="
    M 767.6901125709288 464.75792810058607
    L 827.1768042533574 456.926356567383
    A 330 330 0 0 1 827.1768042533574 543.073643432617
    L 767.6901125709288 535.2420718994139
    A 270 270 0 0 0 767.6901125709288 464.75792810058607
    Z
  "
          fill="#6b7280"
          fill-opacity="0.6"
          stroke="#1f2937"
          stroke-width="1"
          class="section-path"
          data-section="432"
        />
        <title>432 (0 seats)</title>
      </g>
    

      <g class="section" data-section-id="433" data-level="other">
        <path
          d="
    M 767.6901125709288 464.75792810058607
    L 827.1768042533574 456.926356567383
    A 330 330 0 0 1 827.1768042533574 543.073643432617
    L 767.6901125709288 535.2420718994139
    A 270 270 0 0 0 767.6901125709288 464.75792810058607
    Z
  "
          fill="#6b7280"
          fill-opacity="0.6"
          stroke="#1f2937"
          stroke-width="1"
          class="section-path"
          data-section="433"
        />
        <title>433 (0 seats)</title>
      </g>
    

      <g class="section" data-section-id="434" data-level="other">
        <path
          d="
    M 767.6901125709288 464.75792810058607
    L 827.1768042533574 456.926356567383
    A 330 330 0 0 1 827.1768042533574 543.073643432617
    L 767.6901125709288 535.2420718994139
    A 270 270 0 0 0 767.6901125709288 464.75792810058607
    Z
  "
          fill="#6b7280"
          fill-opacity="0.6"
          stroke="#1f2937"
          stroke-width="1"
          class="section-path"
          data-section="434"
        />
        <title>434 (0 seats)</title>
      </g>
    

      <g class="section" data-section-id="435" data-level="other">
        <path
          d="
    M 767.6901125709288 464.75792810058607
    L 827.1768042533574 456.926356567383
    A 330 330 0 0 1 827.1768042533574 543.073643432617
    L 767.6901125709288 535.2420718994139
    A 270 270 0 0 0 767.6901125709288 464.75792810058607
    Z
  "
          fill="#6b7280"
          fill-opacity="0.6"
          stroke="#1f2937"
          stroke-width="1"
          class="section-path"
          data-section="435"
        />
        <title>435 (0 seats)</title>
      </g>
    

      <g class="section" data-section-id="436" data-level="other">
        <path
          d="
    M 767.6901125709288 464.75792810058607
    L 827.1768042533574 456.926356567383
    A 330 330 0 0 1 827.1768042533574 543.073643432617
    L 767.6901125709288 535.2420718994139
    A 270 270 0 0 0 767.6901125709288 464.75792810058607
    Z
  "
          fill="#6b7280"
          fill-opacity="0.6"
          stroke="#1f2937"
          stroke-width="1"
          class="section-path"
          data-section="436"
        />
        <title>436 (0 seats)</title>
      </g>
    

      <g class="section" data-section-id="437" data-level="other">
        <path
          d="
    M 767.6901125709288 464.75792810058607
    L 827.1768042533574 456.926356567383
    A 330 330 0 0 1 827.1768042533574 543.073643432617
    L 767.6901125709288 535.2420718994139
    A 270 270 0 0 0 767.6901125709288 464.75792810058607
    Z
  "
          fill="#6b7280"
          fill-opacity="0.6"
          stroke="#1f2937"
          stroke-width="1"
          class="section-path"
          data-section="437"
        />
        <title>437 (0 seats)</title>
      </g>
    

      <g class="section" data-section-id="438" data-level="other">
        <path
          d="
    M 767.6901125709288 464.75792810058607
    L 827.1768042533574 456.926356567383
    A 330 330 0 0 1 827.1768042533574 543.073643432617
    L 767.6901125709288 535.2420718994139
    A 270 270 0 0 0 767.6901125709288 464.75792810058607
    Z
  "
          fill="#6b7280"
          fill-opacity="0.6"
          stroke="#1f2937"
          stroke-width="1"
          class="section-path"
          data-section="438"
        />
        <title>438 (0 seats)</title>
      </g>
    

      <g class="section" data-section-id="439" data-level="other">
        <path
          d="
    M 767.6901125709288 464.75792810058607
    L 827.1768042533574 456.926356567383
    A 330 330 0 0 1 827.1768042533574 543.073643432617
    L 767.6901125709288 535.2420718994139
    A 270 270 0 0 0 767.6901125709288 464.75792810058607
    Z
  "
          fill="#6b7280"
          fill-opacity="0.6"
          stroke="#1f2937"
          stroke-width="1"
          class="section-path"
          data-section="439"
        />
        <title>439 (0 seats)</title>
      </g>
    

      <g class="section" data-section-id="440" data-level="other">
        <path
          d="
    M 767.6901125709288 464.75792810058607
    L 827.1768042533574 456.926356567383
    A 330 330 0 0 1 827.1768042533574 543.073643432617
    L 767.6901125709288 535.2420718994139
    A 270 270 0 0 0 767.6901125709288 464.75792810058607
    Z
  "
          fill="#6b7280"
          fill-opacity="0.6"
          stroke="#1f2937"
          stroke-width="1"
          class="section-path"
          data-section="440"
        />
        <title>440 (0 seats)</title>
      </g>
    

      <g class="section" data-section-id="441" data-level="other">
        <path
          d="
    M 767.6901125709288 464.75792810058607
    L 827.1768042533574 456.926356567383
    A 330 330 0 0 1 827.1768042533574 543.073643432617
    L 767.6901125709288 535.2420718994139
    A 270 270 0 0 0 767.6901125709288 464.75792810058607
    Z
  "
          fill="#6b7280"
          fill-opacity="0.6"
          stroke="#1f2937"
          stroke-width="1"
          class="section-path"
          data-section="441"
        />
        <title>441 (0 seats)</title>
      </g>
    

      <g class="section" data-section-id="442" data-level="other">
        <path
          d="
    M 767.6901125709288 464.75792810058607
    L 827.1768042533574 456.926356567383
    A 330 330 0 0 1 827.1768042533574 543.073643432617
    L 767.6901125709288 535.2420718994139
    A 270 270 0 0 0 767.6901125709288 464.75792810058607
    Z
  "
          fill="#6b7280"
          fill-opacity="0.6"
          stroke="#1f2937"
          stroke-width="1"
          class="section-path"
          data-section="442"
        />
        <title>442 (0 seats)</title>
      </g>
    

  <!-- Legend -->
  <g transform="translate(800, 50)">
    <text x="0" y="0" font-size="14" font-weight="bold" fill="#1f2937">Levels</text>
    <rect x="0" y="10" width="20" height="20" fill="#2563eb" opacity="0.6" />
    <text x="25" y="25" font-size="12" fill="#1f2937">Field</text>
    <rect x="0" y="35" width="20" height="20" fill="#7c3aed" opacity="0.6" />
    <text x="25" y="50" font-size="12" fill="#1f2937">Club</text>
    <rect x="0" y="60" width="20" height="20" fill="#0891b2" opacity="0.6" />
    <text x="25" y="75" font-size="12" fill="#1f2937">Loge</text>
    <rect x="0" y="85" width="20" height="20" fill="#059669" opacity="0.6" />
    <text x="25" y="100" font-size="12" fill="#1f2937">Reserve</text>
    <rect x="0" y="110" width="20" height="20" fill="#ea580c" opacity="0.6" />
    <text x="25" y="125" font-size="12" fill="#1f2937">Upper</text>
    <rect x="0" y="135" width="20" height="20" fill="#dc2626" opacity="0.6" />
    <text x="25" y="150" font-size="12" fill="#1f2937">Pavilion</text>
  </g>
</svg>