<?xml version="1.0" encoding="UTF-8"?>
<svg xmlns="http://www.w3.org/2000/svg" viewBox="0 0 1000 1000" class="stadium-map">
  <defs>
    <style>
      .section-path {
        cursor: pointer;
        transition: all 0.2s ease;
      }
      .section-path:hover {
        fill-opacity: 0.9;
        stroke-width: 2;
        stroke: #ffffff;
      }
      .field {
        fill: #22c55e;
      }
    </style>
  </defs>

  <!-- Baseball field -->
  <circle cx="500" cy="500" r="150" class="field" fill="#22c55e" opacity="0.3" />
  <circle cx="500" cy="500" r="120" fill="#a16207" opacity="0.2" />

  <!-- Home plate indicator -->
  <circle cx="500" cy="580" r="5" fill="#dc2626" />

  <!-- Sections -->
  
      <g class="section" data-section-id="1" data-level="field">
        <path
          d="
    M 614.7471102580957 625.4316574370937
    L 655.2460903491884 669.7016541795972
    A 230 230 0 0 1 639.5640335382765 682.8165215250713
    L 603.1560247891608 635.1252550402701
    A 170 170 0 0 0 614.7471102580957 625.4316574370937
    Z
  "
          fill="#2563eb"
          fill-opacity="0.6"
          stroke="#1f2937"
          stroke-width="1"
          class="section-path"
          data-section="1"
        />
        <title>1 (0 seats)</title>
      </g>
    

      <g class="section" data-section-id="10" data-level="field">
        <path
          d="
    M 489.9290932580686 669.7014343999347
    L 486.3746555844457 729.5960583057939
    A 230 230 0 0 1 466.0412902794293 727.4792430840977
    L 474.90008411957814 668.1368318447678
    A 170 170 0 0 0 489.9290932580686 669.7014343999347
    Z
  "
          fill="#2563eb"
          fill-opacity="0.6"
          stroke="#1f2937"
          stroke-width="1"
          class="section-path"
          data-section="10"
        />
        <title>10 (0 seats)</title>
      </g>
    

      <g class="section" data-section-id="11" data-level="field">
        <path
          d="
    M 474.90008411957814 668.1368318447678
    L 466.0412902794293 727.4792430840977
    A 230 230 0 0 1 445.9762094703737 723.5652702384945
    L 460.06937221723274 665.2438953936698
    A 170 170 0 0 0 474.90008411957814 668.1368318447678
    Z
  "
          fill="#2563eb"
          fill-opacity="0.6"
          stroke="#1f2937"
          stroke-width="1"
          class="section-path"
          data-section="11"
        />
        <title>11 (0 seats)</title>
      </g>
    

      <g class="section" data-section-id="12" data-level="field">
        <path
          d="
    M 460.0693722172328 665.2438953936698
    L 445.97620947037376 723.5652702384945
    A 230 230 0 0 1 426.3379336115473 717.885061386464
    L 445.5541248433176 661.0454801552125
    A 170 170 0 0 0 460.0693722172328 665.2438953936698
    Z
  "
          fill="#2563eb"
          fill-opacity="0.6"
          stroke="#1f2937"
          stroke-width="1"
          class="section-path"
          data-section="12"
        />
        <title>12 (0 seats)</title>
      </g>
    

      <g class="section" data-section-id="13" data-level="field">
        <path
          d="
    M 445.5541248433176 661.0454801552125
    L 426.3379336115473 717.885061386464
    A 230 230 0 0 1 407.28161126376637 710.4834919658942
    L 431.4690170210447 655.5747549313131
    A 170 170 0 0 0 445.5541248433176 661.0454801552125
    Z
  "
          fill="#2563eb"
          fill-opacity="0.6"
          stroke="#1f2937"
          stroke-width="1"
          class="section-path"
          data-section="13"
        />
        <title>13 (0 seats)</title>
      </g>
    

      <g class="section" data-section-id="134" data-level="loge">
        <path
          d="
    M 231.7989241605335 531.1156378458284
    L 172.19868508509649 538.0302240337902
    A 330 330 0 0 1 170.24453989830658 512.7018318804996
    L 230.20007809861448 510.39240790222703
    A 270 270 0 0 0 231.7989241605335 531.1156378458284
    Z
  "
          fill="#0891b2"
          fill-opacity="0.6"
          stroke="#1f2937"
          stroke-width="1"
          class="section-path"
          data-section="134"
        />
        <title>134 (0 seats)</title>
      </g>
    

      <g class="section" data-section-id="135" data-level="loge">
        <path
          d="
    M 230.20007809861448 510.39240790222715
    L 170.24453989830658 512.7018318804999
    A 330 330 0 0 1 170.24453989830658 487.29816811950025
    L 230.20007809861448 489.6075920977729
    A 270 270 0 0 0 230.20007809861448 510.39240790222715
    Z
  "
          fill="#0891b2"
          fill-opacity="0.6"
          stroke="#1f2937"
          stroke-width="1"
          class="section-path"
          data-section="135"
        />
        <title>135 (0 seats)</title>
      </g>
    

      <g class="section" data-section-id="136" data-level="loge">
        <path
          d="
    M 230.20007809861448 489.607592097773
    L 170.24453989830658 487.2981681195004
    A 330 330 0 0 1 172.19868508509649 461.9697759662097
    L 231.7989241605335 468.8843621541716
    A 270 270 0 0 0 230.20007809861448 489.607592097773
    Z
  "
          fill="#0891b2"
          fill-opacity="0.6"
          stroke="#1f2937"
          stroke-width="1"
          class="section-path"
          data-section="136"
        />
        <title>136 (0 seats)</title>
      </g>
    

      <g class="section" data-section-id="137" data-level="loge">
        <path
          d="
    M 231.7989241605335 468.8843621541717
    L 172.19868508509649 461.96977596620985
    A 330 330 0 0 1 176.09539510937793 436.8667525732281
    L 234.98714145312738 448.34552483264116
    A 270 270 0 0 0 231.7989241605335 468.8843621541717
    Z
  "
          fill="#0891b2"
          fill-opacity="0.6"
          stroke="#1f2937"
          stroke-width="1"
          class="section-path"
          data-section="137"
        />
        <title>137 (0 seats)</title>
      </g>
    

      <g class="section" data-section-id="138" data-level="loge">
        <path
          d="
    M 234.98714145312738 448.3455248326413
    L 176.09539510937793 436.86675257322827
    A 330 330 0 0 1 181.91157789820704 412.1378595480876
    L 239.7458364621694 428.112794175708
    A 270 270 0 0 0 234.98714145312738 448.3455248326413
    Z
  "
          fill="#0891b2"
          fill-opacity="0.6"
          stroke="#1f2937"
          stroke-width="1"
          class="section-path"
          data-section="138"
        />
        <title>138 (0 seats)</title>
      </g>
    

      <g class="section" data-section-id="139" data-level="loge">
        <path
          d="
    M 239.7458364621694 428.112794175708
    L 181.91157789820704 412.1378595480876
    A 330 330 0 0 1 189.6127664996227 387.9296413855016
    L 246.04680895423678 408.3060702245013
    A 270 270 0 0 0 239.7458364621694 428.112794175708
    Z
  "
          fill="#0891b2"
          fill-opacity="0.6"
          stroke="#1f2937"
          stroke-width="1"
          class="section-path"
          data-section="139"
        />
        <title>139 (0 seats)</title>
      </g>
    

      <g class="section" data-section-id="14" data-level="field">
        <path
          d="
    M 431.46901702104475 655.5747549313131
    L 407.2816112637664 710.4834919658942
    A 230 230 0 0 1 388.9577933719287 701.4190367049964
    L 417.92532553577337 648.8749401732582
    A 170 170 0 0 0 431.46901702104475 655.5747549313131
    Z
  "
          fill="#2563eb"
          fill-opacity="0.6"
          stroke="#1f2937"
          stroke-width="1"
          class="section-path"
          data-section="14"
        />
        <title>14 (0 seats)</title>
      </g>
    

      <g class="section" data-section-id="140" data-level="loge">
        <path
          d="
    M 246.04680895423664 408.30607022450164
    L 189.61276649962258 387.929641385502
    A 330 330 0 0 1 199.1533233353012 364.3855570383222
    L 253.85271909251915 389.0427284859
    A 270 270 0 0 0 246.04680895423664 408.30607022450164
    Z
  "
          fill="#0891b2"
          fill-opacity="0.6"
          stroke="#1f2937"
          stroke-width="1"
          class="section-path"
          data-section="140"
        />
        <title>140 (0 seats)</title>
      </g>
    

      <g class="section" data-section-id="141" data-level="loge">
        <path
          d="
    M 253.85271909251915 389.0427284859
    L 199.1533233353012 364.3855570383222
    A 330 330 0 0 1 210.47671065082915 341.6451297735485
    L 263.11730871431473 370.436924360176
    A 270 270 0 0 0 253.85271909251915 389.0427284859
    Z
  "
          fill="#0891b2"
          fill-opacity="0.6"
          stroke="#1f2937"
          stroke-width="1"
          class="section-path"
          data-section="141"
        />
        <title>141 (0 seats)</title>
      </g>
    

      <g class="section" data-section-id="15" data-level="field">
        <path
          d="
    M 417.92532553577337 648.8749401732582
    L 388.9577933719287 701.4190367049964
    A 230 230 0 0 1 371.51124386515994 690.7633076535465
    L 405.0300498133791 640.9989665265343
    A 170 170 0 0 0 417.92532553577337 648.8749401732582
    Z
  "
          fill="#2563eb"
          fill-opacity="0.6"
          stroke="#1f2937"
          stroke-width="1"
          class="section-path"
          data-section="15"
        />
        <title>15 (0 seats)</title>
      </g>
    

      <g class="section" data-section-id="16" data-level="field">
        <path
          d="
    M 405.0300498133791 640.9989665265343
    L 371.51124386515994 690.7633076535465
    A 230 230 0 0 1 355.07979597620647 678.6004884251497
    L 392.88506659110914 632.0090566620672
    A 170 170 0 0 0 405.0300498133791 640.9989665265343
    Z
  "
          fill="#2563eb"
          fill-opacity="0.6"
          stroke="#1f2937"
          stroke-width="1"
          class="section-path"
          data-section="16"
        />
        <title>16 (0 seats)</title>
      </g>
    

      <g class="section" data-section-id="17" data-level="field">
        <path
          d="
    M 392.88506659110914 632.0090566620672
    L 355.07979597620647 678.6004884251497
    A 230 230 0 0 1 339.7932633155108 665.0266691201962
    L 381.5863250592906 621.9762336975364
    A 170 170 0 0 0 392.88506659110914 632.0090566620672
    Z
  "
          fill="#2563eb"
          fill-opacity="0.6"
          stroke="#1f2937"
          stroke-width="1"
          class="section-path"
          data-section="17"
        />
        <title>17 (0 seats)</title>
      </g>
    

      <g class="section" data-section-id="18" data-level="field">
        <path
          d="
    M 381.58632505929046 621.9762336975363
    L 339.7932633155106 665.0266691201961
    A 230 230 0 0 1 325.77241430282737 650.14908718382
    L 371.2230888325246 610.9797600923887
    A 170 170 0 0 0 381.58632505929046 621.9762336975363
    Z
  "
          fill="#2563eb"
          fill-opacity="0.6"
          stroke="#1f2937"
          stroke-width="1"
          class="section-path"
          data-section="18"
        />
        <title>18 (0 seats)</title>
      </g>
    

      <g class="section" data-section-id="19" data-level="field">
        <path
          d="
    M 371.2230888325246 610.9797600923887
    L 325.77241430282737 650.14908718382
    A 230 230 0 0 1 313.1280180586933 634.0852801963287
    L 361.8772307390342 599.1065114494603
    A 170 170 0 0 0 371.2230888325246 610.9797600923887
    Z
  "
          fill="#2563eb"
          fill-opacity="0.6"
          stroke="#1f2937"
          stroke-width="1"
          class="section-path"
          data-section="19"
        />
        <title>19 (0 seats)</title>
      </g>
    

      <g class="section" data-section-id="2" data-level="field">
        <path
          d="
    M 603.1560247891609 635.1252550402701
    L 639.5640335382765 682.8165215250713
    A 230 230 0 0 1 622.7793769319019 694.48708080542
    L 590.7499742540144 643.7513205953104
    A 170 170 0 0 0 603.1560247891609 635.1252550402701
    Z
  "
          fill="#2563eb"
          fill-opacity="0.6"
          stroke="#1f2937"
          stroke-width="1"
          class="section-path"
          data-section="2"
        />
        <title>2 (0 seats)</title>
      </g>
    

      <g class="section" data-section-id="20" data-level="field">
        <path
          d="
    M 361.87723073903413 599.1065114494602
    L 313.1280180586932 634.0852801963285
    A 230 230 0 0 1 301.9599692935082 616.9621572893207
    L 353.62258599954953 586.4502901703675
    A 170 170 0 0 0 361.87723073903413 599.1065114494602
    Z
  "
          fill="#2563eb"
          fill-opacity="0.6"
          stroke="#1f2937"
          stroke-width="1"
          class="section-path"
          data-section="20"
        />
        <title>20 (0 seats)</title>
      </g>
    

      <g class="section" data-section-id="201" data-level="reserve">
        <path
          d="
    M 316.455540367666 237.87134582752208
    L 282.04095418660336 188.72222317018247
    A 380 380 0 0 1 339.4050605385339 155.60304092607316
    L 364.76215624297595 209.98150814827216
    A 320 320 0 0 0 316.455540367666 237.87134582752208
    Z
  "
          fill="#059669"
          fill-opacity="0.6"
          stroke="#1f2937"
          stroke-width="1"
          class="section-path"
          data-section="201"
        />
        <title>201 (0 seats)</title>
      </g>
    

      <g class="section" data-section-id="202" data-level="reserve">
        <path
          d="
    M 364.76215624297595 209.98150814827216
    L 339.4050605385339 155.60304092607316
    A 380 380 0 0 1 401.648762861043 132.94818601015385
    L 417.1779055671941 190.90373558749798
    A 320 320 0 0 0 364.76215624297595 209.98150814827216
    Z
  "
          fill="#059669"
          fill-opacity="0.6"
          stroke="#1f2937"
          stroke-width="1"
          class="section-path"
          data-section="202"
        />
        <title>202 (0 seats)</title>
      </g>
    

      <g class="section" data-section-id="203" data-level="reserve">
        <path
          d="
    M 417.1779055671941 190.90373558749798
    L 401.648762861043 132.94818601015385
    A 380 380 0 0 1 466.8808177558894 121.44601472513676
    L 472.11016232074894 181.21769661064144
    A 320 320 0 0 0 417.1779055671941 190.90373558749798
    Z
  "
          fill="#059669"
          fill-opacity="0.6"
          stroke="#1f2937"
          stroke-width="1"
          class="section-path"
          data-section="203"
        />
        <title>203 (0 seats)</title>
      </g>
    

      <g class="section" data-section-id="204" data-level="reserve">
        <path
          d="
    M 472.11016232074894 181.21769661064144
    L 466.8808177558894 121.44601472513676
    A 380 380 0 0 1 533.1191822441109 121.44601472513676
    L 527.8898376792513 181.2176966106415
    A 320 320 0 0 0 472.11016232074894 181.21769661064144
    Z
  "
          fill="#059669"
          fill-opacity="0.6"
          stroke="#1f2937"
          stroke-width="1"
          class="section-path"
          data-section="204"
        />
        <title>204 (0 seats)</title>
      </g>
    

      <g class="section" data-section-id="205" data-level="reserve">
        <path
          d="
    M 527.8898376792513 181.2176966106415
    L 533.1191822441109 121.44601472513676
    A 380 380 0 0 1 598.3512371389572 132.94818601015385
    L 582.8220944328061 190.90373558749798
    A 320 320 0 0 0 527.8898376792513 181.2176966106415
    Z
  "
          fill="#059669"
          fill-opacity="0.6"
          stroke="#1f2937"
          stroke-width="1"
          class="section-path"
          data-section="205"
        />
        <title>205 (0 seats)</title>
      </g>
    

      <g class="section" data-section-id="206" data-level="reserve">
        <path
          d="
    M 582.8220944328061 190.90373558749798
    L 598.3512371389572 132.94818601015385
    A 380 380 0 0 1 660.5949394614663 155.60304092607328
    L 635.2378437570243 209.9815081482722
    A 320 320 0 0 0 582.8220944328061 190.90373558749798
    Z
  "
          fill="#059669"
          fill-opacity="0.6"
          stroke="#1f2937"
          stroke-width="1"
          class="section-path"
          data-section="206"
        />
        <title>206 (0 seats)</title>
      </g>
    

      <g class="section" data-section-id="207" data-level="reserve">
        <path
          d="
    M 635.2378437570243 209.9815081482722
    L 660.5949394614663 155.60304092607328
    A 380 380 0 0 1 717.9590458133969 188.72222317018264
    L 683.5444596323342 237.87134582752225
    A 320 320 0 0 0 635.2378437570243 209.9815081482722
    Z
  "
          fill="#059669"
          fill-opacity="0.6"
          stroke="#1f2937"
          stroke-width="1"
          class="section-path"
          data-section="207"
        />
        <title>207 (0 seats)</title>
      </g>
    

      <g class="section" data-section-id="208" data-level="reserve">
        <path
          d="
    M 683.5444596323342 237.87134582752225
    L 717.9590458133969 188.72222317018264
    A 380 380 0 0 1 768.7005768508884 231.29942314911227
    L 726.2741699796954 273.72583002030507
    A 320 320 0 0 0 683.5444596323342 237.87134582752225
    Z
  "
          fill="#059669"
          fill-opacity="0.6"
          stroke="#1f2937"
          stroke-width="1"
          class="section-path"
          data-section="208"
        />
        <title>208 (0 seats)</title>
      </g>
    

      <g class="section" data-section-id="209" data-level="reserve">
        <path
          d="
    M 726.2741699796954 273.72583002030507
    L 768.7005768508884 231.29942314911227
    A 380 380 0 0 1 811.2777768298163 282.0409541866017
    L 762.1286541724769 316.4555403676646
    A 320 320 0 0 0 726.2741699796954 273.72583002030507
    Z
  "
          fill="#059669"
          fill-opacity="0.6"
          stroke="#1f2937"
          stroke-width="1"
          class="section-path"
          data-section="209"
        />
        <title>209 (0 seats)</title>
      </g>
    

      <g class="section" data-section-id="21" data-level="field">
        <path
          d="
    M 353.62258599954953 586.4502901703675
    L 301.9599692935082 616.9621572893207
    A 230 230 0 0 1 292.356499107879 598.9149965235997
    L 346.5243689058236 573.1110843870085
    A 170 170 0 0 0 353.62258599954953 586.4502901703675
    Z
  "
          fill="#2563eb"
          fill-opacity="0.6"
          stroke="#1f2937"
          stroke-width="1"
          class="section-path"
          data-section="21"
        />
        <title>21 (0 seats)</title>
      </g>
    

      <g class="section" data-section-id="210" data-level="reserve">
        <path
          d="
    M 762.1286541724769 316.4555403676646
    L 811.2777768298163 282.0409541866017
    A 380 380 0 0 1 844.3969590739271 339.4050605385345
    L 790.0184918517281 364.7621562429764
    A 320 320 0 0 0 762.1286541724769 316.4555403676646
    Z
  "
          fill="#059669"
          fill-opacity="0.6"
          stroke="#1f2937"
          stroke-width="1"
          class="section-path"
          data-section="210"
        />
        <title>210 (0 seats)</title>
      </g>
    

      <g class="section" data-section-id="211" data-level="reserve">
        <path
          d="
    M 790.0184918517281 364.7621562429764
    L 844.3969590739271 339.4050605385345
    A 380 380 0 0 1 867.0518139898456 401.648762861041
    L 809.0962644125016 417.17790556719245
    A 320 320 0 0 0 790.0184918517281 364.7621562429764
    Z
  "
          fill="#059669"
          fill-opacity="0.6"
          stroke="#1f2937"
          stroke-width="1"
          class="section-path"
          data-section="211"
        />
        <title>211 (0 seats)</title>
      </g>
    

      <g class="section" data-section-id="212" data-level="reserve">
        <path
          d="
    M 809.0962644125016 417.17790556719245
    L 867.0518139898456 401.648762861041
    A 380 380 0 0 1 878.5539852748633 466.88081775589006
    L 818.7823033893585 472.1101623207495
    A 320 320 0 0 0 809.0962644125016 417.17790556719245
    Z
  "
          fill="#059669"
          fill-opacity="0.6"
          stroke="#1f2937"
          stroke-width="1"
          class="section-path"
          data-section="212"
        />
        <title>212 (0 seats)</title>
      </g>
    

      <g class="section" data-section-id="213" data-level="reserve">
        <path
          d="
    M 818.7823033893585 472.1101623207495
    L 878.5539852748633 466.88081775589006
    A 380 380 0 0 1 878.5539852748634 533.1191822441089
    L 818.7823033893587 527.8898376792496
    A 320 320 0 0 0 818.7823033893585 472.1101623207495
    Z
  "
          fill="#059669"
          fill-opacity="0.6"
          stroke="#1f2937"
          stroke-width="1"
          class="section-path"
          data-section="213"
        />
        <title>213 (0 seats)</title>
      </g>
    

      <g class="section" data-section-id="214" data-level="reserve">
        <path
          d="
    M 818.7823033893587 527.8898376792496
    L 878.5539852748634 533.1191822441089
    A 380 380 0 0 1 867.051813989846 598.3512371389579
    L 809.0962644125018 582.8220944328066
    A 320 320 0 0 0 818.7823033893587 527.8898376792496
    Z
  "
          fill="#059669"
          fill-opacity="0.6"
          stroke="#1f2937"
          stroke-width="1"
          class="section-path"
          data-section="214"
        />
        <title>214 (0 seats)</title>
      </g>
    

      <g class="section" data-section-id="215" data-level="reserve">
        <path
          d="
    M 809.0962644125018 582.8220944328066
    L 867.051813989846 598.3512371389579
    A 380 380 0 0 1 844.3969590739276 660.5949394614645
    L 790.0184918517285 635.2378437570228
    A 320 320 0 0 0 809.0962644125018 582.8220944328066
    Z
  "
          fill="#059669"
          fill-opacity="0.6"
          stroke="#1f2937"
          stroke-width="1"
          class="section-path"
          data-section="215"
        />
        <title>215 (0 seats)</title>
      </g>
    

      <g class="section" data-section-id="216" data-level="reserve">
        <path
          d="
    M 790.0184918517285 635.2378437570228
    L 844.3969590739276 660.5949394614645
    A 380 380 0 0 1 811.277776829817 717.9590458133973
    L 762.1286541724775 683.5444596323346
    A 320 320 0 0 0 790.0184918517285 635.2378437570228
    Z
  "
          fill="#059669"
          fill-opacity="0.6"
          stroke="#1f2937"
          stroke-width="1"
          class="section-path"
          data-section="216"
        />
        <title>216 (0 seats)</title>
      </g>
    

      <g class="section" data-section-id="217" data-level="reserve">
        <path
          d="
    M 762.1286541724775 683.5444596323346
    L 811.277776829817 717.9590458133973
    A 380 380 0 0 1 768.7005768508891 768.7005768508869
    L 726.2741699796961 726.2741699796943
    A 320 320 0 0 0 762.1286541724775 683.5444596323346
    Z
  "
          fill="#059669"
          fill-opacity="0.6"
          stroke="#1f2937"
          stroke-width="1"
          class="section-path"
          data-section="217"
        />
        <title>217 (0 seats)</title>
      </g>
    

      <g class="section" data-section-id="218" data-level="reserve">
        <path
          d="
    M 726.2741699796961 726.2741699796943
    L 768.7005768508891 768.7005768508869
    A 380 380 0 0 1 717.9590458133978 811.2777768298167
    L 683.544459632335 762.1286541724772
    A 320 320 0 0 0 726.2741699796961 726.2741699796943
    Z
  "
          fill="#059669"
          fill-opacity="0.6"
          stroke="#1f2937"
          stroke-width="1"
          class="section-path"
          data-section="218"
        />
        <title>218 (0 seats)</title>
      </g>
    

      <g class="section" data-section-id="219" data-level="reserve">
        <path
          d="
    M 683.544459632335 762.1286541724772
    L 717.9590458133978 811.2777768298167
    A 380 380 0 0 1 660.594939461465 844.3969590739274
    L 635.237843757023 790.0184918517284
    A 320 320 0 0 0 683.544459632335 762.1286541724772
    Z
  "
          fill="#059669"
          fill-opacity="0.6"
          stroke="#1f2937"
          stroke-width="1"
          class="section-path"
          data-section="219"
        />
        <title>219 (0 seats)</title>
      </g>
    

      <g class="section" data-section-id="22" data-level="field">
        <path
          d="
    M 346.52436890582356 573.1110843870084
    L 292.3564991078789 598.9149965235996
    A 230 230 0 0 1 284.3934779391522 580.0863761499116
    L 340.63865760719943 559.1942780238478
    A 170 170 0 0 0 346.52436890582356 573.1110843870084
    Z
  "
          fill="#2563eb"
          fill-opacity="0.6"
          stroke="#1f2937"
          stroke-width="1"
          class="section-path"
          data-section="22"
        />
        <title>22 (0 seats)</title>
      </g>
    

      <g class="section" data-section-id="220" data-level="reserve">
        <path
          d="
    M 635.237843757023 790.0184918517284
    L 660.594939461465 844.3969590739274
    A 380 380 0 0 1 598.3512371389584 867.0518139898459
    L 582.822094432807 809.0962644125018
    A 320 320 0 0 0 635.237843757023 790.0184918517284
    Z
  "
          fill="#059669"
          fill-opacity="0.6"
          stroke="#1f2937"
          stroke-width="1"
          class="section-path"
          data-section="220"
        />
        <title>220 (0 seats)</title>
      </g>
    

      <g class="section" data-section-id="221" data-level="reserve">
        <path
          d="
    M 582.822094432807 809.0962644125018
    L 598.3512371389584 867.0518139898459
    A 380 380 0 0 1 533.1191822441093 878.5539852748634
    L 527.8898376792499 818.7823033893586
    A 320 320 0 0 0 582.822094432807 809.0962644125018
    Z
  "
          fill="#059669"
          fill-opacity="0.6"
          stroke="#1f2937"
          stroke-width="1"
          class="section-path"
          data-section="221"
        />
        <title>221 (0 seats)</title>
      </g>
    

      <g class="section" data-section-id="222" data-level="reserve">
        <path
          d="
    M 527.8898376792499 818.7823033893586
    L 533.1191822441093 878.5539852748634
    A 380 380 0 0 1 466.8808177558905 878.5539852748634
    L 472.1101623207499 818.7823033893586
    A 320 320 0 0 0 527.8898376792499 818.7823033893586
    Z
  "
          fill="#059669"
          fill-opacity="0.6"
          stroke="#1f2937"
          stroke-width="1"
          class="section-path"
          data-section="222"
        />
        <title>222 (0 seats)</title>
      </g>
    

      <g class="section" data-section-id="223" data-level="reserve">
        <path
          d="
    M 472.1101623207499 818.7823033893586
    L 466.8808177558905 878.5539852748634
    A 380 380 0 0 1 401.6487628610415 867.0518139898459
    L 417.17790556719285 809.0962644125018
    A 320 320 0 0 0 472.1101623207499 818.7823033893586
    Z
  "
          fill="#059669"
          fill-opacity="0.6"
          stroke="#1f2937"
          stroke-width="1"
          class="section-path"
          data-section="223"
        />
        <title>223 (0 seats)</title>
      </g>
    

      <g class="section" data-section-id="224" data-level="reserve">
        <path
          d="
    M 417.17790556719285 809.0962644125018
    L 401.6487628610415 867.0518139898459
    A 380 380 0 0 1 339.40506053853494 844.3969590739273
    L 364.76215624297674 790.0184918517282
    A 320 320 0 0 0 417.17790556719285 809.0962644125018
    Z
  "
          fill="#059669"
          fill-opacity="0.6"
          stroke="#1f2937"
          stroke-width="1"
          class="section-path"
          data-section="224"
        />
        <title>224 (0 seats)</title>
      </g>
    

      <g class="section" data-section-id="225" data-level="reserve">
        <path
          d="
    M 364.76215624297674 790.0184918517282
    L 339.40506053853494 844.3969590739273
    A 380 380 0 0 1 282.0409541866021 811.2777768298166
    L 316.4555403676649 762.1286541724771
    A 320 320 0 0 0 364.76215624297674 790.0184918517282
    Z
  "
          fill="#059669"
          fill-opacity="0.6"
          stroke="#1f2937"
          stroke-width="1"
          class="section-path"
          data-section="225"
        />
        <title>225 (0 seats)</title>
      </g>
    

      <g class="section" data-section-id="226" data-level="reserve">
        <path
          d="
    M 316.4555403676649 762.1286541724771
    L 282.0409541866021 811.2777768298166
    A 380 380 0 0 1 231.2994231491126 768.7005768508886
    L 273.72583002030535 726.2741699796958
    A 320 320 0 0 0 316.4555403676649 762.1286541724771
    Z
  "
          fill="#059669"
          fill-opacity="0.6"
          stroke="#1f2937"
          stroke-width="1"
          class="section-path"
          data-section="226"
        />
        <title>226 (0 seats)</title>
      </g>
    

      <g class="section" data-section-id="227" data-level="reserve">
        <path
          d="
    M 273.72583002030535 726.2741699796958
    L 231.2994231491126 768.7005768508886
    A 380 380 0 0 1 188.72222317018293 717.9590458133972
    L 237.87134582752242 683.5444596323346
    A 320 320 0 0 0 273.72583002030535 726.2741699796958
    Z
  "
          fill="#059669"
          fill-opacity="0.6"
          stroke="#1f2937"
          stroke-width="1"
          class="section-path"
          data-section="227"
        />
        <title>227 (0 seats)</title>
      </g>
    

      <g class="section" data-section-id="228" data-level="reserve">
        <path
          d="
    M 237.87134582752242 683.5444596323346
    L 188.72222317018293 717.9590458133972
    A 380 380 0 0 1 155.6030409260735 660.5949394614668
    L 209.98150814827238 635.2378437570246
    A 320 320 0 0 0 237.87134582752242 683.5444596323346
    Z
  "
          fill="#059669"
          fill-opacity="0.6"
          stroke="#1f2937"
          stroke-width="1"
          class="section-path"
          data-section="228"
        />
        <title>228 (0 seats)</title>
      </g>
    

      <g class="section" data-section-id="23" data-level="field">
        <path
          d="
    M 340.63865760719943 559.1942780238478
    L 284.3934779391522 580.0863761499116
    A 230 230 0 0 1 278.1338161610775 560.6250481958856
    L 336.011951075579 544.8098182317415
    A 170 170 0 0 0 340.63865760719943 559.1942780238478
    Z
  "
          fill="#2563eb"
          fill-opacity="0.6"
          stroke="#1f2937"
          stroke-width="1"
          class="section-path"
          data-section="23"
        />
        <title>23 (0 seats)</title>
      </g>
    

      <g class="section" data-section-id="24" data-level="field">
        <path
          d="
    M 336.011951075579 544.8098182317415
    L 278.13381616107745 560.6250481958855
    A 230 230 0 0 1 273.6269670720527 540.6847632781918
    L 332.68080174890855 530.0713467708374
    A 170 170 0 0 0 336.011951075579 544.8098182317415
    Z
  "
          fill="#2563eb"
          fill-opacity="0.6"
          stroke="#1f2937"
          stroke-width="1"
          class="section-path"
          data-section="24"
        />
        <title>24 (0 seats)</title>
      </g>
    

      <g class="section" data-section-id="25" data-level="field">
        <path
          d="
    M 332.68080174890855 530.0713467708374
    L 273.6269670720527 540.6847632781917
    A 230 230 0 0 1 270.9085361985001 520.423055924275
    L 330.67152675541314 515.095302204899
    A 170 170 0 0 0 332.68080174890855 530.0713467708374
    Z
  "
          fill="#2563eb"
          fill-opacity="0.6"
          stroke="#1f2937"
          stroke-width="1"
          class="section-path"
          data-section="25"
        />
        <title>25 (0 seats)</title>
      </g>
    

      <g class="section" data-section-id="26" data-level="field">
        <path
          d="
    M 330.67152675541314 515.0953022048989
    L 270.9085361985001 520.423055924275
    A 230 230 0 0 1 270 500
    L 330 500
    A 170 170 0 0 0 330.67152675541314 515.0953022048989
    Z
  "
          fill="#2563eb"
          fill-opacity="0.6"
          stroke="#1f2937"
          stroke-width="1"
          class="section-path"
          data-section="26"
        />
        <title>26 (0 seats)</title>
      </g>
    

      <g class="section" data-section-id="27" data-level="field">
        <path
          d="
    M 330 500
    L 270 500
    A 230 230 0 0 1 270.9085361985001 479.5769440757251
    L 330.6715267554131 484.9046977951012
    A 170 170 0 0 0 330 500
    Z
  "
          fill="#2563eb"
          fill-opacity="0.6"
          stroke="#1f2937"
          stroke-width="1"
          class="section-path"
          data-section="27"
        />
        <title>27 (0 seats)</title>
      </g>
    

      <g class="section" data-section-id="28" data-level="field">
        <path
          d="
    M 330.67152675541314 484.9046977951011
    L 270.9085361985001 479.576944075725
    A 230 230 0 0 1 273.6269670720527 459.31523672180833
    L 332.6808017489085 469.9286532291627
    A 170 170 0 0 0 330.67152675541314 484.9046977951011
    Z
  "
          fill="#2563eb"
          fill-opacity="0.6"
          stroke="#1f2937"
          stroke-width="1"
          class="section-path"
          data-section="28"
        />
        <title>28 (0 seats)</title>
      </g>
    

      <g class="section" data-section-id="29" data-level="field">
        <path
          d="
    M 332.68080174890855 469.9286532291626
    L 273.6269670720527 459.3152367218082
    A 230 230 0 0 1 278.13381616107745 439.3749518041145
    L 336.011951075579 455.1901817682586
    A 170 170 0 0 0 332.68080174890855 469.9286532291626
    Z
  "
          fill="#2563eb"
          fill-opacity="0.6"
          stroke="#1f2937"
          stroke-width="1"
          class="section-path"
          data-section="29"
        />
        <title>29 (0 seats)</title>
      </g>
    

      <g class="section" data-section-id="3" data-level="field">
        <path
          d="
    M 590.7499742540144 643.7513205953104
    L 622.7793769319019 694.48708080542
    A 230 230 0 0 1 605.024724600554 704.6211309287919
    L 577.6269703569312 651.241705469107
    A 170 170 0 0 0 590.7499742540144 643.7513205953104
    Z
  "
          fill="#2563eb"
          fill-opacity="0.6"
          stroke="#1f2937"
          stroke-width="1"
          class="section-path"
          data-section="3"
        />
        <title>3 (0 seats)</title>
      </g>
    

      <g class="section" data-section-id="30" data-level="field">
        <path
          d="
    M 336.011951075579 455.1901817682585
    L 278.1338161610775 439.37495180411446
    A 230 230 0 0 1 284.39347793915215 419.91362385008836
    L 340.63865760719943 440.80572197615226
    A 170 170 0 0 0 336.011951075579 455.1901817682585
    Z
  "
          fill="#2563eb"
          fill-opacity="0.6"
          stroke="#1f2937"
          stroke-width="1"
          class="section-path"
          data-section="30"
        />
        <title>30 (0 seats)</title>
      </g>
    

      <g class="section" data-section-id="302" data-level="upper">
        <path
          d="
    M 142.60744427304473 595.7630466879327
    L 84.6518946957006 611.292189394084
    A 430 430 0 0 1 71.63627982054953 537.4769693814947
    L 131.40796170605427 532.2476248166349
    A 370 370 0 0 0 142.60744427304473 595.7630466879327
    Z
  "
          fill="#ea580c"
          fill-opacity="0.6"
          stroke="#1f2937"
          stroke-width="1"
          class="section-path"
          data-section="302"
        />
        <title>302 (0 seats)</title>
      </g>
    

      <g class="section" data-section-id="303" data-level="upper">
        <path
          d="
    M 131.40796170605427 532.2476248166349
    L 71.63627982054953 537.4769693814947
    A 430 430 0 0 1 71.63627982054942 462.52303061850716
    L 131.40796170605415 467.7523751833666
    A 370 370 0 0 0 131.40796170605427 532.2476248166349
    Z
  "
          fill="#ea580c"
          fill-opacity="0.6"
          stroke="#1f2937"
          stroke-width="1"
          class="section-path"
          data-section="303"
        />
        <title>303 (0 seats)</title>
      </g>
    

      <g class="section" data-section-id="304" data-level="upper">
        <path
          d="
    M 131.40796170605415 467.7523751833666
    L 71.63627982054942 462.52303061850716
    A 430 430 0 0 1 84.65189469570021 388.7078106059178
    L 142.60744427304434 404.2369533120688
    A 370 370 0 0 0 131.40796170605415 467.7523751833666
    Z
  "
          fill="#ea580c"
          fill-opacity="0.6"
          stroke="#1f2937"
          stroke-width="1"
          class="section-path"
          data-section="304"
        />
        <title>304 (0 seats)</title>
      </g>
    

      <g class="section" data-section-id="305" data-level="upper">
        <path
          d="
    M 142.60744427304434 404.2369533120688
    L 84.65189469570021 388.7078106059178
    A 430 430 0 0 1 110.28765157424039 318.2741474514995
    L 164.66611879643938 343.63124315594143
    A 370 370 0 0 0 142.60744427304434 404.2369533120688
    Z
  "
          fill="#ea580c"
          fill-opacity="0.6"
          stroke="#1f2937"
          stroke-width="1"
          class="section-path"
          data-section="305"
        />
        <title>305 (0 seats)</title>
      </g>
    

      <g class="section" data-section-id="306" data-level="upper">
        <path
          d="
    M 164.66611879643938 343.63124315594143
    L 110.28765157424039 318.2741474514995
    A 430 430 0 0 1 147.76462095573413 253.3621323690493
    L 196.91374361307356 287.77671855011215
    A 370 370 0 0 0 164.66611879643938 343.63124315594143
    Z
  "
          fill="#ea580c"
          fill-opacity="0.6"
          stroke="#1f2937"
          stroke-width="1"
          class="section-path"
          data-section="306"
        />
        <title>306 (0 seats)</title>
      </g>
    

      <g class="section" data-section-id="307" data-level="upper">
        <path
          d="
    M 196.91374361307055 287.77671855011647
    L 147.76462095573066 253.3621323690543
    A 430 430 0 0 1 195.944084089782 195.9440840897871
    L 238.37049096097525 238.37049096097962
    A 370 370 0 0 0 196.91374361307055 287.77671855011647
    Z
  "
          fill="#ea580c"
          fill-opacity="0.6"
          stroke="#1f2937"
          stroke-width="1"
          class="section-path"
          data-section="307"
        />
        <title>307 (0 seats)</title>
      </g>
    

      <g class="section" data-section-id="308" data-level="upper">
        <path
          d="
    M 238.37049096097894 238.37049096097587
    L 195.94408408978637 195.9440840897828
    A 430 430 0 0 1 253.36213236905346 147.76462095573123
    L 287.7767185501158 196.91374361307106
    A 370 370 0 0 0 238.37049096097894 238.37049096097587
    Z
  "
          fill="#ea580c"
          fill-opacity="0.6"
          stroke="#1f2937"
          stroke-width="1"
          class="section-path"
          data-section="308"
        />
        <title>308 (0 seats)</title>
      </g>
    

      <g class="section" data-section-id="309" data-level="upper">
        <path
          d="
    M 287.77671855011357 196.9137436130726
    L 253.36213236905093 147.764620955733
    A 430 430 0 0 1 318.2741474514986 110.28765157424084
    L 343.63124315594064 164.66611879643978
    A 370 370 0 0 0 287.77671855011357 196.9137436130726
    Z
  "
          fill="#ea580c"
          fill-opacity="0.6"
          stroke="#1f2937"
          stroke-width="1"
          class="section-path"
          data-section="309"
        />
        <title>309 (0 seats)</title>
      </g>
    

      <g class="section" data-section-id="31" data-level="field">
        <path
          d="
    M 340.63865760719943 440.8057219761522
    L 284.3934779391522 419.91362385008824
    A 230 230 0 0 1 292.35649910787896 401.0850034764004
    L 346.5243689058236 426.8889156129916
    A 170 170 0 0 0 340.63865760719943 440.8057219761522
    Z
  "
          fill="#2563eb"
          fill-opacity="0.6"
          stroke="#1f2937"
          stroke-width="1"
          class="section-path"
          data-section="31"
        />
        <title>31 (0 seats)</title>
      </g>
    

      <g class="section" data-section-id="310" data-level="upper">
        <path
          d="
    M 343.63124315594064 164.66611879643978
    L 318.2741474514986 110.28765157424084
    A 430 430 0 0 1 388.7078106059168 84.65189469570043
    L 404.23695331206795 142.60744427304456
    A 370 370 0 0 0 343.63124315594064 164.66611879643978
    Z
  "
          fill="#ea580c"
          fill-opacity="0.6"
          stroke="#1f2937"
          stroke-width="1"
          class="section-path"
          data-section="310"
        />
        <title>310 (0 seats)</title>
      </g>
    

      <g class="section" data-section-id="311" data-level="upper">
        <path
          d="
    M 404.23695331206795 142.60744427304456
    L 388.7078106059168 84.65189469570043
    A 430 430 0 0 1 462.52303061850614 71.63627982054953
    L 467.7523751833657 131.4079617060542
    A 370 370 0 0 0 404.23695331206795 142.60744427304456
    Z
  "
          fill="#ea580c"
          fill-opacity="0.6"
          stroke="#1f2937"
          stroke-width="1"
          class="section-path"
          data-section="311"
        />
        <title>311 (0 seats)</title>
      </g>
    

      <g class="section" data-section-id="312" data-level="upper">
        <path
          d="
    M 467.7523751833657 131.4079617060542
    L 462.52303061850614 71.63627982054953
    A 430 430 0 0 1 537.4769693814935 71.63627982054948
    L 532.247624816634 131.4079617060542
    A 370 370 0 0 0 467.7523751833657 131.4079617060542
    Z
  "
          fill="#ea580c"
          fill-opacity="0.6"
          stroke="#1f2937"
          stroke-width="1"
          class="section-path"
          data-section="312"
        />
        <title>312 (0 seats)</title>
      </g>
    

      <g class="section" data-section-id="313" data-level="upper">
        <path
          d="
    M 532.247624816634 131.4079617060542
    L 537.4769693814935 71.63627982054948
    A 430 430 0 0 1 611.2921893940829 84.65189469570038
    L 595.7630466879318 142.6074442730445
    A 370 370 0 0 0 532.247624816634 131.4079617060542
    Z
  "
          fill="#ea580c"
          fill-opacity="0.6"
          stroke="#1f2937"
          stroke-width="1"
          class="section-path"
          data-section="313"
        />
        <title>313 (0 seats)</title>
      </g>
    

      <g class="section" data-section-id="314" data-level="upper">
        <path
          d="
    M 595.7630466879318 142.6074442730445
    L 611.2921893940829 84.65189469570038
    A 430 430 0 0 1 681.725852548501 110.28765157424067
    L 656.3687568440591 164.66611879643966
    A 370 370 0 0 0 595.7630466879318 142.6074442730445
    Z
  "
          fill="#ea580c"
          fill-opacity="0.6"
          stroke="#1f2937"
          stroke-width="1"
          class="section-path"
          data-section="314"
        />
        <title>314 (0 seats)</title>
      </g>
    

      <g class="section" data-section-id="315" data-level="upper">
        <path
          d="
    M 656.3687568440591 164.66611879643966
    L 681.725852548501 110.28765157424067
    A 430 430 0 0 1 746.6378676309488 147.76462095573282
    L 712.2232814498861 196.91374361307243
    A 370 370 0 0 0 656.3687568440591 164.66611879643966
    Z
  "
          fill="#ea580c"
          fill-opacity="0.6"
          stroke="#1f2937"
          stroke-width="1"
          class="section-path"
          data-section="315"
        />
        <title>315 (0 seats)</title>
      </g>
    

      <g class="section" data-section-id="316" data-level="upper">
        <path
          d="
    M 712.2232814498861 196.91374361307243
    L 746.6378676309488 147.76462095573282
    A 430 430 0 0 1 804.0559159102156 195.94408408978472
    L 761.6295090390227 238.37049096097758
    A 370 370 0 0 0 712.2232814498861 196.91374361307243
    Z
  "
          fill="#ea580c"
          fill-opacity="0.6"
          stroke="#1f2937"
          stroke-width="1"
          class="section-path"
          data-section="316"
        />
        <title>316 (0 seats)</title>
      </g>
    

      <g class="section" data-section-id="317" data-level="upper">
        <path
          d="
    M 761.6295090390227 238.37049096097758
    L 804.0559159102156 195.94408408978472
    A 430 430 0 0 1 852.2353790442656 253.36213236904905
    L 803.0862563869263 287.776718550112
    A 370 370 0 0 0 761.6295090390227 238.37049096097758
    Z
  "
          fill="#ea580c"
          fill-opacity="0.6"
          stroke="#1f2937"
          stroke-width="1"
          class="section-path"
          data-section="317"
        />
        <title>317 (0 seats)</title>
      </g>
    

      <g class="section" data-section-id="318" data-level="upper">
        <path
          d="
    M 803.0862563869263 287.776718550112
    L 852.2353790442656 253.36213236904905
    A 430 430 0 0 1 889.7123484257595 318.2741474514993
    L 835.3338812035605 343.6312431559412
    A 370 370 0 0 0 803.0862563869263 287.776718550112
    Z
  "
          fill="#ea580c"
          fill-opacity="0.6"
          stroke="#1f2937"
          stroke-width="1"
          class="section-path"
          data-section="318"
        />
        <title>318 (0 seats)</title>
      </g>
    

      <g class="section" data-section-id="319" data-level="upper">
        <path
          d="
    M 835.3338812035605 343.6312431559412
    L 889.7123484257595 318.2741474514993
    A 430 430 0 0 1 915.348105304299 388.7078106059146
    L 857.3925557269549 404.236953312066
    A 370 370 0 0 0 835.3338812035605 343.6312431559412
    Z
  "
          fill="#ea580c"
          fill-opacity="0.6"
          stroke="#1f2937"
          stroke-width="1"
          class="section-path"
          data-section="319"
        />
        <title>319 (0 seats)</title>
      </g>
    

      <g class="section" data-section-id="32" data-level="field">
        <path
          d="
    M 346.5243689058236 426.8889156129915
    L 292.356499107879 401.0850034764003
    A 230 230 0 0 1 301.9599692935082 383.03784271067934
    L 353.62258599954953 413.54970982963255
    A 170 170 0 0 0 346.5243689058236 426.8889156129915
    Z
  "
          fill="#2563eb"
          fill-opacity="0.6"
          stroke="#1f2937"
          stroke-width="1"
          class="section-path"
          data-section="32"
        />
        <title>32 (0 seats)</title>
      </g>
    

      <g class="section" data-section-id="320" data-level="upper">
        <path
          d="
    M 857.3925557269549 404.236953312066
    L 915.348105304299 388.7078106059146
    A 430 430 0 0 1 928.3637201794506 462.5230306185068
    L 868.5920382939458 467.7523751833663
    A 370 370 0 0 0 857.3925557269549 404.236953312066
    Z
  "
          fill="#ea580c"
          fill-opacity="0.6"
          stroke="#1f2937"
          stroke-width="1"
          class="section-path"
          data-section="320"
        />
        <title>320 (0 seats)</title>
      </g>
    

      <g class="section" data-section-id="321" data-level="upper">
        <path
          d="
    M 868.5920382939458 467.7523751833663
    L 928.3637201794506 462.5230306185068
    A 430 430 0 0 1 928.3637201794508 537.4769693814912
    L 868.592038293946 532.247624816632
    A 370 370 0 0 0 868.5920382939458 467.7523751833663
    Z
  "
          fill="#ea580c"
          fill-opacity="0.6"
          stroke="#1f2937"
          stroke-width="1"
          class="section-path"
          data-section="321"
        />
        <title>321 (0 seats)</title>
      </g>
    

      <g class="section" data-section-id="322" data-level="upper">
        <path
          d="
    M 868.5920382939462 532.2476248166294
    L 928.3637201794511 537.4769693814882
    A 430 430 0 0 1 915.3481053043002 611.2921893940807
    L 857.3925557269561 595.7630466879299
    A 370 370 0 0 0 868.5920382939462 532.2476248166294
    Z
  "
          fill="#ea580c"
          fill-opacity="0.6"
          stroke="#1f2937"
          stroke-width="1"
          class="section-path"
          data-section="322"
        />
        <title>322 (0 seats)</title>
      </g>
    

      <g class="section" data-section-id="323" data-level="upper">
        <path
          d="
    M 857.3925557269547 595.763046687935
    L 915.3481053042987 611.2921893940866
    A 430 430 0 0 1 889.7123484257577 681.7258525485046
    L 835.333881203559 656.3687568440621
    A 370 370 0 0 0 857.3925557269547 595.763046687935
    Z
  "
          fill="#ea580c"
          fill-opacity="0.6"
          stroke="#1f2937"
          stroke-width="1"
          class="section-path"
          data-section="323"
        />
        <title>323 (0 seats)</title>
      </g>
    

      <g class="section" data-section-id="324" data-level="upper">
        <path
          d="
    M 835.3338812035612 656.3687568440573
    L 889.7123484257603 681.725852548499
    A 430 430 0 0 1 852.2353790442668 746.6378676309494
    L 803.0862563869273 712.2232814498867
    A 370 370 0 0 0 835.3338812035612 656.3687568440573
    Z
  "
          fill="#ea580c"
          fill-opacity="0.6"
          stroke="#1f2937"
          stroke-width="1"
          class="section-path"
          data-section="324"
        />
        <title>324 (0 seats)</title>
      </g>
    

      <g class="section" data-section-id="325" data-level="upper">
        <path
          d="
    M 803.0862563869273 712.2232814498867
    L 852.2353790442668 746.6378676309494
    A 430 430 0 0 1 804.0559159102147 804.0559159102161
    L 761.629509039022 761.6295090390231
    A 370 370 0 0 0 803.0862563869273 712.2232814498867
    Z
  "
          fill="#ea580c"
          fill-opacity="0.6"
          stroke="#1f2937"
          stroke-width="1"
          class="section-path"
          data-section="325"
        />
        <title>325 (0 seats)</title>
      </g>
    

      <g class="section" data-section-id="326" data-level="upper">
        <path
          d="
    M 761.629509039022 761.6295090390231
    L 804.0559159102147 804.0559159102161
    A 430 430 0 0 1 746.6378676309504 852.2353790442661
    L 712.2232814498875 803.0862563869266
    A 370 370 0 0 0 761.629509039022 761.6295090390231
    Z
  "
          fill="#ea580c"
          fill-opacity="0.6"
          stroke="#1f2937"
          stroke-width="1"
          class="section-path"
          data-section="326"
        />
        <title>326 (0 seats)</title>
      </g>
    

      <g class="section" data-section-id="327" data-level="upper">
        <path
          d="
    M 712.2232814498875 803.0862563869266
    L 746.6378676309504 852.2353790442661
    A 430 430 0 0 1 681.7258525485 889.7123484257597
    L 656.3687568440582 835.3338812035607
    A 370 370 0 0 0 712.2232814498875 803.0862563869266
    Z
  "
          fill="#ea580c"
          fill-opacity="0.6"
          stroke="#1f2937"
          stroke-width="1"
          class="section-path"
          data-section="327"
        />
        <title>327 (0 seats)</title>
      </g>
    

      <g class="section" data-section-id="33" data-level="field">
        <path
          d="
    M 353.62258599954953 413.54970982963255
    L 301.9599692935082 383.03784271067934
    A 230 230 0 0 1 313.1280180586932 365.9147198036716
    L 361.8772307390341 400.89348855053987
    A 170 170 0 0 0 353.62258599954953 413.54970982963255
    Z
  "
          fill="#2563eb"
          fill-opacity="0.6"
          stroke="#1f2937"
          stroke-width="1"
          class="section-path"
          data-section="33"
        />
        <title>33 (0 seats)</title>
      </g>
    

      <g class="section" data-section-id="34" data-level="field">
        <path
          d="
    M 361.8772307390342 400.8934885505398
    L 313.12801805869327 365.91471980367146
    A 230 230 0 0 1 325.77241430282726 349.8509128161802
    L 371.22308883252447 389.0202399076114
    A 170 170 0 0 0 361.8772307390342 400.8934885505398
    Z
  "
          fill="#2563eb"
          fill-opacity="0.6"
          stroke="#1f2937"
          stroke-width="1"
          class="section-path"
          data-section="34"
        />
        <title>34 (0 seats)</title>
      </g>
    

      <g class="section" data-section-id="35" data-level="field">
        <path
          d="
    M 371.2230888325246 389.0202399076113
    L 325.7724143028274 349.85091281617997
    A 230 230 0 0 1 339.79326331551056 334.97333087980394
    L 381.5863250592904 378.0237663024638
    A 170 170 0 0 0 371.2230888325246 389.0202399076113
    Z
  "
          fill="#2563eb"
          fill-opacity="0.6"
          stroke="#1f2937"
          stroke-width="1"
          class="section-path"
          data-section="35"
        />
        <title>35 (0 seats)</title>
      </g>
    

      <g class="section" data-section-id="36" data-level="field">
        <path
          d="
    M 381.5863250592905 378.0237663024637
    L 339.7932633155107 334.9733308798038
    A 230 230 0 0 1 355.07979597620636 321.3995115748503
    L 392.885066591109 367.99094333793283
    A 170 170 0 0 0 381.5863250592905 378.0237663024637
    Z
  "
          fill="#2563eb"
          fill-opacity="0.6"
          stroke="#1f2937"
          stroke-width="1"
          class="section-path"
          data-section="36"
        />
        <title>36 (0 seats)</title>
      </g>
    

      <g class="section" data-section-id="37" data-level="field">
        <path
          d="
    M 392.88506659110914 367.9909433379328
    L 355.07979597620647 321.3995115748502
    A 230 230 0 0 1 371.51124386515994 309.2366923464536
    L 405.03004981337904 359.00103347346567
    A 170 170 0 0 0 392.88506659110914 367.9909433379328
    Z
  "
          fill="#2563eb"
          fill-opacity="0.6"
          stroke="#1f2937"
          stroke-width="1"
          class="section-path"
          data-section="37"
        />
        <title>37 (0 seats)</title>
      </g>
    

      <g class="section" data-section-id="38" data-level="field">
        <path
          d="
    M 405.03004981337904 359.00103347346567
    L 371.51124386515994 309.2366923464536
    A 230 230 0 0 1 388.9577933719286 298.5809632950036
    L 417.92532553577325 351.1250598267418
    A 170 170 0 0 0 405.03004981337904 359.00103347346567
    Z
  "
          fill="#2563eb"
          fill-opacity="0.6"
          stroke="#1f2937"
          stroke-width="1"
          class="section-path"
          data-section="38"
        />
        <title>38 (0 seats)</title>
      </g>
    

      <g class="section" data-section-id="39" data-level="field">
        <path
          d="
    M 417.92532553577325 351.1250598267418
    L 388.9577933719286 298.5809632950036
    A 230 230 0 0 1 407.2816112637662 289.51650803410587
    L 431.4690170210446 344.4252450686869
    A 170 170 0 0 0 417.92532553577325 351.1250598267418
    Z
  "
          fill="#2563eb"
          fill-opacity="0.6"
          stroke="#1f2937"
          stroke-width="1"
          class="section-path"
          data-section="39"
        />
        <title>39 (0 seats)</title>
      </g>
    

      <g class="section" data-section-id="4" data-level="field">
        <path
          d="
    M 577.6269703569312 651.241705469107
    L 605.024724600554 704.6211309287919
    A 230 230 0 0 1 586.4403438862748 713.1386097093217
    L 563.8906889594205 657.5372332634117
    A 170 170 0 0 0 577.6269703569312 651.241705469107
    Z
  "
          fill="#2563eb"
          fill-opacity="0.6"
          stroke="#1f2937"
          stroke-width="1"
          class="section-path"
          data-section="4"
        />
        <title>4 (0 seats)</title>
      </g>
    

      <g class="section" data-section-id="40" data-level="field">
        <path
          d="
    M 431.4690170210447 344.4252450686869
    L 407.28161126376637 289.51650803410575
    A 230 230 0 0 1 426.3379336115472 282.11493861353597
    L 445.55412484331754 338.95451984478746
    A 170 170 0 0 0 431.4690170210447 344.4252450686869
    Z
  "
          fill="#2563eb"
          fill-opacity="0.6"
          stroke="#1f2937"
          stroke-width="1"
          class="section-path"
          data-section="40"
        />
        <title>40 (0 seats)</title>
      </g>
    

      <g class="section" data-section-id="5" data-level="field">
        <path
          d="
    M 563.8906889594205 657.5372332634117
    L 586.4403438862748 713.1386097093217
    A 230 230 0 0 1 567.1730572465044 719.9722263836002
    L 549.6496510082859 662.5881673270088
    A 170 170 0 0 0 563.8906889594205 657.5372332634117
    Z
  "
          fill="#2563eb"
          fill-opacity="0.6"
          stroke="#1f2937"
          stroke-width="1"
          class="section-path"
          data-section="5"
        />
        <title>5 (0 seats)</title>
      </g>
    

      <g class="section" data-section-id="6" data-level="field">
        <path
          d="
    M 549.6496510082859 662.5881673270088
    L 567.1730572465045 719.9722263836002
    A 230 230 0 0 1 547.3750823104526 725.0679932288859
    L 535.0163651859867 666.3546036909157
    A 170 170 0 0 0 549.6496510082859 662.5881673270088
    Z
  "
          fill="#2563eb"
          fill-opacity="0.6"
          stroke="#1f2937"
          stroke-width="1"
          class="section-path"
          data-section="6"
        />
        <title>6 (0 seats)</title>
      </g>
    

      <g class="section" data-section-id="7" data-level="field">
        <path
          d="
    M 535.0163651859867 666.3546036909157
    L 547.3750823104526 725.0679932288859
    A 230 230 0 0 1 527.2028293119141 728.3856520831089
    L 520.1064390566322 668.8067863222979
    A 170 170 0 0 0 535.0163651859867 666.3546036909157
    Z
  "
          fill="#2563eb"
          fill-opacity="0.6"
          stroke="#1f2937"
          stroke-width="1"
          class="section-path"
          data-section="7"
        />
        <title>7 (0 seats)</title>
      </g>
    

      <g class="section" data-section-id="8" data-level="field">
        <path
          d="
    M 520.1064390566322 668.8067863222979
    L 527.2028293119141 728.3856520831089
    A 230 230 0 0 1 506.81566539918873 729.8989923970228
    L 505.03766572983517 669.9253422064951
    A 170 170 0 0 0 520.1064390566322 668.8067863222979
    Z
  "
          fill="#2563eb"
          fill-opacity="0.6"
          stroke="#1f2937"
          stroke-width="1"
          class="section-path"
          data-section="8"
        />
        <title>8 (0 seats)</title>
      </g>
    

      <g class="section" data-section-id="9" data-level="field">
        <path
          d="
    M 505.03766572983517 669.9253422064951
    L 506.81566539918873 729.8989923970228
    A 230 230 0 0 1 486.3746555844457 729.5960583057939
    L 489.9290932580686 669.7014343999347
    A 170 170 0 0 0 505.03766572983517 669.9253422064951
    Z
  "
          fill="#2563eb"
          fill-opacity="0.6"
          stroke="#1f2937"
          stroke-width="1"
          class="section-path"
          data-section="9"
        />
        <title>9 (0 seats)</title>
      </g>
    

      <g class="section" data-section-id="S15" data-level="other">
        <path
          d="
    M 767.6901125709288 464.75792810058607
    L 827.1768042533574 456.926356567383
    A 330 330 0 0 1 827.1768042533574 543.073643432617
    L 767.6901125709288 535.2420718994139
    A 270 270 0 0 0 767.6901125709288 464.75792810058607
    Z
  "
          fill="#6b7280"
          fill-opacity="0.6"
          stroke="#1f2937"
          stroke-width="1"
          class="section-path"
          data-section="S15"
        />
        <title>S15 (0 seats)</title>
      </g>
    

      <g class="section" data-section-id="S16" data-level="other">
        <path
          d="
    M 767.6901125709288 464.75792810058607
    L 827.1768042533574 456.926356567383
    A 330 330 0 0 1 827.1768042533574 543.073643432617
    L 767.6901125709288 535.2420718994139
    A 270 270 0 0 0 767.6901125709288 464.75792810058607
    Z
  "
          fill="#6b7280"
          fill-opacity="0.6"
          stroke="#1f2937"
          stroke-width="1"
          class="section-path"
          data-section="S16"
        />
        <title>S16 (0 seats)</title>
      </g>
    

      <g class="section" data-section-id="S17" data-level="other">
        <path
          d="
    M 767.6901125709288 464.75792810058607
    L 827.1768042533574 456.926356567383
    A 330 330 0 0 1 827.1768042533574 543.073643432617
    L 767.6901125709288 535.2420718994139
    A 270 270 0 0 0 767.6901125709288 464.75792810058607
    Z
  "
          fill="#6b7280"
          fill-opacity="0.6"
          stroke="#1f2937"
          stroke-width="1"
          class="section-path"
          data-section="S17"
        />
        <title>S17 (0 seats)</title>
      </g>
    

      <g class="section" data-section-id="S18" data-level="other">
        <path
          d="
    M 767.6901125709288 464.75792810058607
    L 827.1768042533574 456.926356567383
    A 330 330 0 0 1 827.1768042533574 543.073643432617
    L 767.6901125709288 535.2420718994139
    A 270 270 0 0 0 767.6901125709288 464.75792810058607
    Z
  "
          fill="#6b7280"
          fill-opacity="0.6"
          stroke="#1f2937"
          stroke-width="1"
          class="section-path"
          data-section="S18"
        />
        <title>S18 (0 seats)</title>
      </g>
    

      <g class="section" data-section-id="S19" data-level="other">
        <path
          d="
    M 767.6901125709288 464.75792810058607
    L 827.1768042533574 456.926356567383
    A 330 330 0 0 1 827.1768042533574 543.073643432617
    L 767.6901125709288 535.2420718994139
    A 270 270 0 0 0 767.6901125709288 464.75792810058607
    Z
  "
          fill="#6b7280"
          fill-opacity="0.6"
          stroke="#1f2937"
          stroke-width="1"
          class="section-path"
          data-section="S19"
        />
        <title>S19 (0 seats)</title>
      </g>
    

      <g class="section" data-section-id="S20" data-level="other">
        <path
          d="
    M 767.6901125709288 464.75792810058607
    L 827.1768042533574 456.926356567383
    A 330 330 0 0 1 827.1768042533574 543.073643432617
    L 767.6901125709288 535.2420718994139
    A 270 270 0 0 0 767.6901125709288 464.75792810058607
    Z
  "
          fill="#6b7280"
          fill-opacity="0.6"
          stroke="#1f2937"
          stroke-width="1"
          class="section-path"
          data-section="S20"
        />
        <title>S20 (0 seats)</title>
      </g>
    

      <g class="section" data-section-id="S21" data-level="other">
        <path
          d="
    M 767.6901125709288 464.75792810058607
    L 827.1768042533574 456.926356567383
    A 330 330 0 0 1 827.1768042533574 543.073643432617
    L 767.6901125709288 535.2420718994139
    A 270 270 0 0 0 767.6901125709288 464.75792810058607
    Z
  "
          fill="#6b7280"
          fill-opacity="0.6"
          stroke="#1f2937"
          stroke-width="1"
          class="section-path"
          data-section="S21"
        />
        <title>S21 (0 seats)</title>
      </g>
    

      <g class="section" data-section-id="S22" data-level="other">
        <path
          d="
    M 767.6901125709288 464.75792810058607
    L 827.1768042533574 456.926356567383
    A 330 330 0 0 1 827.1768042533574 543.073643432617
    L 767.6901125709288 535.2420718994139
    A 270 270 0 0 0 767.6901125709288 464.75792810058607
    Z
  "
          fill="#6b7280"
          fill-opacity="0.6"
          stroke="#1f2937"
          stroke-width="1"
          class="section-path"
          data-section="S22"
        />
        <title>S22 (0 seats)</title>
      </g>
    

      <g class="section" data-section-id="S23" data-level="other">
        <path
          d="
    M 767.6901125709288 464.75792810058607
    L 827.1768042533574 456.926356567383
    A 330 330 0 0 1 827.1768042533574 543.073643432617
    L 767.6901125709288 535.2420718994139
    A 270 270 0 0 0 767.6901125709288 464.75792810058607
    Z
  "
          fill="#6b7280"
          fill-opacity="0.6"
          stroke="#1f2937"
          stroke-width="1"
          class="section-path"
          data-section="S23"
        />
        <title>S23 (0 seats)</title>
      </g>
    

      <g class="section" data-section-id="S24" data-level="other">
        <path
          d="
    M 767.6901125709288 464.75792810058607
    L 827.1768042533574 456.926356567383
    A 330 330 0 0 1 827.1768042533574 543.073643432617
    L 767.6901125709288 535.2420718994139
    A 270 270 0 0 0 767.6901125709288 464.75792810058607
    Z
  "
          fill="#6b7280"
          fill-opacity="0.6"
          stroke="#1f2937"
          stroke-width="1"
          class="section-path"
          data-section="S24"
        />
        <title>S24 (0 seats)</title>
      </g>
    

      <g class="section" data-section-id="S25" data-level="other">
        <path
          d="
    M 767.6901125709288 464.75792810058607
    L 827.1768042533574 456.926356567383
    A 330 330 0 0 1 827.1768042533574 543.073643432617
    L 767.6901125709288 535.2420718994139
    A 270 270 0 0 0 767.6901125709288 464.75792810058607
    Z
  "
          fill="#6b7280"
          fill-opacity="0.6"
          stroke="#1f2937"
          stroke-width="1"
          class="section-path"
          data-section="S25"
        />
        <title>S25 (0 seats)</title>
      </g>
    

      <g class="section" data-section-id="S26" data-level="other">
        <path
          d="
    M 767.6901125709288 464.75792810058607
    L 827.1768042533574 456.926356567383
    A 330 330 0 0 1 827.1768042533574 543.073643432617
    L 767.6901125709288 535.2420718994139
    A 270 270 0 0 0 767.6901125709288 464.75792810058607
    Z
  "
          fill="#6b7280"
          fill-opacity="0.6"
          stroke="#1f2937"
          stroke-width="1"
          class="section-path"
          data-section="S26"
        />
        <title>S26 (0 seats)</title>
      </g>
    

      <g class="section" data-section-id="S27" data-level="other">
        <path
          d="
    M 767.6901125709288 464.75792810058607
    L 827.1768042533574 456.926356567383
    A 330 330 0 0 1 827.1768042533574 543.073643432617
    L 767.6901125709288 535.2420718994139
    A 270 270 0 0 0 767.6901125709288 464.75792810058607
    Z
  "
          fill="#6b7280"
          fill-opacity="0.6"
          stroke="#1f2937"
          stroke-width="1"
          class="section-path"
          data-section="S27"
        />
        <title>S27 (0 seats)</title>
      </g>
    

      <g class="section" data-section-id="S28" data-level="other">
        <path
          d="
    M 767.6901125709288 464.75792810058607
    L 827.1768042533574 456.926356567383
    A 330 330 0 0 1 827.1768042533574 543.073643432617
    L 767.6901125709288 535.2420718994139
    A 270 270 0 0 0 767.6901125709288 464.75792810058607
    Z
  "
          fill="#6b7280"
          fill-opacity="0.6"
          stroke="#1f2937"
          stroke-width="1"
          class="section-path"
          data-section="S28"
        />
        <title>S28 (0 seats)</title>
      </g>
    

      <g class="section" data-section-id="S29" data-level="other">
        <path
          d="
    M 767.6901125709288 464.75792810058607
    L 827.1768042533574 456.926356567383
    A 330 330 0 0 1 827.1768042533574 543.073643432617
    L 767.6901125709288 535.2420718994139
    A 270 270 0 0 0 767.6901125709288 464.75792810058607
    Z
  "
          fill="#6b7280"
          fill-opacity="0.6"
          stroke="#1f2937"
          stroke-width="1"
          class="section-path"
          data-section="S29"
        />
        <title>S29 (0 seats)</title>
      </g>
    

      <g class="section" data-section-id="S30" data-level="other">
        <path
          d="
    M 767.6901125709288 464.75792810058607
    L 827.1768042533574 456.926356567383
    A 330 330 0 0 1 827.1768042533574 543.073643432617
    L 767.6901125709288 535.2420718994139
    A 270 270 0 0 0 767.6901125709288 464.75792810058607
    Z
  "
          fill="#6b7280"
          fill-opacity="0.6"
          stroke="#1f2937"
          stroke-width="1"
          class="section-path"
          data-section="S30"
        />
        <title>S30 (0 seats)</title>
      </g>
    

      <g class="section" data-section-id="S31" data-level="other">
        <path
          d="
    M 767.6901125709288 464.75792810058607
    L 827.1768042533574 456.926356567383
    A 330 330 0 0 1 827.1768042533574 543.073643432617
    L 767.6901125709288 535.2420718994139
    A 270 270 0 0 0 767.6901125709288 464.75792810058607
    Z
  "
          fill="#6b7280"
          fill-opacity="0.6"
          stroke="#1f2937"
          stroke-width="1"
          class="section-path"
          data-section="S31"
        />
        <title>S31 (0 seats)</title>
      </g>
    

      <g class="section" data-section-id="S32" data-level="other">
        <path
          d="
    M 767.6901125709288 464.75792810058607
    L 827.1768042533574 456.926356567383
    A 330 330 0 0 1 827.1768042533574 543.073643432617
    L 767.6901125709288 535.2420718994139
    A 270 270 0 0 0 767.6901125709288 464.75792810058607
    Z
  "
          fill="#6b7280"
          fill-opacity="0.6"
          stroke="#1f2937"
          stroke-width="1"
          class="section-path"
          data-section="S32"
        />
        <title>S32 (0 seats)</title>
      </g>
    

      <g class="section" data-section-id="S33" data-level="other">
        <path
          d="
    M 767.6901125709288 464.75792810058607
    L 827.1768042533574 456.926356567383
    A 330 330 0 0 1 827.1768042533574 543.073643432617
    L 767.6901125709288 535.2420718994139
    A 270 270 0 0 0 767.6901125709288 464.75792810058607
    Z
  "
          fill="#6b7280"
          fill-opacity="0.6"
          stroke="#1f2937"
          stroke-width="1"
          class="section-path"
          data-section="S33"
        />
        <title>S33 (0 seats)</title>
      </g>
    

      <g class="section" data-section-id="S34" data-level="other">
        <path
          d="
    M 767.6901125709288 464.75792810058607
    L 827.1768042533574 456.926356567383
    A 330 330 0 0 1 827.1768042533574 543.073643432617
    L 767.6901125709288 535.2420718994139
    A 270 270 0 0 0 767.6901125709288 464.75792810058607
    Z
  "
          fill="#6b7280"
          fill-opacity="0.6"
          stroke="#1f2937"
          stroke-width="1"
          class="section-path"
          data-section="S34"
        />
        <title>S34 (0 seats)</title>
      </g>
    

      <g class="section" data-section-id="S35" data-level="other">
        <path
          d="
    M 767.6901125709288 464.75792810058607
    L 827.1768042533574 456.926356567383
    A 330 330 0 0 1 827.1768042533574 543.073643432617
    L 767.6901125709288 535.2420718994139
    A 270 270 0 0 0 767.6901125709288 464.75792810058607
    Z
  "
          fill="#6b7280"
          fill-opacity="0.6"
          stroke="#1f2937"
          stroke-width="1"
          class="section-path"
          data-section="S35"
        />
        <title>S35 (0 seats)</title>
      </g>
    

      <g class="section" data-section-id="S36" data-level="other">
        <path
          d="
    M 767.6901125709288 464.75792810058607
    L 827.1768042533574 456.926356567383
    A 330 330 0 0 1 827.1768042533574 543.073643432617
    L 767.6901125709288 535.2420718994139
    A 270 270 0 0 0 767.6901125709288 464.75792810058607
    Z
  "
          fill="#6b7280"
          fill-opacity="0.6"
          stroke="#1f2937"
          stroke-width="1"
          class="section-path"
          data-section="S36"
        />
        <title>S36 (0 seats)</title>
      </g>
    

      <g class="section" data-section-id="S37" data-level="other">
        <path
          d="
    M 767.6901125709288 464.75792810058607
    L 827.1768042533574 456.926356567383
    A 330 330 0 0 1 827.1768042533574 543.073643432617
    L 767.6901125709288 535.2420718994139
    A 270 270 0 0 0 767.6901125709288 464.75792810058607
    Z
  "
          fill="#6b7280"
          fill-opacity="0.6"
          stroke="#1f2937"
          stroke-width="1"
          class="section-path"
          data-section="S37"
        />
        <title>S37 (0 seats)</title>
      </g>
    

      <g class="section" data-section-id="S38" data-level="other">
        <path
          d="
    M 767.6901125709288 464.75792810058607
    L 827.1768042533574 456.926356567383
    A 330 330 0 0 1 827.1768042533574 543.073643432617
    L 767.6901125709288 535.2420718994139
    A 270 270 0 0 0 767.6901125709288 464.75792810058607
    Z
  "
          fill="#6b7280"
          fill-opacity="0.6"
          stroke="#1f2937"
          stroke-width="1"
          class="section-path"
          data-section="S38"
        />
        <title>S38 (0 seats)</title>
      </g>
    

      <g class="section" data-section-id="S39" data-level="other">
        <path
          d="
    M 767.6901125709288 464.75792810058607
    L 827.1768042533574 456.926356567383
    A 330 330 0 0 1 827.1768042533574 543.073643432617
    L 767.6901125709288 535.2420718994139
    A 270 270 0 0 0 767.6901125709288 464.75792810058607
    Z
  "
          fill="#6b7280"
          fill-opacity="0.6"
          stroke="#1f2937"
          stroke-width="1"
          class="section-path"
          data-section="S39"
        />
        <title>S39 (0 seats)</title>
      </g>
    

      <g class="section" data-section-id="S40" data-level="other">
        <path
          d="
    M 767.6901125709288 464.75792810058607
    L 827.1768042533574 456.926356567383
    A 330 330 0 0 1 827.1768042533574 543.073643432617
    L 767.6901125709288 535.2420718994139
    A 270 270 0 0 0 767.6901125709288 464.75792810058607
    Z
  "
          fill="#6b7280"
          fill-opacity="0.6"
          stroke="#1f2937"
          stroke-width="1"
          class="section-path"
          data-section="S40"
        />
        <title>S40 (0 seats)</title>
      </g>
    

      <g class="section" data-section-id="S41" data-level="other">
        <path
          d="
    M 767.6901125709288 464.75792810058607
    L 827.1768042533574 456.926356567383
    A 330 330 0 0 1 827.1768042533574 543.073643432617
    L 767.6901125709288 535.2420718994139
    A 270 270 0 0 0 767.6901125709288 464.75792810058607
    Z
  "
          fill="#6b7280"
          fill-opacity="0.6"
          stroke="#1f2937"
          stroke-width="1"
          class="section-path"
          data-section="S41"
        />
        <title>S41 (0 seats)</title>
      </g>
    

      <g class="section" data-section-id="S42" data-level="other">
        <path
          d="
    M 767.6901125709288 464.75792810058607
    L 827.1768042533574 456.926356567383
    A 330 330 0 0 1 827.1768042533574 543.073643432617
    L 767.6901125709288 535.2420718994139
    A 270 270 0 0 0 767.6901125709288 464.75792810058607
    Z
  "
          fill="#6b7280"
          fill-opacity="0.6"
          stroke="#1f2937"
          stroke-width="1"
          class="section-path"
          data-section="S42"
        />
        <title>S42 (0 seats)</title>
      </g>
    

  <!-- Legend -->
  <g transform="translate(800, 50)">
    <text x="0" y="0" font-size="14" font-weight="bold" fill="#1f2937">Levels</text>
    <rect x="0" y="10" width="20" height="20" fill="#2563eb" opacity="0.6" />
    <text x="25" y="25" font-size="12" fill="#1f2937">Field</text>
    <rect x="0" y="35" width="20" height="20" fill="#7c3aed" opacity="0.6" />
    <text x="25" y="50" font-size="12" fill="#1f2937">Club</text>
    <rect x="0" y="60" width="20" height="20" fill="#0891b2" opacity="0.6" />
    <text x="25" y="75" font-size="12" fill="#1f2937">Loge</text>
    <rect x="0" y="85" width="20" height="20" fill="#059669" opacity="0.6" />
    <text x="25" y="100" font-size="12" fill="#1f2937">Reserve</text>
    <rect x="0" y="110" width="20" height="20" fill="#ea580c" opacity="0.6" />
    <text x="25" y="125" font-size="12" fill="#1f2937">Upper</text>
    <rect x="0" y="135" width="20" height="20" fill="#dc2626" opacity="0.6" />
    <text x="25" y="150" font-size="12" fill="#1f2937">Pavilion</text>
  </g>
</svg>