<?xml version="1.0" encoding="UTF-8"?>
<svg xmlns="http://www.w3.org/2000/svg" viewBox="0 0 1000 1000" class="stadium-map">
  <defs>
    <style>
      .section-path {
        cursor: pointer;
        transition: all 0.2s ease;
      }
      .section-path:hover {
        fill-opacity: 0.9;
        stroke-width: 2;
        stroke: #ffffff;
      }
      .field {
        fill: #22c55e;
      }
    </style>
  </defs>

  <!-- Baseball field -->
  <circle cx="500" cy="500" r="150" class="field" fill="#22c55e" opacity="0.3" />
  <circle cx="500" cy="500" r="120" fill="#a16207" opacity="0.2" />

  <!-- Home plate indicator -->
  <circle cx="500" cy="580" r="5" fill="#dc2626" />

  <!-- Sections -->
  
      <g class="section" data-section-id="1" data-level="field">
        <path
          d="
    M 614.7471102580957 625.4316574370937
    L 655.2460903491884 669.7016541795972
    A 230 230 0 0 1 639.5640335382765 682.8165215250713
    L 603.1560247891608 635.1252550402701
    A 170 170 0 0 0 614.7471102580957 625.4316574370937
    Z
  "
          fill="#2563eb"
          fill-opacity="0.6"
          stroke="#1f2937"
          stroke-width="1"
          class="section-path"
          data-section="1"
        />
        <title>1 (0 seats)</title>
      </g>
    

      <g class="section" data-section-id="10" data-level="field">
        <path
          d="
    M 489.9290932580686 669.7014343999347
    L 486.3746555844457 729.5960583057939
    A 230 230 0 0 1 466.0412902794293 727.4792430840977
    L 474.90008411957814 668.1368318447678
    A 170 170 0 0 0 489.9290932580686 669.7014343999347
    Z
  "
          fill="#2563eb"
          fill-opacity="0.6"
          stroke="#1f2937"
          stroke-width="1"
          class="section-path"
          data-section="10"
        />
        <title>10 (0 seats)</title>
      </g>
    

      <g class="section" data-section-id="100" data-level="loge">
        <path
          d="
    M 747.826763922209 607.1536050902894
    L 802.8993781271444 630.9655173325759
    A 330 330 0 0 1 791.9275214249424 653.8776209677349
    L 738.849790256771 625.899871700874
    A 270 270 0 0 0 747.826763922209 607.1536050902894
    Z
  "
          fill="#0891b2"
          fill-opacity="0.6"
          stroke="#1f2937"
          stroke-width="1"
          class="section-path"
          data-section="100"
        />
        <title>100 (0 seats)</title>
      </g>
    

      <g class="section" data-section-id="101" data-level="loge">
        <path
          d="
    M 738.849790256771 625.899871700874
    L 791.9275214249424 653.8776209677349
    A 330 330 0 0 1 779.2256895444425 675.8778391339586
    L 728.4573823545438 643.9000502005115
    A 270 270 0 0 0 738.849790256771 625.899871700874
    Z
  "
          fill="#0891b2"
          fill-opacity="0.6"
          stroke="#1f2937"
          stroke-width="1"
          class="section-path"
          data-section="101"
        />
        <title>101 (0 seats)</title>
      </g>
    

      <g class="section" data-section-id="102" data-level="loge">
        <path
          d="
    M 728.4573823545438 643.9000502005116
    L 779.2256895444425 675.8778391339586
    A 330 330 0 0 1 764.8691540933542 696.8357975823276
    L 716.7111260763807 661.0474707491771
    A 270 270 0 0 0 728.4573823545438 643.9000502005116
    Z
  "
          fill="#0891b2"
          fill-opacity="0.6"
          stroke="#1f2937"
          stroke-width="1"
          class="section-path"
          data-section="102"
        />
        <title>102 (0 seats)</title>
      </g>
    

      <g class="section" data-section-id="103" data-level="loge">
        <path
          d="
    M 716.7111260763807 661.0474707491771
    L 764.8691540933542 696.8357975823276
    A 330 330 0 0 1 748.9429925246541 716.6272985403041
    L 703.6806302474442 677.2405169875215
    A 270 270 0 0 0 716.7111260763807 661.0474707491771
    Z
  "
          fill="#0891b2"
          fill-opacity="0.6"
          stroke="#1f2937"
          stroke-width="1"
          class="section-path"
          data-section="103"
        />
        <title>103 (0 seats)</title>
      </g>
    

      <g class="section" data-section-id="104" data-level="loge">
        <path
          d="
    M 703.6806302474442 677.2405169875215
    L 748.9429925246541 716.6272985403041
    A 330 330 0 0 1 731.5415839639039 735.1350567131291
    L 689.443114152285 692.3832282198329
    A 270 270 0 0 0 703.6806302474442 677.2405169875215
    Z
  "
          fill="#0891b2"
          fill-opacity="0.6"
          stroke="#1f2937"
          stroke-width="1"
          class="section-path"
          data-section="104"
        />
        <title>104 (0 seats)</title>
      </g>
    

      <g class="section" data-section-id="105" data-level="loge">
        <path
          d="
    M 689.443114152285 692.3832282198329
    L 731.5415839639039 735.1350567131291
    A 330 330 0 0 1 712.76804991445 752.2493943215763
    L 674.0829499300046 706.3858680812897
    A 270 270 0 0 0 689.443114152285 692.3832282198329
    Z
  "
          fill="#0891b2"
          fill-opacity="0.6"
          stroke="#1f2937"
          stroke-width="1"
          class="section-path"
          data-section="105"
        />
        <title>105 (0 seats)</title>
      </g>
    

      <g class="section" data-section-id="106" data-level="loge">
        <path
          d="
    M 674.0829499300046 706.3858680812898
    L 712.76804991445 752.2493943215763
    A 330 330 0 0 1 692.7336431549134 767.8688910572382
    L 657.6911625812927 719.1654563195585
    A 270 270 0 0 0 674.0829499300046 706.3858680812898
    Z
  "
          fill="#0891b2"
          fill-opacity="0.6"
          stroke="#1f2937"
          stroke-width="1"
          class="section-path"
          data-section="106"
        />
        <title>106 (0 seats)</title>
      </g>
    

      <g class="section" data-section-id="107" data-level="loge">
        <path
          d="
    M 657.6911625812927 719.1654563195585
    L 692.7336431549134 767.8688910572382
    A 330 330 0 0 1 671.5570884503888 781.9009851036805
    L 640.3648905503181 730.6462605393749
    A 270 270 0 0 0 657.6911625812927 719.1654563195585
    Z
  "
          fill="#0891b2"
          fill-opacity="0.6"
          stroke="#1f2937"
          stroke-width="1"
          class="section-path"
          data-section="107"
        />
        <title>107 (0 seats)</title>
      </g>
    

      <g class="section" data-section-id="108" data-level="loge">
        <path
          d="
    M 640.3648905503181 730.6462605393749
    L 671.5570884503888 781.9009851036805
    A 330 330 0 0 1 649.3638789843279 794.2625216617894
    L 622.2068100780865 740.7602449960095
    A 270 270 0 0 0 640.3648905503181 730.6462605393749
    Z
  "
          fill="#0891b2"
          fill-opacity="0.6"
          stroke="#1f2937"
          stroke-width="1"
          class="section-path"
          data-section="108"
        />
        <title>108 (0 seats)</title>
      </g>
    

      <g class="section" data-section-id="109" data-level="loge">
        <path
          d="
    M 622.2068100780864 740.7602449960095
    L 649.3638789843278 794.2625216617894
    A 330 330 0 0 1 626.2855326804796 804.8802457287246
    L 603.3245267385743 749.4474737780474
    A 270 270 0 0 0 622.2068100780864 740.7602449960095
    Z
  "
          fill="#0891b2"
          fill-opacity="0.6"
          stroke="#1f2937"
          stroke-width="1"
          class="section-path"
          data-section="109"
        />
        <title>109 (0 seats)</title>
      </g>
    

      <g class="section" data-section-id="11" data-level="field">
        <path
          d="
    M 474.90008411957814 668.1368318447678
    L 466.0412902794293 727.4792430840977
    A 230 230 0 0 1 445.9762094703737 723.5652702384945
    L 460.06937221723274 665.2438953936698
    A 170 170 0 0 0 474.90008411957814 668.1368318447678
    Z
  "
          fill="#2563eb"
          fill-opacity="0.6"
          stroke="#1f2937"
          stroke-width="1"
          class="section-path"
          data-section="11"
        />
        <title>11 (0 seats)</title>
      </g>
    

      <g class="section" data-section-id="110" data-level="loge">
        <path
          d="
    M 603.3245267385743 749.4474737780474
    L 626.2855326804796 804.8802457287246
    A 330 330 0 0 1 602.4588128219596 813.6912362102496
    L 583.8299377634214 756.6564659902043
    A 270 270 0 0 0 603.3245267385743 749.4474737780474
    Z
  "
          fill="#0891b2"
          fill-opacity="0.6"
          stroke="#1f2937"
          stroke-width="1"
          class="section-path"
          data-section="110"
        />
        <title>110 (0 seats)</title>
      </g>
    

      <g class="section" data-section-id="111" data-level="loge">
        <path
          d="
    M 583.8299377634214 756.6564659902043
    L 602.4588128219594 813.6912362102496
    A 330 330 0 0 1 578.0249175860902 820.6432787938706
    L 563.8385689340738 762.3445008313487
    A 270 270 0 0 0 583.8299377634214 756.6564659902043
    Z
  "
          fill="#0891b2"
          fill-opacity="0.6"
          stroke="#1f2937"
          stroke-width="1"
          class="section-path"
          data-section="111"
        />
        <title>111 (0 seats)</title>
      </g>
    

      <g class="section" data-section-id="112" data-level="loge">
        <path
          d="
    M 563.8385689340738 762.3445008313487
    L 578.0249175860902 820.6432787938706
    A 330 330 0 0 1 553.1286432978662 825.6951753731211
    L 543.4688899709815 766.4778707598264
    A 270 270 0 0 0 563.8385689340738 762.3445008313487
    Z
  "
          fill="#0891b2"
          fill-opacity="0.6"
          stroke="#1f2937"
          stroke-width="1"
          class="section-path"
          data-section="112"
        />
        <title>112 (0 seats)</title>
      </g>
    

      <g class="section" data-section-id="113" data-level="loge">
        <path
          d="
    M 543.4688899709815 766.4778707598264
    L 553.1286432978662 825.6951753731211
    A 330 330 0 0 1 527.9175263606406 828.8169881893314
    L 522.8416124768878 769.0320812458167
    A 270 270 0 0 0 543.4688899709815 766.4778707598264
    Z
  "
          fill="#0891b2"
          fill-opacity="0.6"
          stroke="#1f2937"
          stroke-width="1"
          class="section-path"
          data-section="113"
        />
        <title>113 (0 seats)</title>
      </g>
    

      <g class="section" data-section-id="114" data-level="loge">
        <path
          d="
    M 522.8416124768878 769.0320812458167
    L 527.9175263606406 828.8169881893314
    A 330 330 0 0 1 502.54096894898623 829.9902172440878
    L 502.0789745946251 769.991995926981
    A 270 270 0 0 0 522.8416124768878 769.0320812458167
    Z
  "
          fill="#0891b2"
          fill-opacity="0.6"
          stroke="#1f2937"
          stroke-width="1"
          class="section-path"
          data-section="114"
        />
        <title>114 (0 seats)</title>
      </g>
    

      <g class="section" data-section-id="115" data-level="loge">
        <path
          d="
    M 502.0789745946251 769.991995926981
    L 502.54096894898623 829.9902172440878
    A 330 330 0 0 1 477.14935364491686 829.2079099310266
    L 481.3040166185683 769.3519263072036
    A 270 270 0 0 0 502.0789745946251 769.991995926981
    Z
  "
          fill="#0891b2"
          fill-opacity="0.6"
          stroke="#1f2937"
          stroke-width="1"
          class="section-path"
          data-section="115"
        />
        <title>115 (0 seats)</title>
      </g>
    

      <g class="section" data-section-id="116" data-level="loge">
        <path
          d="
    M 481.30401661856826 769.3519263072035
    L 477.1493536449168 829.2079099310265
    A 330 330 0 0 1 451.8931522641712 826.4747022372817
    L 460.63985185250374 767.1156654668669
    A 270 270 0 0 0 481.30401661856826 769.3519263072035
    Z
  "
          fill="#0891b2"
          fill-opacity="0.6"
          stroke="#1f2937"
          stroke-width="1"
          class="section-path"
          data-section="116"
        />
        <title>116 (0 seats)</title>
      </g>
    

      <g class="section" data-section-id="117" data-level="loge">
        <path
          d="
    M 460.6398518525036 767.1156654668669
    L 451.89315226417114 826.4747022372817
    A 330 330 0 0 1 426.9220341536939 821.8067912704238
    L 440.20893703484046 763.2964655848922
    A 270 270 0 0 0 460.6398518525036 767.1156654668669
    Z
  "
          fill="#0891b2"
          fill-opacity="0.6"
          stroke="#1f2937"
          stroke-width="1"
          class="section-path"
          data-section="117"
        />
        <title>117 (0 seats)</title>
      </g>
    

      <g class="section" data-section-id="118" data-level="loge">
        <path
          d="
    M 440.20893703484046 763.2964655848922
    L 426.9220341536939 821.8067912704238
    A 330 330 0 0 1 402.38397924458076 815.2318392736963
    L 420.132346654657 757.9169594057516
    A 270 270 0 0 0 440.20893703484046 763.2964655848922
    Z
  "
          fill="#0891b2"
          fill-opacity="0.6"
          stroke="#1f2937"
          stroke-width="1"
          class="section-path"
          data-section="118"
        />
        <title>118 (0 seats)</title>
      </g>
    

      <g class="section" data-section-id="119" data-level="loge">
        <path
          d="
    M 420.132346654657 757.9169594057516
    L 402.38397924458076 815.2318392736963
    A 330 330 0 0 1 378.42440111657686 806.7888096983608
    L 400.5290554590174 751.0090261168406
    A 270 270 0 0 0 420.132346654657 757.9169594057516
    Z
  "
          fill="#0891b2"
          fill-opacity="0.6"
          stroke="#1f2937"
          stroke-width="1"
          class="section-path"
          data-section="119"
        />
        <title>119 (0 seats)</title>
      </g>
    

      <g class="section" data-section-id="12" data-level="field">
        <path
          d="
    M 460.0693722172328 665.2438953936698
    L 445.97620947037376 723.5652702384945
    A 230 230 0 0 1 426.3379336115473 717.885061386464
    L 445.5541248433176 661.0454801552125
    A 170 170 0 0 0 460.0693722172328 665.2438953936698
    Z
  "
          fill="#2563eb"
          fill-opacity="0.6"
          stroke="#1f2937"
          stroke-width="1"
          class="section-path"
          data-section="12"
        />
        <title>12 (0 seats)</title>
      </g>
    

      <g class="section" data-section-id="120" data-level="loge">
        <path
          d="
    M 400.52905545901734 751.0090261168406
    L 378.42440111657675 806.7888096983606
    A 330 330 0 0 1 355.185285270883 796.52773630459
    L 381.51523340344977 742.6136024310282
    A 270 270 0 0 0 400.52905545901734 751.0090261168406
    Z
  "
          fill="#0891b2"
          fill-opacity="0.6"
          stroke="#1f2937"
          stroke-width="1"
          class="section-path"
          data-section="120"
        />
        <title>120 (0 seats)</title>
      </g>
    

      <g class="section" data-section-id="121" data-level="loge">
        <path
          d="
    M 381.51523340344977 742.6136024310282
    L 355.185285270883 796.52773630459
    A 330 330 0 0 1 332.80434771790664 784.5094266592328
    L 363.20355722374177 732.7804399939178
    A 270 270 0 0 0 381.51523340344977 742.6136024310282
    Z
  "
          fill="#0891b2"
          fill-opacity="0.6"
          stroke="#1f2937"
          stroke-width="1"
          class="section-path"
          data-section="121"
        />
        <title>121 (0 seats)</title>
      </g>
    

      <g class="section" data-section-id="122" data-level="loge">
        <path
          d="
    M 363.20355722374177 732.7804399939178
    L 332.80434771790664 784.5094266592328
    A 330 330 0 0 1 311.4142188661977 770.8051017875284
    L 345.7025427087072 721.5678105534323
    A 270 270 0 0 0 363.20355722374177 732.7804399939178
    Z
  "
          fill="#0891b2"
          fill-opacity="0.6"
          stroke="#1f2937"
          stroke-width="1"
          class="section-path"
          data-section="122"
        />
        <title>122 (0 seats)</title>
      </g>
    

      <g class="section" data-section-id="123" data-level="loge">
        <path
          d="
    M 345.7025427087072 721.5678105534323
    L 311.4142188661977 770.8051017875284
    A 330 330 0 0 1 291.1416575488853 755.4959741142175
    L 329.11590163090614 709.0421606389052
    A 270 270 0 0 0 345.7025427087072 721.5678105534323
    Z
  "
          fill="#0891b2"
          fill-opacity="0.6"
          stroke="#1f2937"
          stroke-width="1"
          class="section-path"
          data-section="123"
        />
        <title>123 (0 seats)</title>
      </g>
    

      <g class="section" data-section-id="124" data-level="loge">
        <path
          d="
    M 329.11590163090614 709.0421606389052
    L 291.1416575488853 755.4959741142175
    A 330 330 0 0 1 272.1067998453233 738.6727661951829
    L 313.5419271461736 695.2777177960587
    A 270 270 0 0 0 329.11590163090614 709.0421606389052
    Z
  "
          fill="#0891b2"
          fill-opacity="0.6"
          stroke="#1f2937"
          stroke-width="1"
          class="section-path"
          data-section="124"
        />
        <title>124 (0 seats)</title>
      </g>
    

      <g class="section" data-section-id="125" data-level="loge">
        <path
          d="
    M 313.54192714617375 695.2777177960589
    L 272.1067998453235 738.6727661951832
    A 330 330 0 0 1 254.42244714946344 720.4351730916414
    L 299.07291130410647 680.356050711343
    A 270 270 0 0 0 313.54192714617375 695.2777177960589
    Z
  "
          fill="#0891b2"
          fill-opacity="0.6"
          stroke="#1f2937"
          stroke-width="1"
          class="section-path"
          data-section="125"
        />
        <title>125 (0 seats)</title>
      </g>
    

      <g class="section" data-section-id="126" data-level="loge">
        <path
          d="
    M 299.07291130410647 680.356050711343
    L 254.42244714946344 720.4351730916414
    A 330 330 0 0 1 238.19339770389223 700.8912715728776
    L 285.7945981213664 664.3655858323544
    A 270 270 0 0 0 299.07291130410647 680.356050711343
    Z
  "
          fill="#0891b2"
          fill-opacity="0.6"
          stroke="#1f2937"
          stroke-width="1"
          class="section-path"
          data-section="126"
        />
        <title>126 (0 seats)</title>
      </g>
    

      <g class="section" data-section-id="127" data-level="loge">
        <path
          d="
    M 285.7945981213666 664.3655858323548
    L 238.19339770389251 700.8912715728779
    A 330 330 0 0 1 223.51582556089278 680.1568796486144
    L 273.78567545891224 647.4010833488663
    A 270 270 0 0 0 285.7945981213666 664.3655858323548
    Z
  "
          fill="#0891b2"
          fill-opacity="0.6"
          stroke="#1f2937"
          stroke-width="1"
          class="section-path"
          data-section="127"
        />
        <title>127 (0 seats)</title>
      </g>
    

      <g class="section" data-section-id="128" data-level="loge">
        <path
          d="
    M 273.78567545891224 647.4010833488663
    L 223.51582556089278 680.1568796486144
    A 330 330 0 0 1 210.47671065082915 658.3548702264515
    L 263.11730871431473 629.5630756398239
    A 270 270 0 0 0 273.78567545891224 647.4010833488663
    Z
  "
          fill="#0891b2"
          fill-opacity="0.6"
          stroke="#1f2937"
          stroke-width="1"
          class="section-path"
          data-section="128"
        />
        <title>128 (0 seats)</title>
      </g>
    

      <g class="section" data-section-id="129" data-level="loge">
        <path
          d="
    M 263.11730871431485 629.5630756398241
    L 210.47671065082926 658.3548702264517
    A 330 330 0 0 1 199.1533233353013 635.614442961678
    L 253.85271909251924 610.9572715141002
    A 270 270 0 0 0 263.11730871431485 629.5630756398241
    Z
  "
          fill="#0891b2"
          fill-opacity="0.6"
          stroke="#1f2937"
          stroke-width="1"
          class="section-path"
          data-section="129"
        />
        <title>129 (0 seats)</title>
      </g>
    

      <g class="section" data-section-id="13" data-level="field">
        <path
          d="
    M 445.5541248433176 661.0454801552125
    L 426.3379336115473 717.885061386464
    A 230 230 0 0 1 407.28161126376637 710.4834919658942
    L 431.4690170210447 655.5747549313131
    A 170 170 0 0 0 445.5541248433176 661.0454801552125
    Z
  "
          fill="#2563eb"
          fill-opacity="0.6"
          stroke="#1f2937"
          stroke-width="1"
          class="section-path"
          data-section="13"
        />
        <title>13 (0 seats)</title>
      </g>
    

      <g class="section" data-section-id="130" data-level="loge">
        <path
          d="
    M 253.85271909251924 610.9572715141002
    L 199.1533233353013 635.614442961678
    A 330 330 0 0 1 189.61276649962264 612.0703586144982
    L 246.04680895423672 591.6939297754985
    A 270 270 0 0 0 253.85271909251924 610.9572715141002
    Z
  "
          fill="#0891b2"
          fill-opacity="0.6"
          stroke="#1f2937"
          stroke-width="1"
          class="section-path"
          data-section="130"
        />
        <title>130 (0 seats)</title>
      </g>
    

      <g class="section" data-section-id="131" data-level="loge">
        <path
          d="
    M 246.04680895423675 591.6939297754986
    L 189.6127664996227 612.0703586144983
    A 330 330 0 0 1 181.91157789820704 587.8621404519125
    L 239.7458364621694 571.8872058242921
    A 270 270 0 0 0 246.04680895423675 591.6939297754986
    Z
  "
          fill="#0891b2"
          fill-opacity="0.6"
          stroke="#1f2937"
          stroke-width="1"
          class="section-path"
          data-section="131"
        />
        <title>131 (0 seats)</title>
      </g>
    

      <g class="section" data-section-id="132" data-level="loge">
        <path
          d="
    M 239.74583646216945 571.8872058242922
    L 181.9115778982071 587.8621404519126
    A 330 330 0 0 1 176.09539510937793 563.133247426772
    L 234.98714145312744 551.6544751673589
    A 270 270 0 0 0 239.74583646216945 571.8872058242922
    Z
  "
          fill="#0891b2"
          fill-opacity="0.6"
          stroke="#1f2937"
          stroke-width="1"
          class="section-path"
          data-section="132"
        />
        <title>132 (0 seats)</title>
      </g>
    

      <g class="section" data-section-id="133" data-level="loge">
        <path
          d="
    M 234.98714145312744 551.6544751673589
    L 176.09539510937793 563.133247426772
    A 330 330 0 0 1 172.19868508509649 538.0302240337901
    L 231.7989241605335 531.1156378458282
    A 270 270 0 0 0 234.98714145312744 551.6544751673589
    Z
  "
          fill="#0891b2"
          fill-opacity="0.6"
          stroke="#1f2937"
          stroke-width="1"
          class="section-path"
          data-section="133"
        />
        <title>133 (0 seats)</title>
      </g>
    

      <g class="section" data-section-id="134" data-level="loge">
        <path
          d="
    M 231.7989241605335 531.1156378458284
    L 172.19868508509649 538.0302240337902
    A 330 330 0 0 1 170.24453989830658 512.7018318804996
    L 230.20007809861448 510.39240790222703
    A 270 270 0 0 0 231.7989241605335 531.1156378458284
    Z
  "
          fill="#0891b2"
          fill-opacity="0.6"
          stroke="#1f2937"
          stroke-width="1"
          class="section-path"
          data-section="134"
        />
        <title>134 (0 seats)</title>
      </g>
    

      <g class="section" data-section-id="135" data-level="loge">
        <path
          d="
    M 230.20007809861448 510.39240790222715
    L 170.24453989830658 512.7018318804999
    A 330 330 0 0 1 170.24453989830658 487.29816811950025
    L 230.20007809861448 489.6075920977729
    A 270 270 0 0 0 230.20007809861448 510.39240790222715
    Z
  "
          fill="#0891b2"
          fill-opacity="0.6"
          stroke="#1f2937"
          stroke-width="1"
          class="section-path"
          data-section="135"
        />
        <title>135 (0 seats)</title>
      </g>
    

      <g class="section" data-section-id="136" data-level="loge">
        <path
          d="
    M 230.20007809861448 489.607592097773
    L 170.24453989830658 487.2981681195004
    A 330 330 0 0 1 172.19868508509649 461.9697759662097
    L 231.7989241605335 468.8843621541716
    A 270 270 0 0 0 230.20007809861448 489.607592097773
    Z
  "
          fill="#0891b2"
          fill-opacity="0.6"
          stroke="#1f2937"
          stroke-width="1"
          class="section-path"
          data-section="136"
        />
        <title>136 (0 seats)</title>
      </g>
    

      <g class="section" data-section-id="137" data-level="loge">
        <path
          d="
    M 231.7989241605335 468.8843621541717
    L 172.19868508509649 461.96977596620985
    A 330 330 0 0 1 176.09539510937793 436.8667525732281
    L 234.98714145312738 448.34552483264116
    A 270 270 0 0 0 231.7989241605335 468.8843621541717
    Z
  "
          fill="#0891b2"
          fill-opacity="0.6"
          stroke="#1f2937"
          stroke-width="1"
          class="section-path"
          data-section="137"
        />
        <title>137 (0 seats)</title>
      </g>
    

      <g class="section" data-section-id="138" data-level="loge">
        <path
          d="
    M 234.98714145312738 448.3455248326413
    L 176.09539510937793 436.86675257322827
    A 330 330 0 0 1 181.91157789820704 412.1378595480876
    L 239.7458364621694 428.112794175708
    A 270 270 0 0 0 234.98714145312738 448.3455248326413
    Z
  "
          fill="#0891b2"
          fill-opacity="0.6"
          stroke="#1f2937"
          stroke-width="1"
          class="section-path"
          data-section="138"
        />
        <title>138 (0 seats)</title>
      </g>
    

      <g class="section" data-section-id="139" data-level="loge">
        <path
          d="
    M 239.7458364621694 428.112794175708
    L 181.91157789820704 412.1378595480876
    A 330 330 0 0 1 189.6127664996227 387.9296413855016
    L 246.04680895423678 408.3060702245013
    A 270 270 0 0 0 239.7458364621694 428.112794175708
    Z
  "
          fill="#0891b2"
          fill-opacity="0.6"
          stroke="#1f2937"
          stroke-width="1"
          class="section-path"
          data-section="139"
        />
        <title>139 (0 seats)</title>
      </g>
    

      <g class="section" data-section-id="14" data-level="field">
        <path
          d="
    M 431.46901702104475 655.5747549313131
    L 407.2816112637664 710.4834919658942
    A 230 230 0 0 1 388.9577933719287 701.4190367049964
    L 417.92532553577337 648.8749401732582
    A 170 170 0 0 0 431.46901702104475 655.5747549313131
    Z
  "
          fill="#2563eb"
          fill-opacity="0.6"
          stroke="#1f2937"
          stroke-width="1"
          class="section-path"
          data-section="14"
        />
        <title>14 (0 seats)</title>
      </g>
    

      <g class="section" data-section-id="140" data-level="loge">
        <path
          d="
    M 246.04680895423664 408.30607022450164
    L 189.61276649962258 387.929641385502
    A 330 330 0 0 1 199.1533233353012 364.3855570383222
    L 253.85271909251915 389.0427284859
    A 270 270 0 0 0 246.04680895423664 408.30607022450164
    Z
  "
          fill="#0891b2"
          fill-opacity="0.6"
          stroke="#1f2937"
          stroke-width="1"
          class="section-path"
          data-section="140"
        />
        <title>140 (0 seats)</title>
      </g>
    

      <g class="section" data-section-id="15" data-level="field">
        <path
          d="
    M 417.92532553577337 648.8749401732582
    L 388.9577933719287 701.4190367049964
    A 230 230 0 0 1 371.51124386515994 690.7633076535465
    L 405.0300498133791 640.9989665265343
    A 170 170 0 0 0 417.92532553577337 648.8749401732582
    Z
  "
          fill="#2563eb"
          fill-opacity="0.6"
          stroke="#1f2937"
          stroke-width="1"
          class="section-path"
          data-section="15"
        />
        <title>15 (0 seats)</title>
      </g>
    

      <g class="section" data-section-id="16" data-level="field">
        <path
          d="
    M 405.0300498133791 640.9989665265343
    L 371.51124386515994 690.7633076535465
    A 230 230 0 0 1 355.07979597620647 678.6004884251497
    L 392.88506659110914 632.0090566620672
    A 170 170 0 0 0 405.0300498133791 640.9989665265343
    Z
  "
          fill="#2563eb"
          fill-opacity="0.6"
          stroke="#1f2937"
          stroke-width="1"
          class="section-path"
          data-section="16"
        />
        <title>16 (0 seats)</title>
      </g>
    

      <g class="section" data-section-id="17" data-level="field">
        <path
          d="
    M 392.88506659110914 632.0090566620672
    L 355.07979597620647 678.6004884251497
    A 230 230 0 0 1 339.7932633155108 665.0266691201962
    L 381.5863250592906 621.9762336975364
    A 170 170 0 0 0 392.88506659110914 632.0090566620672
    Z
  "
          fill="#2563eb"
          fill-opacity="0.6"
          stroke="#1f2937"
          stroke-width="1"
          class="section-path"
          data-section="17"
        />
        <title>17 (0 seats)</title>
      </g>
    

      <g class="section" data-section-id="18" data-level="field">
        <path
          d="
    M 381.58632505929046 621.9762336975363
    L 339.7932633155106 665.0266691201961
    A 230 230 0 0 1 325.77241430282737 650.14908718382
    L 371.2230888325246 610.9797600923887
    A 170 170 0 0 0 381.58632505929046 621.9762336975363
    Z
  "
          fill="#2563eb"
          fill-opacity="0.6"
          stroke="#1f2937"
          stroke-width="1"
          class="section-path"
          data-section="18"
        />
        <title>18 (0 seats)</title>
      </g>
    

      <g class="section" data-section-id="19" data-level="field">
        <path
          d="
    M 371.2230888325246 610.9797600923887
    L 325.77241430282737 650.14908718382
    A 230 230 0 0 1 313.1280180586933 634.0852801963287
    L 361.8772307390342 599.1065114494603
    A 170 170 0 0 0 371.2230888325246 610.9797600923887
    Z
  "
          fill="#2563eb"
          fill-opacity="0.6"
          stroke="#1f2937"
          stroke-width="1"
          class="section-path"
          data-section="19"
        />
        <title>19 (0 seats)</title>
      </g>
    

      <g class="section" data-section-id="2" data-level="field">
        <path
          d="
    M 603.1560247891609 635.1252550402701
    L 639.5640335382765 682.8165215250713
    A 230 230 0 0 1 622.7793769319019 694.48708080542
    L 590.7499742540144 643.7513205953104
    A 170 170 0 0 0 603.1560247891609 635.1252550402701
    Z
  "
          fill="#2563eb"
          fill-opacity="0.6"
          stroke="#1f2937"
          stroke-width="1"
          class="section-path"
          data-section="2"
        />
        <title>2 (0 seats)</title>
      </g>
    

      <g class="section" data-section-id="20" data-level="field">
        <path
          d="
    M 361.87723073903413 599.1065114494602
    L 313.1280180586932 634.0852801963285
    A 230 230 0 0 1 301.9599692935082 616.9621572893207
    L 353.62258599954953 586.4502901703675
    A 170 170 0 0 0 361.87723073903413 599.1065114494602
    Z
  "
          fill="#2563eb"
          fill-opacity="0.6"
          stroke="#1f2937"
          stroke-width="1"
          class="section-path"
          data-section="20"
        />
        <title>20 (0 seats)</title>
      </g>
    

      <g class="section" data-section-id="21" data-level="field">
        <path
          d="
    M 353.62258599954953 586.4502901703675
    L 301.9599692935082 616.9621572893207
    A 230 230 0 0 1 292.356499107879 598.9149965235997
    L 346.5243689058236 573.1110843870085
    A 170 170 0 0 0 353.62258599954953 586.4502901703675
    Z
  "
          fill="#2563eb"
          fill-opacity="0.6"
          stroke="#1f2937"
          stroke-width="1"
          class="section-path"
          data-section="21"
        />
        <title>21 (0 seats)</title>
      </g>
    

      <g class="section" data-section-id="22" data-level="field">
        <path
          d="
    M 346.52436890582356 573.1110843870084
    L 292.3564991078789 598.9149965235996
    A 230 230 0 0 1 284.3934779391522 580.0863761499116
    L 340.63865760719943 559.1942780238478
    A 170 170 0 0 0 346.52436890582356 573.1110843870084
    Z
  "
          fill="#2563eb"
          fill-opacity="0.6"
          stroke="#1f2937"
          stroke-width="1"
          class="section-path"
          data-section="22"
        />
        <title>22 (0 seats)</title>
      </g>
    

      <g class="section" data-section-id="23" data-level="field">
        <path
          d="
    M 340.63865760719943 559.1942780238478
    L 284.3934779391522 580.0863761499116
    A 230 230 0 0 1 278.1338161610775 560.6250481958856
    L 336.011951075579 544.8098182317415
    A 170 170 0 0 0 340.63865760719943 559.1942780238478
    Z
  "
          fill="#2563eb"
          fill-opacity="0.6"
          stroke="#1f2937"
          stroke-width="1"
          class="section-path"
          data-section="23"
        />
        <title>23 (0 seats)</title>
      </g>
    

      <g class="section" data-section-id="24" data-level="field">
        <path
          d="
    M 336.011951075579 544.8098182317415
    L 278.13381616107745 560.6250481958855
    A 230 230 0 0 1 273.6269670720527 540.6847632781918
    L 332.68080174890855 530.0713467708374
    A 170 170 0 0 0 336.011951075579 544.8098182317415
    Z
  "
          fill="#2563eb"
          fill-opacity="0.6"
          stroke="#1f2937"
          stroke-width="1"
          class="section-path"
          data-section="24"
        />
        <title>24 (0 seats)</title>
      </g>
    

      <g class="section" data-section-id="25" data-level="field">
        <path
          d="
    M 332.68080174890855 530.0713467708374
    L 273.6269670720527 540.6847632781917
    A 230 230 0 0 1 270.9085361985001 520.423055924275
    L 330.67152675541314 515.095302204899
    A 170 170 0 0 0 332.68080174890855 530.0713467708374
    Z
  "
          fill="#2563eb"
          fill-opacity="0.6"
          stroke="#1f2937"
          stroke-width="1"
          class="section-path"
          data-section="25"
        />
        <title>25 (0 seats)</title>
      </g>
    

      <g class="section" data-section-id="26" data-level="field">
        <path
          d="
    M 330.67152675541314 515.0953022048989
    L 270.9085361985001 520.423055924275
    A 230 230 0 0 1 270 500
    L 330 500
    A 170 170 0 0 0 330.67152675541314 515.0953022048989
    Z
  "
          fill="#2563eb"
          fill-opacity="0.6"
          stroke="#1f2937"
          stroke-width="1"
          class="section-path"
          data-section="26"
        />
        <title>26 (0 seats)</title>
      </g>
    

      <g class="section" data-section-id="27" data-level="field">
        <path
          d="
    M 330 500
    L 270 500
    A 230 230 0 0 1 270.9085361985001 479.5769440757251
    L 330.6715267554131 484.9046977951012
    A 170 170 0 0 0 330 500
    Z
  "
          fill="#2563eb"
          fill-opacity="0.6"
          stroke="#1f2937"
          stroke-width="1"
          class="section-path"
          data-section="27"
        />
        <title>27 (0 seats)</title>
      </g>
    

      <g class="section" data-section-id="28" data-level="field">
        <path
          d="
    M 330.67152675541314 484.9046977951011
    L 270.9085361985001 479.576944075725
    A 230 230 0 0 1 273.6269670720527 459.31523672180833
    L 332.6808017489085 469.9286532291627
    A 170 170 0 0 0 330.67152675541314 484.9046977951011
    Z
  "
          fill="#2563eb"
          fill-opacity="0.6"
          stroke="#1f2937"
          stroke-width="1"
          class="section-path"
          data-section="28"
        />
        <title>28 (0 seats)</title>
      </g>
    

      <g class="section" data-section-id="29" data-level="field">
        <path
          d="
    M 332.68080174890855 469.9286532291626
    L 273.6269670720527 459.3152367218082
    A 230 230 0 0 1 278.13381616107745 439.3749518041145
    L 336.011951075579 455.1901817682586
    A 170 170 0 0 0 332.68080174890855 469.9286532291626
    Z
  "
          fill="#2563eb"
          fill-opacity="0.6"
          stroke="#1f2937"
          stroke-width="1"
          class="section-path"
          data-section="29"
        />
        <title>29 (0 seats)</title>
      </g>
    

      <g class="section" data-section-id="3" data-level="field">
        <path
          d="
    M 590.7499742540144 643.7513205953104
    L 622.7793769319019 694.48708080542
    A 230 230 0 0 1 605.024724600554 704.6211309287919
    L 577.6269703569312 651.241705469107
    A 170 170 0 0 0 590.7499742540144 643.7513205953104
    Z
  "
          fill="#2563eb"
          fill-opacity="0.6"
          stroke="#1f2937"
          stroke-width="1"
          class="section-path"
          data-section="3"
        />
        <title>3 (0 seats)</title>
      </g>
    

      <g class="section" data-section-id="30" data-level="field">
        <path
          d="
    M 336.011951075579 455.1901817682585
    L 278.1338161610775 439.37495180411446
    A 230 230 0 0 1 284.39347793915215 419.91362385008836
    L 340.63865760719943 440.80572197615226
    A 170 170 0 0 0 336.011951075579 455.1901817682585
    Z
  "
          fill="#2563eb"
          fill-opacity="0.6"
          stroke="#1f2937"
          stroke-width="1"
          class="section-path"
          data-section="30"
        />
        <title>30 (0 seats)</title>
      </g>
    

      <g class="section" data-section-id="31" data-level="field">
        <path
          d="
    M 340.63865760719943 440.8057219761522
    L 284.3934779391522 419.91362385008824
    A 230 230 0 0 1 292.35649910787896 401.0850034764004
    L 346.5243689058236 426.8889156129916
    A 170 170 0 0 0 340.63865760719943 440.8057219761522
    Z
  "
          fill="#2563eb"
          fill-opacity="0.6"
          stroke="#1f2937"
          stroke-width="1"
          class="section-path"
          data-section="31"
        />
        <title>31 (0 seats)</title>
      </g>
    

      <g class="section" data-section-id="32" data-level="field">
        <path
          d="
    M 346.5243689058236 426.8889156129915
    L 292.356499107879 401.0850034764003
    A 230 230 0 0 1 301.9599692935082 383.03784271067934
    L 353.62258599954953 413.54970982963255
    A 170 170 0 0 0 346.5243689058236 426.8889156129915
    Z
  "
          fill="#2563eb"
          fill-opacity="0.6"
          stroke="#1f2937"
          stroke-width="1"
          class="section-path"
          data-section="32"
        />
        <title>32 (0 seats)</title>
      </g>
    

      <g class="section" data-section-id="33" data-level="field">
        <path
          d="
    M 353.62258599954953 413.54970982963255
    L 301.9599692935082 383.03784271067934
    A 230 230 0 0 1 313.1280180586932 365.9147198036716
    L 361.8772307390341 400.89348855053987
    A 170 170 0 0 0 353.62258599954953 413.54970982963255
    Z
  "
          fill="#2563eb"
          fill-opacity="0.6"
          stroke="#1f2937"
          stroke-width="1"
          class="section-path"
          data-section="33"
        />
        <title>33 (0 seats)</title>
      </g>
    

      <g class="section" data-section-id="34" data-level="field">
        <path
          d="
    M 361.8772307390342 400.8934885505398
    L 313.12801805869327 365.91471980367146
    A 230 230 0 0 1 325.77241430282726 349.8509128161802
    L 371.22308883252447 389.0202399076114
    A 170 170 0 0 0 361.8772307390342 400.8934885505398
    Z
  "
          fill="#2563eb"
          fill-opacity="0.6"
          stroke="#1f2937"
          stroke-width="1"
          class="section-path"
          data-section="34"
        />
        <title>34 (0 seats)</title>
      </g>
    

      <g class="section" data-section-id="35" data-level="field">
        <path
          d="
    M 371.2230888325246 389.0202399076113
    L 325.7724143028274 349.85091281617997
    A 230 230 0 0 1 339.79326331551056 334.97333087980394
    L 381.5863250592904 378.0237663024638
    A 170 170 0 0 0 371.2230888325246 389.0202399076113
    Z
  "
          fill="#2563eb"
          fill-opacity="0.6"
          stroke="#1f2937"
          stroke-width="1"
          class="section-path"
          data-section="35"
        />
        <title>35 (0 seats)</title>
      </g>
    

      <g class="section" data-section-id="36" data-level="field">
        <path
          d="
    M 381.5863250592905 378.0237663024637
    L 339.7932633155107 334.9733308798038
    A 230 230 0 0 1 355.07979597620636 321.3995115748503
    L 392.885066591109 367.99094333793283
    A 170 170 0 0 0 381.5863250592905 378.0237663024637
    Z
  "
          fill="#2563eb"
          fill-opacity="0.6"
          stroke="#1f2937"
          stroke-width="1"
          class="section-path"
          data-section="36"
        />
        <title>36 (0 seats)</title>
      </g>
    

      <g class="section" data-section-id="37" data-level="field">
        <path
          d="
    M 392.88506659110914 367.9909433379328
    L 355.07979597620647 321.3995115748502
    A 230 230 0 0 1 371.51124386515994 309.2366923464536
    L 405.03004981337904 359.00103347346567
    A 170 170 0 0 0 392.88506659110914 367.9909433379328
    Z
  "
          fill="#2563eb"
          fill-opacity="0.6"
          stroke="#1f2937"
          stroke-width="1"
          class="section-path"
          data-section="37"
        />
        <title>37 (0 seats)</title>
      </g>
    

      <g class="section" data-section-id="38" data-level="field">
        <path
          d="
    M 405.03004981337904 359.00103347346567
    L 371.51124386515994 309.2366923464536
    A 230 230 0 0 1 388.9577933719286 298.5809632950036
    L 417.92532553577325 351.1250598267418
    A 170 170 0 0 0 405.03004981337904 359.00103347346567
    Z
  "
          fill="#2563eb"
          fill-opacity="0.6"
          stroke="#1f2937"
          stroke-width="1"
          class="section-path"
          data-section="38"
        />
        <title>38 (0 seats)</title>
      </g>
    

      <g class="section" data-section-id="39" data-level="field">
        <path
          d="
    M 417.92532553577325 351.1250598267418
    L 388.9577933719286 298.5809632950036
    A 230 230 0 0 1 407.2816112637662 289.51650803410587
    L 431.4690170210446 344.4252450686869
    A 170 170 0 0 0 417.92532553577325 351.1250598267418
    Z
  "
          fill="#2563eb"
          fill-opacity="0.6"
          stroke="#1f2937"
          stroke-width="1"
          class="section-path"
          data-section="39"
        />
        <title>39 (0 seats)</title>
      </g>
    

      <g class="section" data-section-id="4" data-level="field">
        <path
          d="
    M 577.6269703569312 651.241705469107
    L 605.024724600554 704.6211309287919
    A 230 230 0 0 1 586.4403438862748 713.1386097093217
    L 563.8906889594205 657.5372332634117
    A 170 170 0 0 0 577.6269703569312 651.241705469107
    Z
  "
          fill="#2563eb"
          fill-opacity="0.6"
          stroke="#1f2937"
          stroke-width="1"
          class="section-path"
          data-section="4"
        />
        <title>4 (0 seats)</title>
      </g>
    

      <g class="section" data-section-id="40" data-level="field">
        <path
          d="
    M 431.4690170210447 344.4252450686869
    L 407.28161126376637 289.51650803410575
    A 230 230 0 0 1 426.3379336115472 282.11493861353597
    L 445.55412484331754 338.95451984478746
    A 170 170 0 0 0 431.4690170210447 344.4252450686869
    Z
  "
          fill="#2563eb"
          fill-opacity="0.6"
          stroke="#1f2937"
          stroke-width="1"
          class="section-path"
          data-section="40"
        />
        <title>40 (0 seats)</title>
      </g>
    

      <g class="section" data-section-id="41" data-level="field">
        <path
          d="
    M 445.55412484331765 338.95451984478746
    L 426.33793361154744 282.11493861353597
    A 230 230 0 0 1 445.97620947037376 276.43472976150554
    L 460.0693722172328 334.75610460633015
    A 170 170 0 0 0 445.55412484331765 338.95451984478746
    Z
  "
          fill="#2563eb"
          fill-opacity="0.6"
          stroke="#1f2937"
          stroke-width="1"
          class="section-path"
          data-section="41"
        />
        <title>41 (0 seats)</title>
      </g>
    

      <g class="section" data-section-id="42" data-level="field">
        <path
          d="
    M 460.0693722172326 334.7561046063302
    L 445.97620947037353 276.43472976150554
    A 230 230 0 0 1 466.04129027942923 272.5207569159023
    L 474.90008411957814 331.86316815523213
    A 170 170 0 0 0 460.0693722172326 334.7561046063302
    Z
  "
          fill="#2563eb"
          fill-opacity="0.6"
          stroke="#1f2937"
          stroke-width="1"
          class="section-path"
          data-section="42"
        />
        <title>42 (0 seats)</title>
      </g>
    

      <g class="section" data-section-id="43" data-level="field">
        <path
          d="
    M 474.90008411957814 331.86316815523213
    L 466.04129027942923 272.5207569159023
    A 230 230 0 0 1 486.3746555844459 270.4039416942061
    L 489.92909325806875 330.29856560006533
    A 170 170 0 0 0 474.90008411957814 331.86316815523213
    Z
  "
          fill="#2563eb"
          fill-opacity="0.6"
          stroke="#1f2937"
          stroke-width="1"
          class="section-path"
          data-section="43"
        />
        <title>43 (0 seats)</title>
      </g>
    

      <g class="section" data-section-id="44" data-level="field">
        <path
          d="
    M 489.92909325806875 330.29856560006533
    L 486.3746555844459 270.4039416942061
    A 230 230 0 0 1 506.8156653991891 270.1010076029773
    L 505.0376657298354 330.07465779350497
    A 170 170 0 0 0 489.92909325806875 330.29856560006533
    Z
  "
          fill="#2563eb"
          fill-opacity="0.6"
          stroke="#1f2937"
          stroke-width="1"
          class="section-path"
          data-section="44"
        />
        <title>44 (0 seats)</title>
      </g>
    

      <g class="section" data-section-id="45" data-level="field">
        <path
          d="
    M 505.03766572983494 330.07465779350497
    L 506.81566539918845 270.1010076029773
    A 230 230 0 0 1 527.202829311914 271.6143479168911
    L 520.1064390566321 331.19321367770215
    A 170 170 0 0 0 505.03766572983494 330.07465779350497
    Z
  "
          fill="#2563eb"
          fill-opacity="0.6"
          stroke="#1f2937"
          stroke-width="1"
          class="section-path"
          data-section="45"
        />
        <title>45 (0 seats)</title>
      </g>
    

      <g class="section" data-section-id="46" data-level="field">
        <path
          d="
    M 520.1064390566321 331.19321367770215
    L 527.202829311914 271.6143479168911
    A 230 230 0 0 1 547.3750823104527 274.9320067711141
    L 535.0163651859868 333.6453963090844
    A 170 170 0 0 0 520.1064390566321 331.19321367770215
    Z
  "
          fill="#2563eb"
          fill-opacity="0.6"
          stroke="#1f2937"
          stroke-width="1"
          class="section-path"
          data-section="46"
        />
        <title>46 (0 seats)</title>
      </g>
    

      <g class="section" data-section-id="47" data-level="field">
        <path
          d="
    M 535.0163651859868 333.6453963090844
    L 547.3750823104527 274.9320067711141
    A 230 230 0 0 1 567.1730572465046 280.02777361639994
    L 549.6496510082861 337.41183267299124
    A 170 170 0 0 0 535.0163651859868 333.6453963090844
    Z
  "
          fill="#2563eb"
          fill-opacity="0.6"
          stroke="#1f2937"
          stroke-width="1"
          class="section-path"
          data-section="47"
        />
        <title>47 (0 seats)</title>
      </g>
    

      <g class="section" data-section-id="48" data-level="field">
        <path
          d="
    M 549.6496510082859 337.4118326729912
    L 567.1730572465045 280.0277736163998
    A 230 230 0 0 1 586.440343886275 286.8613902906784
    L 563.8906889594206 342.4627667365884
    A 170 170 0 0 0 549.6496510082859 337.4118326729912
    Z
  "
          fill="#2563eb"
          fill-opacity="0.6"
          stroke="#1f2937"
          stroke-width="1"
          class="section-path"
          data-section="48"
        />
        <title>48 (0 seats)</title>
      </g>
    

      <g class="section" data-section-id="49" data-level="field">
        <path
          d="
    M 563.8906889594203 342.46276673658826
    L 586.4403438862746 286.86139029067823
    A 230 230 0 0 1 605.024724600554 295.37886907120816
    L 577.6269703569312 348.75829453089295
    A 170 170 0 0 0 563.8906889594203 342.46276673658826
    Z
  "
          fill="#2563eb"
          fill-opacity="0.6"
          stroke="#1f2937"
          stroke-width="1"
          class="section-path"
          data-section="49"
        />
        <title>49 (0 seats)</title>
      </g>
    

      <g class="section" data-section-id="5" data-level="field">
        <path
          d="
    M 563.8906889594205 657.5372332634117
    L 586.4403438862748 713.1386097093217
    A 230 230 0 0 1 567.1730572465044 719.9722263836002
    L 549.6496510082859 662.5881673270088
    A 170 170 0 0 0 563.8906889594205 657.5372332634117
    Z
  "
          fill="#2563eb"
          fill-opacity="0.6"
          stroke="#1f2937"
          stroke-width="1"
          class="section-path"
          data-section="5"
        />
        <title>5 (0 seats)</title>
      </g>
    

      <g class="section" data-section-id="50" data-level="field">
        <path
          d="
    M 577.6269703569312 348.75829453089295
    L 605.024724600554 295.37886907120816
    A 230 230 0 0 1 622.779376931902 305.51291919458015
    L 590.7499742540145 356.24867940468965
    A 170 170 0 0 0 577.6269703569312 348.75829453089295
    Z
  "
          fill="#2563eb"
          fill-opacity="0.6"
          stroke="#1f2937"
          stroke-width="1"
          class="section-path"
          data-section="50"
        />
        <title>50 (0 seats)</title>
      </g>
    

      <g class="section" data-section-id="51" data-level="field">
        <path
          d="
    M 590.7499742540144 356.2486794046896
    L 622.7793769319019 305.51291919458004
    A 230 230 0 0 1 639.5640335382766 317.1834784749288
    L 603.1560247891609 364.87474495973
    A 170 170 0 0 0 590.7499742540144 356.2486794046896
    Z
  "
          fill="#2563eb"
          fill-opacity="0.6"
          stroke="#1f2937"
          stroke-width="1"
          class="section-path"
          data-section="51"
        />
        <title>51 (0 seats)</title>
      </g>
    

      <g class="section" data-section-id="52" data-level="field">
        <path
          d="
    M 603.1560247891609 364.87474495973
    L 639.5640335382766 317.1834784749288
    A 230 230 0 0 1 655.2460903491885 330.29834582040286
    L 614.7471102580959 374.5683425629065
    A 170 170 0 0 0 603.1560247891609 364.87474495973
    Z
  "
          fill="#2563eb"
          fill-opacity="0.6"
          stroke="#1f2937"
          stroke-width="1"
          class="section-path"
          data-section="52"
        />
        <title>52 (0 seats)</title>
      </g>
    

      <g class="section" data-section-id="53" data-level="field">
        <path
          d="
    M 614.7471102580957 374.56834256290637
    L 655.2460903491884 330.29834582040274
    A 230 230 0 0 1 669.7016541795973 344.75390965081164
    L 625.4316574370937 385.25288974190426
    A 170 170 0 0 0 614.7471102580957 374.56834256290637
    Z
  "
          fill="#2563eb"
          fill-opacity="0.6"
          stroke="#1f2937"
          stroke-width="1"
          class="section-path"
          data-section="53"
        />
        <title>53 (0 seats)</title>
      </g>
    

      <g class="section" data-section-id="54" data-level="other">
        <path
          d="
    M 767.6901125709288 464.75792810058607
    L 827.1768042533574 456.926356567383
    A 330 330 0 0 1 827.1768042533574 543.073643432617
    L 767.6901125709288 535.2420718994139
    A 270 270 0 0 0 767.6901125709288 464.75792810058607
    Z
  "
          fill="#6b7280"
          fill-opacity="0.6"
          stroke="#1f2937"
          stroke-width="1"
          class="section-path"
          data-section="54"
        />
        <title>54 (0 seats)</title>
      </g>
    

      <g class="section" data-section-id="55" data-level="other">
        <path
          d="
    M 767.6901125709288 464.75792810058607
    L 827.1768042533574 456.926356567383
    A 330 330 0 0 1 827.1768042533574 543.073643432617
    L 767.6901125709288 535.2420718994139
    A 270 270 0 0 0 767.6901125709288 464.75792810058607
    Z
  "
          fill="#6b7280"
          fill-opacity="0.6"
          stroke="#1f2937"
          stroke-width="1"
          class="section-path"
          data-section="55"
        />
        <title>55 (0 seats)</title>
      </g>
    

      <g class="section" data-section-id="56" data-level="other">
        <path
          d="
    M 767.6901125709288 464.75792810058607
    L 827.1768042533574 456.926356567383
    A 330 330 0 0 1 827.1768042533574 543.073643432617
    L 767.6901125709288 535.2420718994139
    A 270 270 0 0 0 767.6901125709288 464.75792810058607
    Z
  "
          fill="#6b7280"
          fill-opacity="0.6"
          stroke="#1f2937"
          stroke-width="1"
          class="section-path"
          data-section="56"
        />
        <title>56 (0 seats)</title>
      </g>
    

      <g class="section" data-section-id="57" data-level="other">
        <path
          d="
    M 767.6901125709288 464.75792810058607
    L 827.1768042533574 456.926356567383
    A 330 330 0 0 1 827.1768042533574 543.073643432617
    L 767.6901125709288 535.2420718994139
    A 270 270 0 0 0 767.6901125709288 464.75792810058607
    Z
  "
          fill="#6b7280"
          fill-opacity="0.6"
          stroke="#1f2937"
          stroke-width="1"
          class="section-path"
          data-section="57"
        />
        <title>57 (0 seats)</title>
      </g>
    

      <g class="section" data-section-id="58" data-level="other">
        <path
          d="
    M 767.6901125709288 464.75792810058607
    L 827.1768042533574 456.926356567383
    A 330 330 0 0 1 827.1768042533574 543.073643432617
    L 767.6901125709288 535.2420718994139
    A 270 270 0 0 0 767.6901125709288 464.75792810058607
    Z
  "
          fill="#6b7280"
          fill-opacity="0.6"
          stroke="#1f2937"
          stroke-width="1"
          class="section-path"
          data-section="58"
        />
        <title>58 (0 seats)</title>
      </g>
    

      <g class="section" data-section-id="59" data-level="other">
        <path
          d="
    M 767.6901125709288 464.75792810058607
    L 827.1768042533574 456.926356567383
    A 330 330 0 0 1 827.1768042533574 543.073643432617
    L 767.6901125709288 535.2420718994139
    A 270 270 0 0 0 767.6901125709288 464.75792810058607
    Z
  "
          fill="#6b7280"
          fill-opacity="0.6"
          stroke="#1f2937"
          stroke-width="1"
          class="section-path"
          data-section="59"
        />
        <title>59 (0 seats)</title>
      </g>
    

      <g class="section" data-section-id="6" data-level="field">
        <path
          d="
    M 549.6496510082859 662.5881673270088
    L 567.1730572465045 719.9722263836002
    A 230 230 0 0 1 547.3750823104526 725.0679932288859
    L 535.0163651859867 666.3546036909157
    A 170 170 0 0 0 549.6496510082859 662.5881673270088
    Z
  "
          fill="#2563eb"
          fill-opacity="0.6"
          stroke="#1f2937"
          stroke-width="1"
          class="section-path"
          data-section="6"
        />
        <title>6 (0 seats)</title>
      </g>
    

      <g class="section" data-section-id="60" data-level="other">
        <path
          d="
    M 767.6901125709288 464.75792810058607
    L 827.1768042533574 456.926356567383
    A 330 330 0 0 1 827.1768042533574 543.073643432617
    L 767.6901125709288 535.2420718994139
    A 270 270 0 0 0 767.6901125709288 464.75792810058607
    Z
  "
          fill="#6b7280"
          fill-opacity="0.6"
          stroke="#1f2937"
          stroke-width="1"
          class="section-path"
          data-section="60"
        />
        <title>60 (0 seats)</title>
      </g>
    

      <g class="section" data-section-id="7" data-level="field">
        <path
          d="
    M 535.0163651859867 666.3546036909157
    L 547.3750823104526 725.0679932288859
    A 230 230 0 0 1 527.2028293119141 728.3856520831089
    L 520.1064390566322 668.8067863222979
    A 170 170 0 0 0 535.0163651859867 666.3546036909157
    Z
  "
          fill="#2563eb"
          fill-opacity="0.6"
          stroke="#1f2937"
          stroke-width="1"
          class="section-path"
          data-section="7"
        />
        <title>7 (0 seats)</title>
      </g>
    

      <g class="section" data-section-id="8" data-level="field">
        <path
          d="
    M 520.1064390566322 668.8067863222979
    L 527.2028293119141 728.3856520831089
    A 230 230 0 0 1 506.81566539918873 729.8989923970228
    L 505.03766572983517 669.9253422064951
    A 170 170 0 0 0 520.1064390566322 668.8067863222979
    Z
  "
          fill="#2563eb"
          fill-opacity="0.6"
          stroke="#1f2937"
          stroke-width="1"
          class="section-path"
          data-section="8"
        />
        <title>8 (0 seats)</title>
      </g>
    

      <g class="section" data-section-id="9" data-level="field">
        <path
          d="
    M 505.03766572983517 669.9253422064951
    L 506.81566539918873 729.8989923970228
    A 230 230 0 0 1 486.3746555844457 729.5960583057939
    L 489.9290932580686 669.7014343999347
    A 170 170 0 0 0 505.03766572983517 669.9253422064951
    Z
  "
          fill="#2563eb"
          fill-opacity="0.6"
          stroke="#1f2937"
          stroke-width="1"
          class="section-path"
          data-section="9"
        />
        <title>9 (0 seats)</title>
      </g>
    

      <g class="section" data-section-id="90" data-level="other">
        <path
          d="
    M 767.6901125709288 464.75792810058607
    L 827.1768042533574 456.926356567383
    A 330 330 0 0 1 827.1768042533574 543.073643432617
    L 767.6901125709288 535.2420718994139
    A 270 270 0 0 0 767.6901125709288 464.75792810058607
    Z
  "
          fill="#6b7280"
          fill-opacity="0.6"
          stroke="#1f2937"
          stroke-width="1"
          class="section-path"
          data-section="90"
        />
        <title>90 (0 seats)</title>
      </g>
    

      <g class="section" data-section-id="91" data-level="other">
        <path
          d="
    M 767.6901125709288 464.75792810058607
    L 827.1768042533574 456.926356567383
    A 330 330 0 0 1 827.1768042533574 543.073643432617
    L 767.6901125709288 535.2420718994139
    A 270 270 0 0 0 767.6901125709288 464.75792810058607
    Z
  "
          fill="#6b7280"
          fill-opacity="0.6"
          stroke="#1f2937"
          stroke-width="1"
          class="section-path"
          data-section="91"
        />
        <title>91 (0 seats)</title>
      </g>
    

      <g class="section" data-section-id="92" data-level="other">
        <path
          d="
    M 767.6901125709288 464.75792810058607
    L 827.1768042533574 456.926356567383
    A 330 330 0 0 1 827.1768042533574 543.073643432617
    L 767.6901125709288 535.2420718994139
    A 270 270 0 0 0 767.6901125709288 464.75792810058607
    Z
  "
          fill="#6b7280"
          fill-opacity="0.6"
          stroke="#1f2937"
          stroke-width="1"
          class="section-path"
          data-section="92"
        />
        <title>92 (0 seats)</title>
      </g>
    

      <g class="section" data-section-id="93" data-level="other">
        <path
          d="
    M 767.6901125709288 464.75792810058607
    L 827.1768042533574 456.926356567383
    A 330 330 0 0 1 827.1768042533574 543.073643432617
    L 767.6901125709288 535.2420718994139
    A 270 270 0 0 0 767.6901125709288 464.75792810058607
    Z
  "
          fill="#6b7280"
          fill-opacity="0.6"
          stroke="#1f2937"
          stroke-width="1"
          class="section-path"
          data-section="93"
        />
        <title>93 (0 seats)</title>
      </g>
    

      <g class="section" data-section-id="94" data-level="other">
        <path
          d="
    M 767.6901125709288 464.75792810058607
    L 827.1768042533574 456.926356567383
    A 330 330 0 0 1 827.1768042533574 543.073643432617
    L 767.6901125709288 535.2420718994139
    A 270 270 0 0 0 767.6901125709288 464.75792810058607
    Z
  "
          fill="#6b7280"
          fill-opacity="0.6"
          stroke="#1f2937"
          stroke-width="1"
          class="section-path"
          data-section="94"
        />
        <title>94 (0 seats)</title>
      </g>
    

      <g class="section" data-section-id="95" data-level="other">
        <path
          d="
    M 767.6901125709288 464.75792810058607
    L 827.1768042533574 456.926356567383
    A 330 330 0 0 1 827.1768042533574 543.073643432617
    L 767.6901125709288 535.2420718994139
    A 270 270 0 0 0 767.6901125709288 464.75792810058607
    Z
  "
          fill="#6b7280"
          fill-opacity="0.6"
          stroke="#1f2937"
          stroke-width="1"
          class="section-path"
          data-section="95"
        />
        <title>95 (0 seats)</title>
      </g>
    

      <g class="section" data-section-id="96" data-level="other">
        <path
          d="
    M 767.6901125709288 464.75792810058607
    L 827.1768042533574 456.926356567383
    A 330 330 0 0 1 827.1768042533574 543.073643432617
    L 767.6901125709288 535.2420718994139
    A 270 270 0 0 0 767.6901125709288 464.75792810058607
    Z
  "
          fill="#6b7280"
          fill-opacity="0.6"
          stroke="#1f2937"
          stroke-width="1"
          class="section-path"
          data-section="96"
        />
        <title>96 (0 seats)</title>
      </g>
    

      <g class="section" data-section-id="97" data-level="other">
        <path
          d="
    M 767.6901125709288 464.75792810058607
    L 827.1768042533574 456.926356567383
    A 330 330 0 0 1 827.1768042533574 543.073643432617
    L 767.6901125709288 535.2420718994139
    A 270 270 0 0 0 767.6901125709288 464.75792810058607
    Z
  "
          fill="#6b7280"
          fill-opacity="0.6"
          stroke="#1f2937"
          stroke-width="1"
          class="section-path"
          data-section="97"
        />
        <title>97 (0 seats)</title>
      </g>
    

      <g class="section" data-section-id="98" data-level="other">
        <path
          d="
    M 767.6901125709288 464.75792810058607
    L 827.1768042533574 456.926356567383
    A 330 330 0 0 1 827.1768042533574 543.073643432617
    L 767.6901125709288 535.2420718994139
    A 270 270 0 0 0 767.6901125709288 464.75792810058607
    Z
  "
          fill="#6b7280"
          fill-opacity="0.6"
          stroke="#1f2937"
          stroke-width="1"
          class="section-path"
          data-section="98"
        />
        <title>98 (0 seats)</title>
      </g>
    

      <g class="section" data-section-id="99" data-level="other">
        <path
          d="
    M 767.6901125709288 464.75792810058607
    L 827.1768042533574 456.926356567383
    A 330 330 0 0 1 827.1768042533574 543.073643432617
    L 767.6901125709288 535.2420718994139
    A 270 270 0 0 0 767.6901125709288 464.75792810058607
    Z
  "
          fill="#6b7280"
          fill-opacity="0.6"
          stroke="#1f2937"
          stroke-width="1"
          class="section-path"
          data-section="99"
        />
        <title>99 (0 seats)</title>
      </g>
    

  <!-- Legend -->
  <g transform="translate(800, 50)">
    <text x="0" y="0" font-size="14" font-weight="bold" fill="#1f2937">Levels</text>
    <rect x="0" y="10" width="20" height="20" fill="#2563eb" opacity="0.6" />
    <text x="25" y="25" font-size="12" fill="#1f2937">Field</text>
    <rect x="0" y="35" width="20" height="20" fill="#7c3aed" opacity="0.6" />
    <text x="25" y="50" font-size="12" fill="#1f2937">Club</text>
    <rect x="0" y="60" width="20" height="20" fill="#0891b2" opacity="0.6" />
    <text x="25" y="75" font-size="12" fill="#1f2937">Loge</text>
    <rect x="0" y="85" width="20" height="20" fill="#059669" opacity="0.6" />
    <text x="25" y="100" font-size="12" fill="#1f2937">Reserve</text>
    <rect x="0" y="110" width="20" height="20" fill="#ea580c" opacity="0.6" />
    <text x="25" y="125" font-size="12" fill="#1f2937">Upper</text>
    <rect x="0" y="135" width="20" height="20" fill="#dc2626" opacity="0.6" />
    <text x="25" y="150" font-size="12" fill="#1f2937">Pavilion</text>
  </g>
</svg>